<ttFont>
    <TTGlyph name=".notdef" xMin="55" yMin="-3" xMax="525" yMax="461">
      <contour>
        <pt x="525" y="461" on="1"/>
        <pt x="525" y="-3" on="1"/>
        <pt x="55" y="-3" on="1"/>
        <pt x="55" y="461" on="1"/>
      </contour>
      <contour>
        <pt x="107" y="410" on="1"/>
        <pt x="107" y="49" on="1"/>
        <pt x="475" y="49" on="1"/>
        <pt x="475" y="410" on="1"/>
      </contour>
    </TTGlyph>
    <TTGlyph name="A" xMin="12" yMin="0" xMax="644" yMax="643">
      <contour>
        <pt x="539" y="0" on="1"/>
        <pt x="474" y="160" on="1"/>
        <pt x="179" y="160" on="1"/>
        <pt x="116" y="0" on="1"/>
        <pt x="12" y="0" on="1"/>
        <pt x="271" y="643" on="1"/>
        <pt x="381" y="643" on="1"/>
        <pt x="644" y="0" on="1"/>
      </contour>
      <contour>
        <pt x="325" y="528" on="1"/>
        <pt x="215" y="244" on="1"/>
        <pt x="437" y="244" on="1"/>
      </contour>
    </TTGlyph>
    <TTGlyph name="B" xMin="69" yMin="0" xMax="548" yMax="643">
      <contour>
        <pt x="548" y="174" on="1"/>
        <pt x="548" y="135" on="0"/>
        <pt x="513" y="70" on="0"/>
        <pt x="456" y="25" on="0"/>
        <pt x="384" y="0" on="0"/>
        <pt x="347" y="0" on="1"/>
        <pt x="69" y="0" on="1"/>
        <pt x="69" y="643" on="1"/>
        <pt x="329" y="643" on="1"/>
        <pt x="367" y="643" on="0"/>
        <pt x="437" y="624" on="0"/>
        <pt x="490" y="585" on="0"/>
        <pt x="522" y="525" on="0"/>
        <pt x="522" y="485" on="1"/>
        <pt x="522" y="456" on="0"/>
        <pt x="502" y="409" on="0"/>
        <pt x="470" y="373" on="0"/>
        <pt x="428" y="347" on="0"/>
        <pt x="406" y="340" on="1"/>
        <pt x="435" y="332" on="0"/>
        <pt x="486" y="303" on="0"/>
        <pt x="525" y="262" on="0"/>
        <pt x="548" y="208" on="0"/>
      </contour>
      <contour>
        <pt x="422" y="467" on="1"/>
        <pt x="422" y="509" on="0"/>
        <pt x="364" y="557" on="0"/>
        <pt x="298" y="557" on="1"/>
        <pt x="172" y="557" on="1"/>
        <pt x="172" y="376" on="1"/>
        <pt x="294" y="376" on="1"/>
        <pt x="361" y="376" on="0"/>
        <pt x="422" y="428" on="0"/>
      </contour>
      <contour>
        <pt x="444" y="190" on="1"/>
        <pt x="444" y="242" on="0"/>
        <pt x="363" y="294" on="0"/>
        <pt x="294" y="294" on="1"/>
        <pt x="172" y="294" on="1"/>
        <pt x="172" y="86" on="1"/>
        <pt x="297" y="86" on="1"/>
        <pt x="361" y="86" on="0"/>
        <pt x="444" y="140" on="0"/>
      </contour>
    </TTGlyph>
    <TTGlyph name="C" xMin="51" yMin="-13" xMax="568" yMax="655">
      <contour>
        <pt x="568" y="186" on="1"/>
        <pt x="566" y="143" on="0"/>
        <pt x="528" y="70" on="0"/>
        <pt x="464" y="17" on="0"/>
        <pt x="375" y="-13" on="0"/>
        <pt x="322" y="-13" on="1"/>
        <pt x="247" y="-13" on="0"/>
        <pt x="144" y="41" on="0"/>
        <pt x="79" y="133" on="0"/>
        <pt x="51" y="253" on="0"/>
        <pt x="51" y="318" on="1"/>
        <pt x="51" y="384" on="0"/>
        <pt x="81" y="506" on="0"/>
        <pt x="146" y="599" on="0"/>
        <pt x="249" y="655" on="0"/>
        <pt x="323" y="655" on="1"/>
        <pt x="384" y="655" on="0"/>
        <pt x="473" y="626" on="0"/>
        <pt x="532" y="575" on="0"/>
        <pt x="561" y="503" on="0"/>
        <pt x="563" y="460" on="1"/>
        <pt x="460" y="460" on="1"/>
        <pt x="458" y="517" on="0"/>
        <pt x="394" y="574" on="0"/>
        <pt x="323" y="574" on="1"/>
        <pt x="237" y="574" on="0"/>
        <pt x="157" y="446" on="0"/>
        <pt x="157" y="318" on="1"/>
        <pt x="157" y="185" on="0"/>
        <pt x="239" y="68" on="0"/>
        <pt x="321" y="68" on="1"/>
        <pt x="383" y="68" on="0"/>
        <pt x="457" y="127" on="0"/>
        <pt x="460" y="186" on="1"/>
        <pt x="568" y="186" on="1"/>
      </contour>
    </TTGlyph>
    <TTGlyph name="D" xMin="69" yMin="0" xMax="592" yMax="643">
      <contour>
        <pt x="592" y="322" on="1"/>
        <pt x="592" y="256" on="0"/>
        <pt x="554" y="139" on="0"/>
        <pt x="475" y="51" on="0"/>
        <pt x="352" y="0" on="0"/>
        <pt x="267" y="0" on="1"/>
        <pt x="69" y="0" on="1"/>
        <pt x="69" y="643" on="1"/>
        <pt x="267" y="643" on="1"/>
        <pt x="353" y="643" on="0"/>
        <pt x="476" y="592" on="0"/>
        <pt x="555" y="505" on="0"/>
        <pt x="592" y="388" on="0"/>
      </contour>
      <contour>
        <pt x="489" y="322" on="1"/>
        <pt x="489" y="438" on="0"/>
        <pt x="373" y="557" on="0"/>
        <pt x="268" y="557" on="1"/>
        <pt x="172" y="557" on="1"/>
        <pt x="172" y="86" on="1"/>
        <pt x="268" y="86" on="1"/>
        <pt x="373" y="86" on="0"/>
        <pt x="489" y="207" on="0"/>
      </contour>
    </TTGlyph>
    <TTGlyph name="E" xMin="69" yMin="0" xMax="484" yMax="643">
      <contour>
        <pt x="69" y="0" on="1"/>
        <pt x="69" y="643" on="1"/>
        <pt x="475" y="643" on="1"/>
        <pt x="475" y="557" on="1"/>
        <pt x="170" y="557" on="1"/>
        <pt x="170" y="372" on="1"/>
        <pt x="463" y="372" on="1"/>
        <pt x="463" y="289" on="1"/>
        <pt x="170" y="289" on="1"/>
        <pt x="170" y="86" on="1"/>
        <pt x="484" y="86" on="1"/>
        <pt x="484" y="0" on="1"/>
      </contour>
    </TTGlyph>
    <TTGlyph name="F" xMin="69" yMin="0" xMax="454" yMax="643">
      <contour>
        <pt x="172" y="287" on="1"/>
        <pt x="172" y="0" on="1"/>
        <pt x="69" y="0" on="1"/>
        <pt x="69" y="643" on="1"/>
        <pt x="454" y="643" on="1"/>
        <pt x="454" y="557" on="1"/>
        <pt x="172" y="557" on="1"/>
        <pt x="172" y="372" on="1"/>
        <pt x="436" y="372" on="1"/>
        <pt x="436" y="287" on="1"/>
      </contour>
    </TTGlyph>
    <TTGlyph name="G" xMin="51" yMin="-13" xMax="619" yMax="655">
      <contour>
        <pt x="613" y="30" on="1"/>
        <pt x="548" y="9" on="0"/>
        <pt x="422" y="-13" on="0"/>
        <pt x="380" y="-13" on="1"/>
        <pt x="285" y="-13" on="0"/>
        <pt x="159" y="47" on="0"/>
        <pt x="83" y="144" on="0"/>
        <pt x="51" y="270" on="0"/>
        <pt x="51" y="336" on="1"/>
        <pt x="51" y="403" on="0"/>
        <pt x="96" y="520" on="0"/>
        <pt x="179" y="606" on="0"/>
        <pt x="296" y="655" on="0"/>
        <pt x="368" y="655" on="1"/>
        <pt x="431" y="655" on="0"/>
        <pt x="525" y="623" on="0"/>
        <pt x="588" y="571" on="0"/>
        <pt x="619" y="504" on="0"/>
        <pt x="619" y="469" on="1"/>
        <pt x="514" y="469" on="1"/>
        <pt x="514" y="488" on="0"/>
        <pt x="492" y="524" on="0"/>
        <pt x="455" y="552" on="0"/>
        <pt x="402" y="569" on="0"/>
        <pt x="371" y="569" on="1"/>
        <pt x="313" y="569" on="0"/>
        <pt x="232" y="531" on="0"/>
        <pt x="181" y="467" on="0"/>
        <pt x="158" y="382" on="0"/>
        <pt x="158" y="334" on="1"/>
        <pt x="158" y="281" on="0"/>
        <pt x="182" y="187" on="0"/>
        <pt x="234" y="116" on="0"/>
        <pt x="315" y="74" on="0"/>
        <pt x="372" y="74" on="1"/>
        <pt x="404" y="74" on="0"/>
        <pt x="474" y="83" on="0"/>
        <pt x="509" y="92" on="1"/>
        <pt x="509" y="255" on="1"/>
        <pt x="373" y="255" on="1"/>
        <pt x="373" y="343" on="1"/>
        <pt x="613" y="343" on="1"/>
        <pt x="613" y="30" on="1"/>
      </contour>
    </TTGlyph>
    <TTGlyph name="H" xMin="69" yMin="0" xMax="565" yMax="643">
      <contour>
        <pt x="461" y="0" on="1"/>
        <pt x="461" y="289" on="1"/>
        <pt x="171" y="289" on="1"/>
        <pt x="171" y="0" on="1"/>
        <pt x="69" y="0" on="1"/>
        <pt x="69" y="643" on="1"/>
        <pt x="171" y="643" on="1"/>
        <pt x="171" y="374" on="1"/>
        <pt x="461" y="374" on="1"/>
        <pt x="461" y="643" on="1"/>
        <pt x="565" y="643" on="1"/>
        <pt x="565" y="0" on="1"/>
      </contour>
    </TTGlyph>
    <TTGlyph name="I" xMin="69" yMin="0" xMax="172" yMax="643">
      <contour>
        <pt x="69" y="0" on="1"/>
        <pt x="69" y="643" on="1"/>
        <pt x="172" y="643" on="1"/>
        <pt x="172" y="0" on="1"/>
      </contour>
    </TTGlyph>
    <TTGlyph name="J" xMin="51" yMin="-13" xMax="455" yMax="644">
      <contour>
        <pt x="455" y="191" on="1"/>
        <pt x="455" y="144" on="0"/>
        <pt x="423" y="69" on="0"/>
        <pt x="367" y="16" on="0"/>
        <pt x="291" y="-13" on="0"/>
        <pt x="248" y="-13" on="1"/>
        <pt x="151" y="-13" on="0"/>
        <pt x="51" y="92" on="0"/>
        <pt x="51" y="182" on="1"/>
        <pt x="155" y="182" on="1"/>
        <pt x="156" y="121" on="0"/>
        <pt x="209" y="74" on="0"/>
        <pt x="250" y="74" on="1"/>
        <pt x="295" y="74" on="0"/>
        <pt x="351" y="131" on="0"/>
        <pt x="351" y="194" on="1"/>
        <pt x="351" y="644" on="1"/>
        <pt x="455" y="644" on="1"/>
        <pt x="455" y="191" on="1"/>
      </contour>
    </TTGlyph>
    <TTGlyph name="K" xMin="69" yMin="0" xMax="576" yMax="643">
      <contour>
        <pt x="442" y="0" on="1"/>
        <pt x="172" y="333" on="1"/>
        <pt x="172" y="0" on="1"/>
        <pt x="69" y="0" on="1"/>
        <pt x="69" y="643" on="1"/>
        <pt x="172" y="643" on="1"/>
        <pt x="172" y="368" on="1"/>
        <pt x="420" y="643" on="1"/>
        <pt x="545" y="643" on="1"/>
        <pt x="287" y="362" on="1"/>
        <pt x="576" y="0" on="1"/>
      </contour>
    </TTGlyph>
    <TTGlyph name="L" xMin="69" yMin="0" xMax="459" yMax="643">
      <contour>
        <pt x="69" y="0" on="1"/>
        <pt x="69" y="643" on="1"/>
        <pt x="172" y="643" on="1"/>
        <pt x="172" y="86" on="1"/>
        <pt x="459" y="86" on="1"/>
        <pt x="459" y="0" on="1"/>
      </contour>
    </TTGlyph>
    <TTGlyph name="M" xMin="69" yMin="0" xMax="740" yMax="644">
      <contour>
        <pt x="639" y="0" on="1"/>
        <pt x="639" y="550" on="1"/>
        <pt x="448" y="0" on="1"/>
        <pt x="358" y="0" on="1"/>
        <pt x="169" y="547" on="1"/>
        <pt x="169" y="0" on="1"/>
        <pt x="69" y="0" on="1"/>
        <pt x="69" y="643" on="1"/>
        <pt x="234" y="643" on="1"/>
        <pt x="404" y="142" on="1"/>
        <pt x="575" y="644" on="1"/>
        <pt x="740" y="644" on="1"/>
        <pt x="740" y="0" on="1"/>
      </contour>
    </TTGlyph>
    <TTGlyph name="N" xMin="69" yMin="0" xMax="589" yMax="643">
      <contour>
        <pt x="441" y="0" on="1"/>
        <pt x="169" y="522" on="1"/>
        <pt x="169" y="0" on="1"/>
        <pt x="69" y="0" on="1"/>
        <pt x="69" y="643" on="1"/>
        <pt x="215" y="643" on="1"/>
        <pt x="487" y="120" on="1"/>
        <pt x="487" y="643" on="1"/>
        <pt x="589" y="643" on="1"/>
        <pt x="589" y="0" on="1"/>
      </contour>
    </TTGlyph>
    <TTGlyph name="O" xMin="51" yMin="-13" xMax="643" yMax="655">
      <contour>
        <pt x="643" y="330" on="1"/>
        <pt x="643" y="260" on="0"/>
        <pt x="606" y="135" on="0"/>
        <pt x="533" y="42" on="0"/>
        <pt x="422" y="-13" on="0"/>
        <pt x="348" y="-13" on="1"/>
        <pt x="273" y="-13" on="0"/>
        <pt x="161" y="42" on="0"/>
        <pt x="88" y="137" on="0"/>
        <pt x="51" y="261" on="0"/>
        <pt x="51" y="330" on="1"/>
        <pt x="51" y="400" on="0"/>
        <pt x="89" y="519" on="0"/>
        <pt x="163" y="606" on="0"/>
        <pt x="274" y="655" on="0"/>
        <pt x="348" y="655" on="1"/>
        <pt x="423" y="655" on="0"/>
        <pt x="534" y="605" on="0"/>
        <pt x="607" y="517" on="0"/>
        <pt x="643" y="399" on="0"/>
      </contour>
      <contour>
        <pt x="536" y="330" on="1"/>
        <pt x="536" y="383" on="0"/>
        <pt x="517" y="471" on="0"/>
        <pt x="473" y="534" on="0"/>
        <pt x="401" y="569" on="0"/>
        <pt x="348" y="569" on="1"/>
        <pt x="295" y="569" on="0"/>
        <pt x="222" y="534" on="0"/>
        <pt x="177" y="471" on="0"/>
        <pt x="158" y="383" on="0"/>
        <pt x="158" y="330" on="1"/>
        <pt x="158" y="277" on="0"/>
        <pt x="177" y="183" on="0"/>
        <pt x="222" y="114" on="0"/>
        <pt x="295" y="74" on="0"/>
        <pt x="348" y="74" on="1"/>
        <pt x="401" y="74" on="0"/>
        <pt x="473" y="114" on="0"/>
        <pt x="517" y="183" on="0"/>
        <pt x="536" y="277" on="0"/>
      </contour>
    </TTGlyph>
    <TTGlyph name="P" xMin="69" yMin="0" xMax="512" yMax="643">
      <contour>
        <pt x="512" y="452" on="1"/>
        <pt x="512" y="393" on="0"/>
        <pt x="469" y="320" on="0"/>
        <pt x="400" y="278" on="0"/>
        <pt x="312" y="263" on="0"/>
        <pt x="266" y="263" on="1"/>
        <pt x="172" y="263" on="1"/>
        <pt x="172" y="0" on="1"/>
        <pt x="69" y="0" on="1"/>
        <pt x="69" y="643" on="1"/>
        <pt x="266" y="643" on="1"/>
        <pt x="313" y="643" on="0"/>
        <pt x="402" y="627" on="0"/>
        <pt x="471" y="584" on="0"/>
        <pt x="512" y="510" on="0"/>
      </contour>
      <contour>
        <pt x="411" y="452" on="1"/>
        <pt x="411" y="511" on="0"/>
        <pt x="332" y="557" on="0"/>
        <pt x="257" y="557" on="1"/>
        <pt x="172" y="557" on="1"/>
        <pt x="172" y="349" on="1"/>
        <pt x="257" y="349" on="1"/>
        <pt x="331" y="349" on="0"/>
        <pt x="411" y="394" on="0"/>
      </contour>
    </TTGlyph>
    <TTGlyph name="Q" xMin="51" yMin="-13" xMax="685" yMax="655">
      <contour>
        <pt x="447" y="0" on="1"/>
        <pt x="412" y="-7" on="0"/>
        <pt x="365" y="-13" on="0"/>
        <pt x="348" y="-13" on="1"/>
        <pt x="273" y="-13" on="0"/>
        <pt x="161" y="43" on="0"/>
        <pt x="87" y="137" on="0"/>
        <pt x="51" y="261" on="0"/>
        <pt x="51" y="330" on="1"/>
        <pt x="51" y="400" on="0"/>
        <pt x="88" y="519" on="0"/>
        <pt x="163" y="606" on="0"/>
        <pt x="274" y="655" on="0"/>
        <pt x="348" y="655" on="1"/>
        <pt x="423" y="655" on="0"/>
        <pt x="534" y="605" on="0"/>
        <pt x="607" y="517" on="0"/>
        <pt x="643" y="399" on="0"/>
        <pt x="643" y="330" on="1"/>
        <pt x="643" y="252" on="0"/>
        <pt x="599" y="119" on="0"/>
        <pt x="554" y="76" on="1"/>
        <pt x="685" y="76" on="1"/>
        <pt x="685" y="0" on="1"/>
      </contour>
      <contour>
        <pt x="536" y="330" on="1"/>
        <pt x="536" y="383" on="0"/>
        <pt x="517" y="471" on="0"/>
        <pt x="473" y="534" on="0"/>
        <pt x="401" y="569" on="0"/>
        <pt x="348" y="569" on="1"/>
        <pt x="295" y="569" on="0"/>
        <pt x="222" y="534" on="0"/>
        <pt x="177" y="471" on="0"/>
        <pt x="158" y="383" on="0"/>
        <pt x="158" y="330" on="1"/>
        <pt x="158" y="277" on="0"/>
        <pt x="177" y="183" on="0"/>
        <pt x="222" y="114" on="0"/>
        <pt x="295" y="74" on="0"/>
        <pt x="348" y="74" on="1"/>
        <pt x="401" y="74" on="0"/>
        <pt x="473" y="114" on="0"/>
        <pt x="517" y="183" on="0"/>
        <pt x="536" y="277" on="0"/>
      </contour>
    </TTGlyph>
    <TTGlyph name="R" xMin="69" yMin="0" xMax="540" yMax="643">
      <contour>
        <pt x="434" y="0" on="1"/>
        <pt x="427" y="28" on="0"/>
        <pt x="419" y="68" on="0"/>
        <pt x="414" y="101" on="0"/>
        <pt x="409" y="133" on="0"/>
        <pt x="405" y="154" on="1"/>
        <pt x="397" y="196" on="0"/>
        <pt x="379" y="246" on="0"/>
        <pt x="348" y="273" on="0"/>
        <pt x="300" y="282" on="0"/>
        <pt x="262" y="282" on="1"/>
        <pt x="172" y="282" on="1"/>
        <pt x="172" y="0" on="1"/>
        <pt x="69" y="0" on="1"/>
        <pt x="69" y="643" on="1"/>
        <pt x="287" y="643" on="1"/>
        <pt x="405" y="643" on="0"/>
        <pt x="524" y="563" on="0"/>
        <pt x="524" y="468" on="1"/>
        <pt x="524" y="442" on="0"/>
        <pt x="503" y="398" on="0"/>
        <pt x="468" y="363" on="0"/>
        <pt x="423" y="335" on="0"/>
        <pt x="399" y="325" on="1"/>
        <pt x="428" y="318" on="0"/>
        <pt x="473" y="290" on="0"/>
        <pt x="486" y="258" on="1"/>
        <pt x="494" y="238" on="0"/>
        <pt x="503" y="177" on="0"/>
        <pt x="513" y="106" on="0"/>
        <pt x="527" y="32" on="0"/>
        <pt x="540" y="0" on="1"/>
      </contour>
      <contour>
        <pt x="420" y="461" on="1"/>
        <pt x="420" y="488" on="0"/>
        <pt x="399" y="524" on="0"/>
        <pt x="363" y="547" on="0"/>
        <pt x="314" y="557" on="0"/>
        <pt x="286" y="557" on="1"/>
        <pt x="172" y="557" on="1"/>
        <pt x="172" y="367" on="1"/>
        <pt x="283" y="367" on="1"/>
        <pt x="311" y="367" on="0"/>
        <pt x="361" y="378" on="0"/>
        <pt x="398" y="400" on="0"/>
        <pt x="420" y="436" on="0"/>
      </contour>
    </TTGlyph>
    <TTGlyph name="S" xMin="51" yMin="-13" xMax="543" yMax="655">
      <contour>
        <pt x="543" y="181" on="1"/>
        <pt x="543" y="127" on="0"/>
        <pt x="494" y="52" on="0"/>
        <pt x="418" y="7" on="0"/>
        <pt x="324" y="-13" on="0"/>
        <pt x="279" y="-13" on="1"/>
        <pt x="232" y="-13" on="0"/>
        <pt x="149" y="15" on="0"/>
        <pt x="87" y="69" on="0"/>
        <pt x="51" y="146" on="0"/>
        <pt x="51" y="195" on="1"/>
        <pt x="157" y="195" on="1"/>
        <pt x="158" y="140" on="0"/>
        <pt x="225" y="74" on="0"/>
        <pt x="279" y="74" on="1"/>
        <pt x="304" y="74" on="0"/>
        <pt x="361" y="81" on="0"/>
        <pt x="409" y="102" on="0"/>
        <pt x="441" y="140" on="0"/>
        <pt x="441" y="172" on="1"/>
        <pt x="441" y="206" on="0"/>
        <pt x="409" y="247" on="0"/>
        <pt x="355" y="272" on="0"/>
        <pt x="287" y="286" on="0"/>
        <pt x="217" y="301" on="0"/>
        <pt x="149" y="323" on="0"/>
        <pt x="95" y="362" on="0"/>
        <pt x="63" y="424" on="0"/>
        <pt x="63" y="472" on="1"/>
        <pt x="63" y="516" on="0"/>
        <pt x="105" y="584" on="0"/>
        <pt x="171" y="631" on="0"/>
        <pt x="251" y="655" on="0"/>
        <pt x="290" y="655" on="1"/>
        <pt x="334" y="655" on="0"/>
        <pt x="417" y="636" on="0"/>
        <pt x="481" y="593" on="0"/>
        <pt x="520" y="524" on="0"/>
        <pt x="520" y="475" on="1"/>
        <pt x="415" y="475" on="1"/>
        <pt x="415" y="504" on="0"/>
        <pt x="393" y="541" on="0"/>
        <pt x="357" y="563" on="0"/>
        <pt x="311" y="571" on="0"/>
        <pt x="287" y="571" on="1"/>
        <pt x="263" y="571" on="0"/>
        <pt x="219" y="560" on="0"/>
        <pt x="186" y="537" on="0"/>
        <pt x="166" y="501" on="0"/>
        <pt x="166" y="475" on="1"/>
        <pt x="166" y="436" on="0"/>
        <pt x="222" y="398" on="0"/>
        <pt x="306" y="374" on="0"/>
        <pt x="403" y="353" on="0"/>
        <pt x="487" y="314" on="0"/>
        <pt x="543" y="243" on="0"/>
      </contour>
    </TTGlyph>
    <TTGlyph name="T" xMin="21" yMin="0" xMax="532" yMax="643">
      <contour>
        <pt x="328" y="557" on="1"/>
        <pt x="328" y="0" on="1"/>
        <pt x="224" y="0" on="1"/>
        <pt x="224" y="557" on="1"/>
        <pt x="21" y="557" on="1"/>
        <pt x="21" y="643" on="1"/>
        <pt x="532" y="643" on="1"/>
        <pt x="532" y="557" on="1"/>
      </contour>
    </TTGlyph>
    <TTGlyph name="U" xMin="69" yMin="-13" xMax="594" yMax="643">
      <contour>
        <pt x="594" y="279" on="1"/>
        <pt x="594" y="128" on="0"/>
        <pt x="460" y="-13" on="0"/>
        <pt x="329" y="-13" on="1"/>
        <pt x="195" y="-13" on="0"/>
        <pt x="69" y="130" on="0"/>
        <pt x="69" y="279" on="1"/>
        <pt x="69" y="643" on="1"/>
        <pt x="172" y="643" on="1"/>
        <pt x="172" y="279" on="1"/>
        <pt x="172" y="216" on="0"/>
        <pt x="196" y="136" on="0"/>
        <pt x="238" y="91" on="0"/>
        <pt x="296" y="74" on="0"/>
        <pt x="330" y="74" on="1"/>
        <pt x="364" y="74" on="0"/>
        <pt x="422" y="91" on="0"/>
        <pt x="465" y="136" on="0"/>
        <pt x="489" y="216" on="0"/>
        <pt x="489" y="279" on="1"/>
        <pt x="489" y="643" on="1"/>
        <pt x="594" y="643" on="1"/>
        <pt x="594" y="279" on="1"/>
      </contour>
    </TTGlyph>
    <TTGlyph name="V" xMin="12" yMin="0" xMax="594" yMax="643">
      <contour>
        <pt x="361" y="0" on="1"/>
        <pt x="243" y="0" on="1"/>
        <pt x="12" y="643" on="1"/>
        <pt x="126" y="643" on="1"/>
        <pt x="303" y="126" on="1"/>
        <pt x="481" y="643" on="1"/>
        <pt x="594" y="643" on="1"/>
      </contour>
    </TTGlyph>
    <TTGlyph name="W" xMin="12" yMin="0" xMax="862" yMax="643">
      <contour>
        <pt x="681" y="0" on="1"/>
        <pt x="577" y="0" on="1"/>
        <pt x="436" y="517" on="1"/>
        <pt x="296" y="0" on="1"/>
        <pt x="192" y="0" on="1"/>
        <pt x="12" y="643" on="1"/>
        <pt x="122" y="643" on="1"/>
        <pt x="245" y="142" on="1"/>
        <pt x="378" y="643" on="1"/>
        <pt x="496" y="643" on="1"/>
        <pt x="628" y="142" on="1"/>
        <pt x="751" y="643" on="1"/>
        <pt x="862" y="643" on="1"/>
      </contour>
    </TTGlyph>
    <TTGlyph name="X" xMin="17" yMin="0" xMax="605" yMax="643">
      <contour>
        <pt x="479" y="0" on="1"/>
        <pt x="304" y="267" on="1"/>
        <pt x="132" y="0" on="1"/>
        <pt x="17" y="0" on="1"/>
        <pt x="249" y="340" on="1"/>
        <pt x="44" y="643" on="1"/>
        <pt x="170" y="643" on="1"/>
        <pt x="318" y="413" on="1"/>
        <pt x="463" y="643" on="1"/>
        <pt x="579" y="643" on="1"/>
        <pt x="372" y="340" on="1"/>
        <pt x="605" y="0" on="1"/>
      </contour>
    </TTGlyph>
    <TTGlyph name="Y" xMin="12" yMin="0" xMax="577" yMax="643">
      <contour>
        <pt x="346" y="252" on="1"/>
        <pt x="346" y="0" on="1"/>
        <pt x="243" y="0" on="1"/>
        <pt x="243" y="252" on="1"/>
        <pt x="12" y="643" on="1"/>
        <pt x="134" y="643" on="1"/>
        <pt x="298" y="347" on="1"/>
        <pt x="461" y="643" on="1"/>
        <pt x="577" y="643" on="1"/>
      </contour>
    </TTGlyph>
    <TTGlyph name="Z" xMin="40" yMin="0" xMax="513" yMax="643">
      <contour>
        <pt x="40" y="0" on="1"/>
        <pt x="40" y="102" on="1"/>
        <pt x="389" y="557" on="1"/>
        <pt x="58" y="557" on="1"/>
        <pt x="58" y="643" on="1"/>
        <pt x="505" y="643" on="1"/>
        <pt x="505" y="540" on="1"/>
        <pt x="156" y="86" on="1"/>
        <pt x="513" y="86" on="1"/>
        <pt x="513" y="0" on="1"/>
      </contour>
    </TTGlyph>
    <TTGlyph name="a" xMin="42" yMin="-12" xMax="443" yMax="456">
      <contour>
        <pt x="353" y="0" on="1"/>
        <pt x="350" y="14" on="0"/>
        <pt x="344" y="45" on="0"/>
        <pt x="342" y="60" on="1"/>
        <pt x="325" y="41" on="0"/>
        <pt x="294" y="14" on="0"/>
        <pt x="263" y="-4" on="0"/>
        <pt x="228" y="-12" on="0"/>
        <pt x="207" y="-12" on="1"/>
        <pt x="177" y="-12" on="0"/>
        <pt x="118" y="5" on="0"/>
        <pt x="71" y="38" on="0"/>
        <pt x="42" y="87" on="0"/>
        <pt x="42" y="119" on="1"/>
        <pt x="42" y="168" on="0"/>
        <pt x="85" y="232" on="0"/>
        <pt x="153" y="270" on="0"/>
        <pt x="235" y="284" on="0"/>
        <pt x="274" y="284" on="1"/>
        <pt x="337" y="284" on="1"/>
        <pt x="339" y="308" on="0"/>
        <pt x="333" y="348" on="0"/>
        <pt x="314" y="377" on="0"/>
        <pt x="277" y="393" on="0"/>
        <pt x="248" y="393" on="1"/>
        <pt x="212" y="393" on="0"/>
        <pt x="161" y="362" on="0"/>
        <pt x="159" y="324" on="1"/>
        <pt x="64" y="324" on="1"/>
        <pt x="64" y="360" on="0"/>
        <pt x="94" y="410" on="0"/>
        <pt x="144" y="442" on="0"/>
        <pt x="210" y="456" on="0"/>
        <pt x="247" y="456" on="1"/>
        <pt x="271" y="456" on="0"/>
        <pt x="324" y="450" on="0"/>
        <pt x="373" y="432" on="0"/>
        <pt x="412" y="401" on="0"/>
        <pt x="421" y="376" on="1"/>
        <pt x="426" y="361" on="0"/>
        <pt x="430" y="299" on="0"/>
        <pt x="430" y="267" on="1"/>
        <pt x="430" y="137" on="1"/>
        <pt x="430" y="119" on="0"/>
        <pt x="431" y="79" on="0"/>
        <pt x="434" y="42" on="0"/>
        <pt x="439" y="10" on="0"/>
        <pt x="443" y="0" on="1"/>
      </contour>
      <contour>
        <pt x="336" y="220" on="1"/>
        <pt x="328" y="221" on="0"/>
        <pt x="302" y="222" on="0"/>
        <pt x="292" y="222" on="1"/>
        <pt x="268" y="222" on="0"/>
        <pt x="213" y="213" on="0"/>
        <pt x="168" y="191" on="0"/>
        <pt x="138" y="156" on="0"/>
        <pt x="138" y="129" on="1"/>
        <pt x="138" y="95" on="0"/>
        <pt x="186" y="54" on="0"/>
        <pt x="220" y="54" on="1"/>
        <pt x="257" y="54" on="0"/>
        <pt x="303" y="81" on="0"/>
        <pt x="328" y="126" on="0"/>
        <pt x="336" y="187" on="0"/>
      </contour>
    </TTGlyph>
    <TTGlyph name="ampersand" xMin="51" yMin="-12" xMax="681" yMax="655">
      <contour>
        <pt x="547" y="0" on="1"/>
        <pt x="484" y="57" on="1"/>
        <pt x="449" y="28" on="0"/>
        <pt x="345" y="-12" on="0"/>
        <pt x="280" y="-12" on="1"/>
        <pt x="235" y="-12" on="0"/>
        <pt x="153" y="13" on="0"/>
        <pt x="89" y="63" on="0"/>
        <pt x="51" y="134" on="0"/>
        <pt x="51" y="181" on="1"/>
        <pt x="51" y="219" on="0"/>
        <pt x="72" y="278" on="0"/>
        <pt x="108" y="323" on="0"/>
        <pt x="159" y="358" on="0"/>
        <pt x="189" y="372" on="1"/>
        <pt x="157" y="403" on="0"/>
        <pt x="116" y="477" on="0"/>
        <pt x="116" y="516" on="1"/>
        <pt x="116" y="549" on="0"/>
        <pt x="144" y="601" on="0"/>
        <pt x="191" y="636" on="0"/>
        <pt x="252" y="655" on="0"/>
        <pt x="284" y="655" on="1"/>
        <pt x="318" y="655" on="0"/>
        <pt x="379" y="639" on="0"/>
        <pt x="425" y="608" on="0"/>
        <pt x="453" y="562" on="0"/>
        <pt x="453" y="532" on="1"/>
        <pt x="453" y="498" on="0"/>
        <pt x="427" y="445" on="0"/>
        <pt x="386" y="404" on="0"/>
        <pt x="338" y="372" on="0"/>
        <pt x="316" y="359" on="1"/>
        <pt x="351" y="315" on="0"/>
        <pt x="430" y="232" on="0"/>
        <pt x="475" y="189" on="1"/>
        <pt x="489" y="230" on="0"/>
        <pt x="494" y="309" on="0"/>
        <pt x="489" y="357" on="1"/>
        <pt x="592" y="357" on="1"/>
        <pt x="591" y="291" on="0"/>
        <pt x="568" y="178" on="0"/>
        <pt x="541" y="125" on="1"/>
        <pt x="550" y="114" on="0"/>
        <pt x="583" y="81" on="0"/>
        <pt x="622" y="47" on="0"/>
        <pt x="663" y="13" on="0"/>
        <pt x="681" y="0" on="1"/>
      </contour>
      <contour>
        <pt x="367" y="520" on="1"/>
        <pt x="367" y="532" on="0"/>
        <pt x="355" y="554" on="0"/>
        <pt x="335" y="572" on="0"/>
        <pt x="308" y="582" on="0"/>
        <pt x="294" y="582" on="1"/>
        <pt x="252" y="582" on="0"/>
        <pt x="213" y="543" on="0"/>
        <pt x="213" y="517" on="1"/>
        <pt x="213" y="493" on="0"/>
        <pt x="242" y="442" on="0"/>
        <pt x="268" y="411" on="1"/>
        <pt x="308" y="430" on="0"/>
        <pt x="367" y="489" on="0"/>
      </contour>
      <contour>
        <pt x="426" y="115" on="1"/>
        <pt x="372" y="164" on="0"/>
        <pt x="277" y="266" on="0"/>
        <pt x="236" y="314" on="1"/>
        <pt x="218" y="306" on="0"/>
        <pt x="188" y="278" on="0"/>
        <pt x="166" y="244" on="0"/>
        <pt x="153" y="205" on="0"/>
        <pt x="153" y="187" on="1"/>
        <pt x="153" y="166" on="0"/>
        <pt x="173" y="124" on="0"/>
        <pt x="208" y="89" on="0"/>
        <pt x="256" y="67" on="0"/>
        <pt x="283" y="67" on="1"/>
        <pt x="323" y="67" on="0"/>
        <pt x="396" y="88" on="0"/>
      </contour>
    </TTGlyph>
    <TTGlyph name="asciicircum" xMin="18" yMin="591" xMax="476" yMax="859">
      <contour>
        <pt x="437" y="591" on="1"/>
        <pt x="247" y="780" on="1"/>
        <pt x="57" y="591" on="1"/>
        <pt x="18" y="630" on="1"/>
        <pt x="247" y="859" on="1"/>
        <pt x="476" y="630" on="1"/>
      </contour>
    </TTGlyph>
    <TTGlyph name="asciitilde" xMin="55" yMin="173" xMax="511" yMax="295">
      <contour>
        <pt x="511" y="236" on="1"/>
        <pt x="476" y="203" on="0"/>
        <pt x="405" y="173" on="0"/>
        <pt x="372" y="173" on="1"/>
        <pt x="341" y="173" on="0"/>
        <pt x="291" y="192" on="0"/>
        <pt x="249" y="215" on="0"/>
        <pt x="214" y="234" on="0"/>
        <pt x="197" y="234" on="1"/>
        <pt x="186" y="234" on="0"/>
        <pt x="162" y="230" on="0"/>
        <pt x="134" y="217" on="0"/>
        <pt x="99" y="193" on="0"/>
        <pt x="77" y="174" on="1"/>
        <pt x="55" y="231" on="1"/>
        <pt x="93" y="266" on="0"/>
        <pt x="161" y="295" on="0"/>
        <pt x="197" y="295" on="1"/>
        <pt x="226" y="295" on="0"/>
        <pt x="269" y="276" on="0"/>
        <pt x="307" y="254" on="0"/>
        <pt x="346" y="235" on="0"/>
        <pt x="372" y="235" on="1"/>
        <pt x="395" y="235" on="0"/>
        <pt x="441" y="257" on="0"/>
        <pt x="472" y="282" on="1"/>
        <pt x="511" y="236" on="1"/>
      </contour>
    </TTGlyph>
    <TTGlyph name="asterisk" xMin="55" yMin="218" xMax="511" yMax="699">
      <contour>
        <pt x="472" y="305" on="1"/>
        <pt x="322" y="393" on="1"/>
        <pt x="322" y="218" on="1"/>
        <pt x="247" y="218" on="1"/>
        <pt x="247" y="393" on="1"/>
        <pt x="95" y="305" on="1"/>
        <pt x="55" y="370" on="1"/>
        <pt x="209" y="458" on="1"/>
        <pt x="55" y="547" on="1"/>
        <pt x="95" y="610" on="1"/>
        <pt x="244" y="524" on="1"/>
        <pt x="244" y="699" on="1"/>
        <pt x="322" y="699" on="1"/>
        <pt x="322" y="524" on="1"/>
        <pt x="472" y="610" on="1"/>
        <pt x="511" y="546" on="1"/>
        <pt x="357" y="458" on="1"/>
        <pt x="511" y="371" on="1"/>
      </contour>
    </TTGlyph>
    <TTGlyph name="at" xMin="47" yMin="-169" xMax="855" yMax="643">
      <contour>
        <pt x="855" y="268" on="1"/>
        <pt x="855" y="220" on="0"/>
        <pt x="829" y="129" on="0"/>
        <pt x="781" y="57" on="0"/>
        <pt x="713" y="13" on="0"/>
        <pt x="671" y="13" on="1"/>
        <pt x="627" y="13" on="0"/>
        <pt x="568" y="55" on="0"/>
        <pt x="550" y="94" on="1"/>
        <pt x="526" y="56" on="0"/>
        <pt x="465" y="17" on="0"/>
        <pt x="418" y="17" on="1"/>
        <pt x="380" y="17" on="0"/>
        <pt x="318" y="51" on="0"/>
        <pt x="272" y="109" on="0"/>
        <pt x="247" y="185" on="0"/>
        <pt x="247" y="228" on="1"/>
        <pt x="247" y="275" on="0"/>
        <pt x="271" y="353" on="0"/>
        <pt x="316" y="410" on="0"/>
        <pt x="377" y="442" on="0"/>
        <pt x="415" y="442" on="1"/>
        <pt x="454" y="442" on="0"/>
        <pt x="510" y="416" on="0"/>
        <pt x="537" y="383" on="1"/>
        <pt x="537" y="433" on="1"/>
        <pt x="632" y="433" on="1"/>
        <pt x="632" y="135" on="1"/>
        <pt x="632" y="123" on="0"/>
        <pt x="641" y="107" on="0"/>
        <pt x="655" y="99" on="0"/>
        <pt x="672" y="96" on="0"/>
        <pt x="679" y="96" on="1"/>
        <pt x="691" y="96" on="0"/>
        <pt x="719" y="114" on="0"/>
        <pt x="742" y="153" on="0"/>
        <pt x="757" y="213" on="0"/>
        <pt x="757" y="256" on="1"/>
        <pt x="757" y="334" on="0"/>
        <pt x="714" y="447" on="0"/>
        <pt x="636" y="521" on="0"/>
        <pt x="524" y="556" on="0"/>
        <pt x="455" y="556" on="1"/>
        <pt x="397" y="556" on="0"/>
        <pt x="286" y="518" on="0"/>
        <pt x="199" y="441" on="0"/>
        <pt x="145" y="323" on="0"/>
        <pt x="145" y="244" on="1"/>
        <pt x="145" y="171" on="0"/>
        <pt x="188" y="52" on="0"/>
        <pt x="269" y="-33" on="0"/>
        <pt x="383" y="-80" on="0"/>
        <pt x="455" y="-80" on="1"/>
        <pt x="485" y="-80" on="0"/>
        <pt x="531" y="-79" on="0"/>
        <pt x="571" y="-74" on="0"/>
        <pt x="609" y="-66" on="0"/>
        <pt x="630" y="-60" on="1"/>
        <pt x="630" y="-148" on="1"/>
        <pt x="603" y="-155" on="0"/>
        <pt x="562" y="-163" on="0"/>
        <pt x="526" y="-168" on="0"/>
        <pt x="492" y="-169" on="0"/>
        <pt x="473" y="-169" on="1"/>
        <pt x="391" y="-169" on="0"/>
        <pt x="237" y="-124" on="0"/>
        <pt x="119" y="-25" on="0"/>
        <pt x="47" y="134" on="0"/>
        <pt x="47" y="247" on="1"/>
        <pt x="47" y="340" on="0"/>
        <pt x="115" y="487" on="0"/>
        <pt x="228" y="589" on="0"/>
        <pt x="374" y="643" on="0"/>
        <pt x="453" y="643" on="1"/>
        <pt x="541" y="643" on="0"/>
        <pt x="689" y="593" on="0"/>
        <pt x="796" y="497" on="0"/>
        <pt x="855" y="357" on="0"/>
      </contour>
      <contour>
        <pt x="535" y="236" on="1"/>
        <pt x="535" y="294" on="0"/>
        <pt x="490" y="370" on="0"/>
        <pt x="441" y="370" on="1"/>
        <pt x="415" y="370" on="0"/>
        <pt x="379" y="345" on="0"/>
        <pt x="356" y="306" on="0"/>
        <pt x="346" y="257" on="0"/>
        <pt x="346" y="233" on="1"/>
        <pt x="346" y="207" on="0"/>
        <pt x="355" y="156" on="0"/>
        <pt x="376" y="115" on="0"/>
        <pt x="412" y="89" on="0"/>
        <pt x="440" y="89" on="1"/>
        <pt x="465" y="89" on="0"/>
        <pt x="501" y="116" on="0"/>
        <pt x="524" y="158" on="0"/>
        <pt x="535" y="210" on="0"/>
      </contour>
    </TTGlyph>
    <TTGlyph name="b" xMin="60" yMin="-12" xMax="490" yMax="643">
      <contour>
        <pt x="490" y="233" on="1"/>
        <pt x="490" y="175" on="0"/>
        <pt x="458" y="84" on="0"/>
        <pt x="404" y="21" on="0"/>
        <pt x="333" y="-12" on="0"/>
        <pt x="295" y="-12" on="1"/>
        <pt x="246" y="-12" on="0"/>
        <pt x="175" y="26" on="0"/>
        <pt x="154" y="52" on="1"/>
        <pt x="154" y="0" on="1"/>
        <pt x="60" y="0" on="1"/>
        <pt x="60" y="643" on="1"/>
        <pt x="152" y="643" on="1"/>
        <pt x="152" y="391" on="1"/>
        <pt x="171" y="415" on="0"/>
        <pt x="238" y="456" on="0"/>
        <pt x="297" y="456" on="1"/>
        <pt x="353" y="456" on="0"/>
        <pt x="428" y="411" on="0"/>
        <pt x="472" y="344" on="0"/>
        <pt x="490" y="266" on="0"/>
      </contour>
      <contour>
        <pt x="392" y="227" on="1"/>
        <pt x="392" y="257" on="0"/>
        <pt x="380" y="318" on="0"/>
        <pt x="352" y="367" on="0"/>
        <pt x="306" y="397" on="0"/>
        <pt x="272" y="397" on="1"/>
        <pt x="242" y="397" on="0"/>
        <pt x="197" y="370" on="0"/>
        <pt x="167" y="324" on="0"/>
        <pt x="153" y="263" on="0"/>
        <pt x="153" y="228" on="1"/>
        <pt x="153" y="190" on="0"/>
        <pt x="167" y="127" on="0"/>
        <pt x="196" y="80" on="0"/>
        <pt x="241" y="54" on="0"/>
        <pt x="272" y="54" on="1"/>
        <pt x="299" y="54" on="0"/>
        <pt x="343" y="80" on="0"/>
        <pt x="375" y="126" on="0"/>
        <pt x="392" y="189" on="0"/>
      </contour>
    </TTGlyph>
    <TTGlyph name="backslash" xMin="55" yMin="-233" xMax="460" yMax="819">
      <contour>
        <pt x="406" y="-233" on="1"/>
        <pt x="55" y="766" on="1"/>
        <pt x="110" y="819" on="1"/>
        <pt x="460" y="-178" on="1"/>
      </contour>
    </TTGlyph>
    <TTGlyph name="bar" xMin="127" yMin="-230" xMax="194" yMax="709">
      <contour>
        <pt x="127" y="-230" on="1"/>
        <pt x="127" y="709" on="1"/>
        <pt x="194" y="709" on="1"/>
        <pt x="194" y="-230" on="1"/>
      </contour>
    </TTGlyph>
    <TTGlyph name="braceleft" xMin="70" yMin="-428" xMax="363" yMax="878">
      <contour>
        <pt x="363" y="-428" on="1"/>
        <pt x="297" y="-428" on="0"/>
        <pt x="222" y="-353" on="0"/>
        <pt x="184" y="-223" on="0"/>
        <pt x="175" y="-47" on="0"/>
        <pt x="175" y="54" on="1"/>
        <pt x="175" y="88" on="0"/>
        <pt x="142" y="136" on="0"/>
        <pt x="103" y="173" on="0"/>
        <pt x="70" y="205" on="0"/>
        <pt x="70" y="225" on="1"/>
        <pt x="70" y="244" on="0"/>
        <pt x="103" y="277" on="0"/>
        <pt x="142" y="315" on="0"/>
        <pt x="175" y="362" on="0"/>
        <pt x="175" y="397" on="1"/>
        <pt x="175" y="497" on="0"/>
        <pt x="184" y="673" on="0"/>
        <pt x="222" y="803" on="0"/>
        <pt x="297" y="878" on="0"/>
        <pt x="363" y="878" on="1"/>
        <pt x="363" y="808" on="1"/>
        <pt x="325" y="808" on="0"/>
        <pt x="280" y="752" on="0"/>
        <pt x="255" y="644" on="0"/>
        <pt x="247" y="485" on="0"/>
        <pt x="247" y="382" on="1"/>
        <pt x="247" y="341" on="0"/>
        <pt x="216" y="286" on="0"/>
        <pt x="180" y="250" on="0"/>
        <pt x="149" y="230" on="0"/>
        <pt x="149" y="225" on="1"/>
        <pt x="149" y="220" on="0"/>
        <pt x="180" y="200" on="0"/>
        <pt x="216" y="165" on="0"/>
        <pt x="247" y="109" on="0"/>
        <pt x="247" y="68" on="1"/>
        <pt x="247" y="-34" on="0"/>
        <pt x="255" y="-193" on="0"/>
        <pt x="280" y="-302" on="0"/>
        <pt x="325" y="-358" on="0"/>
        <pt x="363" y="-358" on="1"/>
        <pt x="363" y="-428" on="1"/>
      </contour>
    </TTGlyph>
    <TTGlyph name="braceright" xMin="55" yMin="-428" xMax="347" yMax="878">
      <contour>
        <pt x="347" y="225" on="1"/>
        <pt x="347" y="205" on="0"/>
        <pt x="314" y="173" on="0"/>
        <pt x="275" y="136" on="0"/>
        <pt x="243" y="88" on="0"/>
        <pt x="243" y="54" on="1"/>
        <pt x="243" y="-47" on="0"/>
        <pt x="234" y="-223" on="0"/>
        <pt x="196" y="-353" on="0"/>
        <pt x="121" y="-428" on="0"/>
        <pt x="55" y="-428" on="1"/>
        <pt x="55" y="-357" on="1"/>
        <pt x="92" y="-357" on="0"/>
        <pt x="138" y="-301" on="0"/>
        <pt x="163" y="-193" on="0"/>
        <pt x="171" y="-34" on="0"/>
        <pt x="171" y="68" on="1"/>
        <pt x="171" y="109" on="0"/>
        <pt x="202" y="164" on="0"/>
        <pt x="238" y="200" on="0"/>
        <pt x="269" y="220" on="0"/>
        <pt x="269" y="225" on="1"/>
        <pt x="269" y="230" on="0"/>
        <pt x="238" y="250" on="0"/>
        <pt x="202" y="285" on="0"/>
        <pt x="171" y="341" on="0"/>
        <pt x="171" y="382" on="1"/>
        <pt x="171" y="485" on="0"/>
        <pt x="163" y="644" on="0"/>
        <pt x="138" y="753" on="0"/>
        <pt x="92" y="809" on="0"/>
        <pt x="55" y="809" on="1"/>
        <pt x="55" y="878" on="1"/>
        <pt x="121" y="878" on="0"/>
        <pt x="196" y="803" on="0"/>
        <pt x="234" y="673" on="0"/>
        <pt x="243" y="498" on="0"/>
        <pt x="243" y="397" on="1"/>
        <pt x="243" y="362" on="0"/>
        <pt x="275" y="315" on="0"/>
        <pt x="314" y="278" on="0"/>
        <pt x="347" y="245" on="0"/>
      </contour>
    </TTGlyph>
    <TTGlyph name="bracketleft" xMin="87" yMin="-177" xMax="264" yMax="643">
      <contour>
        <pt x="87" y="-177" on="1"/>
        <pt x="87" y="643" on="1"/>
        <pt x="264" y="643" on="1"/>
        <pt x="264" y="585" on="1"/>
        <pt x="174" y="585" on="1"/>
        <pt x="174" y="-120" on="1"/>
        <pt x="264" y="-120" on="1"/>
        <pt x="264" y="-177" on="1"/>
      </contour>
    </TTGlyph>
    <TTGlyph name="bracketright" xMin="87" yMin="-177" xMax="264" yMax="643">
      <contour>
        <pt x="87" y="-177" on="1"/>
        <pt x="87" y="-120" on="1"/>
        <pt x="178" y="-120" on="1"/>
        <pt x="178" y="585" on="1"/>
        <pt x="87" y="585" on="1"/>
        <pt x="87" y="643" on="1"/>
        <pt x="264" y="643" on="1"/>
        <pt x="264" y="-177" on="1"/>
      </contour>
    </TTGlyph>
    <TTGlyph name="c" xMin="43" yMin="-12" xMax="422" yMax="456">
      <contour>
        <pt x="420" y="154" on="1"/>
        <pt x="420" y="119" on="0"/>
        <pt x="400" y="59" on="0"/>
        <pt x="357" y="14" on="0"/>
        <pt x="289" y="-12" on="0"/>
        <pt x="240" y="-12" on="1"/>
        <pt x="43" y="-12" on="0"/>
        <pt x="43" y="220" on="1"/>
        <pt x="43" y="338" on="0"/>
        <pt x="136" y="456" on="0"/>
        <pt x="234" y="456" on="1"/>
        <pt x="333" y="456" on="0"/>
        <pt x="422" y="372" on="0"/>
        <pt x="417" y="300" on="1"/>
        <pt x="325" y="300" on="1"/>
        <pt x="328" y="325" on="0"/>
        <pt x="314" y="360" on="0"/>
        <pt x="287" y="382" on="0"/>
        <pt x="251" y="391" on="0"/>
        <pt x="232" y="391" on="1"/>
        <pt x="209" y="391" on="0"/>
        <pt x="173" y="374" on="0"/>
        <pt x="148" y="334" on="0"/>
        <pt x="134" y="269" on="0"/>
        <pt x="134" y="221" on="1"/>
        <pt x="134" y="129" on="0"/>
        <pt x="185" y="53" on="0"/>
        <pt x="238" y="53" on="1"/>
        <pt x="264" y="53" on="0"/>
        <pt x="299" y="72" on="0"/>
        <pt x="319" y="102" on="0"/>
        <pt x="327" y="138" on="0"/>
        <pt x="327" y="154" on="1"/>
        <pt x="420" y="154" on="1"/>
      </contour>
    </TTGlyph>
    <TTGlyph name="circledash" xMin="54" yMin="-33" xMax="586" yMax="496">
      <component glyphName="u1700" x="0" y="0" flags="0x0"/>
    </TTGlyph>
    <TTGlyph name="colon" xMin="40" yMin="-18" xMax="181" yMax="461">
      <contour>
        <pt x="181" y="392" on="1"/>
        <pt x="181" y="364" on="0"/>
        <pt x="138" y="324" on="0"/>
        <pt x="111" y="324" on="1"/>
        <pt x="83" y="324" on="0"/>
        <pt x="40" y="364" on="0"/>
        <pt x="40" y="392" on="1"/>
        <pt x="40" y="421" on="0"/>
        <pt x="83" y="461" on="0"/>
        <pt x="111" y="461" on="1"/>
        <pt x="138" y="461" on="0"/>
        <pt x="181" y="421" on="0"/>
      </contour>
      <contour>
        <pt x="181" y="51" on="1"/>
        <pt x="181" y="23" on="0"/>
        <pt x="138" y="-18" on="0"/>
        <pt x="111" y="-18" on="1"/>
        <pt x="83" y="-18" on="0"/>
        <pt x="40" y="23" on="0"/>
        <pt x="40" y="51" on="1"/>
        <pt x="40" y="80" on="0"/>
        <pt x="83" y="119" on="0"/>
        <pt x="111" y="119" on="1"/>
        <pt x="138" y="119" on="0"/>
        <pt x="181" y="80" on="0"/>
      </contour>
    </TTGlyph>
    <TTGlyph name="comma" xMin="40" yMin="-149" xMax="200" yMax="142">
      <contour>
        <pt x="200" y="58" on="1"/>
        <pt x="200" y="22" on="0"/>
        <pt x="181" y="-45" on="0"/>
        <pt x="150" y="-100" on="0"/>
        <pt x="111" y="-140" on="0"/>
        <pt x="92" y="-149" on="1"/>
        <pt x="78" y="-137" on="1"/>
        <pt x="105" y="-117" on="0"/>
        <pt x="141" y="-47" on="0"/>
        <pt x="141" y="-4" on="1"/>
        <pt x="141" y="7" on="0"/>
        <pt x="140" y="17" on="0"/>
        <pt x="138" y="22" on="1"/>
        <pt x="134" y="19" on="0"/>
        <pt x="117" y="10" on="0"/>
        <pt x="96" y="3" on="0"/>
        <pt x="74" y="-3" on="0"/>
        <pt x="67" y="-3" on="1"/>
        <pt x="53" y="-3" on="0"/>
        <pt x="40" y="37" on="0"/>
        <pt x="40" y="58" on="1"/>
        <pt x="40" y="76" on="0"/>
        <pt x="53" y="107" on="0"/>
        <pt x="76" y="129" on="0"/>
        <pt x="105" y="142" on="0"/>
        <pt x="120" y="142" on="1"/>
        <pt x="153" y="142" on="0"/>
        <pt x="200" y="95" on="0"/>
      </contour>
    </TTGlyph>
    <TTGlyph name="d" xMin="43" yMin="-12" xMax="471" yMax="643">
      <contour>
        <pt x="378" y="0" on="1"/>
        <pt x="378" y="54" on="1"/>
        <pt x="356" y="28" on="0"/>
        <pt x="290" y="-12" on="0"/>
        <pt x="250" y="-12" on="1"/>
        <pt x="207" y="-12" on="0"/>
        <pt x="131" y="23" on="0"/>
        <pt x="75" y="84" on="0"/>
        <pt x="43" y="167" on="0"/>
        <pt x="43" y="215" on="1"/>
        <pt x="43" y="261" on="0"/>
        <pt x="65" y="347" on="0"/>
        <pt x="111" y="415" on="0"/>
        <pt x="182" y="456" on="0"/>
        <pt x="232" y="456" on="1"/>
        <pt x="278" y="456" on="0"/>
        <pt x="352" y="426" on="0"/>
        <pt x="378" y="393" on="1"/>
        <pt x="378" y="643" on="1"/>
        <pt x="471" y="643" on="1"/>
        <pt x="471" y="0" on="1"/>
      </contour>
      <contour>
        <pt x="377" y="219" on="1"/>
        <pt x="377" y="257" on="0"/>
        <pt x="359" y="322" on="0"/>
        <pt x="327" y="369" on="0"/>
        <pt x="280" y="396" on="0"/>
        <pt x="252" y="396" on="1"/>
        <pt x="220" y="396" on="0"/>
        <pt x="176" y="363" on="0"/>
        <pt x="149" y="312" on="0"/>
        <pt x="137" y="250" on="0"/>
        <pt x="137" y="222" on="1"/>
        <pt x="137" y="190" on="0"/>
        <pt x="153" y="131" on="0"/>
        <pt x="184" y="85" on="0"/>
        <pt x="229" y="57" on="0"/>
        <pt x="258" y="57" on="1"/>
        <pt x="290" y="57" on="0"/>
        <pt x="335" y="88" on="0"/>
        <pt x="364" y="136" on="0"/>
        <pt x="377" y="193" on="0"/>
      </contour>
    </TTGlyph>
    <TTGlyph name="dollar" xMin="29" yMin="-93" xMax="473" yMax="708">
      <contour>
        <pt x="473" y="177" on="1"/>
        <pt x="473" y="129" on="0"/>
        <pt x="439" y="60" on="0"/>
        <pt x="384" y="15" on="0"/>
        <pt x="312" y="-9" on="0"/>
        <pt x="275" y="-12" on="1"/>
        <pt x="275" y="-93" on="1"/>
        <pt x="229" y="-93" on="1"/>
        <pt x="229" y="-13" on="1"/>
        <pt x="130" y="-10" on="0"/>
        <pt x="29" y="100" on="0"/>
        <pt x="29" y="191" on="1"/>
        <pt x="129" y="191" on="1"/>
        <pt x="129" y="142" on="0"/>
        <pt x="173" y="75" on="0"/>
        <pt x="229" y="73" on="1"/>
        <pt x="229" y="283" on="1"/>
        <pt x="190" y="294" on="0"/>
        <pt x="122" y="317" on="0"/>
        <pt x="70" y="354" on="0"/>
        <pt x="40" y="414" on="0"/>
        <pt x="40" y="462" on="1"/>
        <pt x="40" y="501" on="0"/>
        <pt x="68" y="567" on="0"/>
        <pt x="118" y="615" on="0"/>
        <pt x="187" y="642" on="0"/>
        <pt x="229" y="642" on="1"/>
        <pt x="229" y="708" on="1"/>
        <pt x="275" y="708" on="1"/>
        <pt x="275" y="643" on="1"/>
        <pt x="318" y="643" on="0"/>
        <pt x="384" y="615" on="0"/>
        <pt x="428" y="567" on="0"/>
        <pt x="450" y="502" on="0"/>
        <pt x="450" y="465" on="1"/>
        <pt x="350" y="465" on="1"/>
        <pt x="350" y="514" on="0"/>
        <pt x="317" y="555" on="0"/>
        <pt x="275" y="557" on="1"/>
        <pt x="275" y="367" on="1"/>
        <pt x="304" y="359" on="0"/>
        <pt x="373" y="341" on="0"/>
        <pt x="433" y="302" on="0"/>
        <pt x="473" y="234" on="0"/>
      </contour>
      <contour>
        <pt x="229" y="556" on="1"/>
        <pt x="199" y="554" on="0"/>
        <pt x="164" y="539" on="0"/>
        <pt x="145" y="515" on="0"/>
        <pt x="139" y="483" on="0"/>
        <pt x="139" y="465" on="1"/>
        <pt x="139" y="442" on="0"/>
        <pt x="151" y="415" on="0"/>
        <pt x="174" y="398" on="0"/>
        <pt x="207" y="387" on="0"/>
        <pt x="229" y="380" on="1"/>
      </contour>
      <contour>
        <pt x="374" y="169" on="1"/>
        <pt x="374" y="197" on="0"/>
        <pt x="360" y="233" on="0"/>
        <pt x="334" y="255" on="0"/>
        <pt x="297" y="269" on="0"/>
        <pt x="275" y="275" on="1"/>
        <pt x="275" y="74" on="1"/>
        <pt x="322" y="77" on="0"/>
        <pt x="374" y="118" on="0"/>
      </contour>
    </TTGlyph>
    <TTGlyph name="e" xMin="43" yMin="-12" xMax="452" yMax="456">
      <contour>
        <pt x="447" y="141" on="1"/>
        <pt x="442" y="110" on="0"/>
        <pt x="415" y="55" on="0"/>
        <pt x="366" y="13" on="0"/>
        <pt x="295" y="-12" on="0"/>
        <pt x="247" y="-12" on="1"/>
        <pt x="191" y="-12" on="0"/>
        <pt x="113" y="30" on="0"/>
        <pt x="65" y="96" on="0"/>
        <pt x="43" y="179" on="0"/>
        <pt x="43" y="221" on="1"/>
        <pt x="43" y="266" on="0"/>
        <pt x="66" y="351" on="0"/>
        <pt x="116" y="416" on="0"/>
        <pt x="196" y="456" on="0"/>
        <pt x="253" y="456" on="1"/>
        <pt x="314" y="456" on="0"/>
        <pt x="392" y="414" on="0"/>
        <pt x="436" y="351" on="0"/>
        <pt x="452" y="277" on="0"/>
        <pt x="452" y="245" on="1"/>
        <pt x="452" y="236" on="0"/>
        <pt x="451" y="215" on="0"/>
        <pt x="449" y="206" on="1"/>
        <pt x="141" y="206" on="1"/>
        <pt x="141" y="173" on="0"/>
        <pt x="152" y="116" on="0"/>
        <pt x="177" y="75" on="0"/>
        <pt x="218" y="52" on="0"/>
        <pt x="249" y="52" on="1"/>
        <pt x="275" y="52" on="0"/>
        <pt x="311" y="68" on="0"/>
        <pt x="334" y="93" on="0"/>
        <pt x="347" y="125" on="0"/>
        <pt x="349" y="141" on="1"/>
      </contour>
      <contour>
        <pt x="351" y="270" on="1"/>
        <pt x="353" y="295" on="0"/>
        <pt x="344" y="340" on="0"/>
        <pt x="320" y="374" on="0"/>
        <pt x="279" y="394" on="0"/>
        <pt x="248" y="394" on="1"/>
        <pt x="219" y="394" on="0"/>
        <pt x="180" y="372" on="0"/>
        <pt x="155" y="336" on="0"/>
        <pt x="143" y="292" on="0"/>
        <pt x="141" y="270" on="1"/>
      </contour>
    </TTGlyph>
    <TTGlyph name="eight" xMin="36" yMin="-12" xMax="467" yMax="655">
      <contour>
        <pt x="467" y="165" on="1"/>
        <pt x="467" y="115" on="0"/>
        <pt x="428" y="48" on="0"/>
        <pt x="365" y="6" on="0"/>
        <pt x="288" y="-12" on="0"/>
        <pt x="251" y="-12" on="1"/>
        <pt x="213" y="-12" on="0"/>
        <pt x="136" y="7" on="0"/>
        <pt x="75" y="49" on="0"/>
        <pt x="36" y="116" on="0"/>
        <pt x="36" y="165" on="1"/>
        <pt x="36" y="203" on="0"/>
        <pt x="58" y="261" on="0"/>
        <pt x="93" y="304" on="0"/>
        <pt x="136" y="333" on="0"/>
        <pt x="158" y="342" on="1"/>
        <pt x="138" y="350" on="0"/>
        <pt x="100" y="376" on="0"/>
        <pt x="70" y="413" on="0"/>
        <pt x="52" y="463" on="0"/>
        <pt x="52" y="495" on="1"/>
        <pt x="52" y="538" on="0"/>
        <pt x="88" y="598" on="0"/>
        <pt x="145" y="637" on="0"/>
        <pt x="216" y="655" on="0"/>
        <pt x="251" y="655" on="1"/>
        <pt x="287" y="655" on="0"/>
        <pt x="358" y="638" on="0"/>
        <pt x="415" y="599" on="0"/>
        <pt x="451" y="538" on="0"/>
        <pt x="451" y="494" on="1"/>
        <pt x="451" y="464" on="0"/>
        <pt x="431" y="415" on="0"/>
        <pt x="400" y="377" on="0"/>
        <pt x="360" y="350" on="0"/>
        <pt x="340" y="342" on="1"/>
        <pt x="360" y="335" on="0"/>
        <pt x="405" y="307" on="0"/>
        <pt x="442" y="263" on="0"/>
        <pt x="467" y="204" on="0"/>
      </contour>
      <contour>
        <pt x="352" y="478" on="1"/>
        <pt x="352" y="525" on="0"/>
        <pt x="299" y="577" on="0"/>
        <pt x="251" y="577" on="1"/>
        <pt x="204" y="577" on="0"/>
        <pt x="151" y="525" on="0"/>
        <pt x="151" y="478" on="1"/>
        <pt x="151" y="433" on="0"/>
        <pt x="209" y="380" on="0"/>
        <pt x="251" y="380" on="1"/>
        <pt x="293" y="380" on="0"/>
        <pt x="352" y="433" on="0"/>
      </contour>
      <contour>
        <pt x="366" y="185" on="1"/>
        <pt x="366" y="236" on="0"/>
        <pt x="307" y="301" on="0"/>
        <pt x="251" y="301" on="1"/>
        <pt x="197" y="301" on="0"/>
        <pt x="136" y="235" on="0"/>
        <pt x="136" y="185" on="1"/>
        <pt x="136" y="135" on="0"/>
        <pt x="192" y="66" on="0"/>
        <pt x="251" y="66" on="1"/>
        <pt x="281" y="66" on="0"/>
        <pt x="325" y="85" on="0"/>
        <pt x="353" y="117" on="0"/>
        <pt x="366" y="160" on="0"/>
      </contour>
    </TTGlyph>
    <TTGlyph name="emdash" xMin="0" yMin="185" xMax="833" yMax="257">
      <contour>
        <pt x="0" y="185" on="1"/>
        <pt x="0" y="257" on="1"/>
        <pt x="833" y="257" on="1"/>
        <pt x="833" y="185" on="1"/>
      </contour>
    </TTGlyph>
    <TTGlyph name="endash" xMin="0" yMin="185" xMax="470" yMax="257">
      <contour>
        <pt x="0" y="185" on="1"/>
        <pt x="0" y="257" on="1"/>
        <pt x="470" y="257" on="1"/>
        <pt x="470" y="185" on="1"/>
      </contour>
    </TTGlyph>
    <TTGlyph name="equal" xMin="45" yMin="95" xMax="535" yMax="350">
      <contour>
        <pt x="535" y="95" on="1"/>
        <pt x="45" y="95" on="1"/>
        <pt x="45" y="166" on="1"/>
        <pt x="535" y="166" on="1"/>
      </contour>
      <contour>
        <pt x="535" y="278" on="1"/>
        <pt x="45" y="278" on="1"/>
        <pt x="45" y="350" on="1"/>
        <pt x="535" y="350" on="1"/>
      </contour>
    </TTGlyph>
    <TTGlyph name="exclam" xMin="56" yMin="-18" xMax="196" yMax="813">
      <contour>
        <pt x="196" y="50" on="1"/>
        <pt x="196" y="22" on="0"/>
        <pt x="154" y="-18" on="0"/>
        <pt x="126" y="-18" on="1"/>
        <pt x="98" y="-18" on="0"/>
        <pt x="56" y="22" on="0"/>
        <pt x="56" y="50" on="1"/>
        <pt x="56" y="79" on="0"/>
        <pt x="98" y="118" on="0"/>
        <pt x="126" y="118" on="1"/>
        <pt x="154" y="118" on="0"/>
        <pt x="196" y="79" on="0"/>
      </contour>
      <contour>
        <pt x="126" y="813" on="1"/>
        <pt x="144" y="813" on="0"/>
        <pt x="167" y="784" on="0"/>
        <pt x="169" y="755" on="1"/>
        <pt x="170" y="741" on="0"/>
        <pt x="171" y="707" on="0"/>
        <pt x="171" y="688" on="1"/>
        <pt x="171" y="571" on="0"/>
        <pt x="159" y="357" on="0"/>
        <pt x="148" y="268" on="1"/>
        <pt x="145" y="243" on="0"/>
        <pt x="141" y="212" on="0"/>
        <pt x="136" y="196" on="0"/>
        <pt x="130" y="190" on="0"/>
        <pt x="126" y="190" on="1"/>
        <pt x="121" y="190" on="0"/>
        <pt x="116" y="196" on="0"/>
        <pt x="111" y="212" on="0"/>
        <pt x="107" y="243" on="0"/>
        <pt x="104" y="268" on="1"/>
        <pt x="93" y="357" on="0"/>
        <pt x="81" y="571" on="0"/>
        <pt x="81" y="688" on="1"/>
        <pt x="81" y="707" on="0"/>
        <pt x="82" y="741" on="0"/>
        <pt x="83" y="755" on="1"/>
        <pt x="85" y="784" on="0"/>
        <pt x="108" y="813" on="0"/>
      </contour>
    </TTGlyph>
    <TTGlyph name="f" xMin="9" yMin="0" xMax="301" yMax="652">
      <contour>
        <pt x="301" y="572" on="1"/>
        <pt x="290" y="577" on="0"/>
        <pt x="266" y="584" on="0"/>
        <pt x="252" y="584" on="1"/>
        <pt x="217" y="584" on="0"/>
        <pt x="189" y="550" on="0"/>
        <pt x="189" y="510" on="1"/>
        <pt x="189" y="445" on="1"/>
        <pt x="291" y="445" on="1"/>
        <pt x="291" y="381" on="1"/>
        <pt x="189" y="381" on="1"/>
        <pt x="189" y="0" on="1"/>
        <pt x="94" y="0" on="1"/>
        <pt x="94" y="381" on="1"/>
        <pt x="9" y="381" on="1"/>
        <pt x="9" y="445" on="1"/>
        <pt x="94" y="445" on="1"/>
        <pt x="94" y="513" on="1"/>
        <pt x="94" y="553" on="0"/>
        <pt x="112" y="607" on="0"/>
        <pt x="146" y="639" on="0"/>
        <pt x="196" y="652" on="0"/>
        <pt x="229" y="652" on="1"/>
        <pt x="265" y="652" on="0"/>
        <pt x="301" y="642" on="1"/>
        <pt x="301" y="572" on="1"/>
      </contour>
    </TTGlyph>
    <TTGlyph name="five" xMin="42" yMin="-12" xMax="459" yMax="643">
      <contour>
        <pt x="459" y="215" on="1"/>
        <pt x="459" y="172" on="0"/>
        <pt x="427" y="91" on="0"/>
        <pt x="372" y="27" on="0"/>
        <pt x="296" y="-12" on="0"/>
        <pt x="252" y="-12" on="1"/>
        <pt x="205" y="-12" on="0"/>
        <pt x="128" y="11" on="0"/>
        <pt x="74" y="54" on="0"/>
        <pt x="43" y="117" on="0"/>
        <pt x="42" y="158" on="1"/>
        <pt x="145" y="158" on="1"/>
        <pt x="145" y="112" on="0"/>
        <pt x="200" y="67" on="0"/>
        <pt x="245" y="67" on="1"/>
        <pt x="269" y="67" on="0"/>
        <pt x="310" y="88" on="0"/>
        <pt x="340" y="125" on="0"/>
        <pt x="357" y="179" on="0"/>
        <pt x="357" y="212" on="1"/>
        <pt x="357" y="276" on="0"/>
        <pt x="311" y="350" on="0"/>
        <pt x="257" y="350" on="1"/>
        <pt x="214" y="350" on="0"/>
        <pt x="161" y="303" on="0"/>
        <pt x="143" y="265" on="1"/>
        <pt x="52" y="265" on="1"/>
        <pt x="66" y="643" on="1"/>
        <pt x="420" y="643" on="1"/>
        <pt x="420" y="559" on="1"/>
        <pt x="163" y="559" on="1"/>
        <pt x="153" y="369" on="1"/>
        <pt x="176" y="396" on="0"/>
        <pt x="234" y="425" on="0"/>
        <pt x="283" y="425" on="1"/>
        <pt x="325" y="425" on="0"/>
        <pt x="390" y="390" on="0"/>
        <pt x="435" y="332" on="0"/>
        <pt x="459" y="256" on="0"/>
      </contour>
    </TTGlyph>
    <TTGlyph name="four" xMin="23" yMin="0" xMax="478" yMax="643">
      <contour>
        <pt x="398" y="151" on="1"/>
        <pt x="398" y="0" on="1"/>
        <pt x="303" y="0" on="1"/>
        <pt x="303" y="151" on="1"/>
        <pt x="23" y="151" on="1"/>
        <pt x="23" y="251" on="1"/>
        <pt x="281" y="643" on="1"/>
        <pt x="398" y="643" on="1"/>
        <pt x="398" y="235" on="1"/>
        <pt x="478" y="235" on="1"/>
        <pt x="478" y="151" on="1"/>
      </contour>
      <contour>
        <pt x="303" y="538" on="1"/>
        <pt x="108" y="235" on="1"/>
        <pt x="303" y="235" on="1"/>
      </contour>
    </TTGlyph>
    <TTGlyph name="g" xMin="43" yMin="-177" xMax="471" yMax="456">
      <contour>
        <pt x="471" y="18" on="1"/>
        <pt x="471" y="-26" on="0"/>
        <pt x="443" y="-97" on="0"/>
        <pt x="388" y="-149" on="0"/>
        <pt x="306" y="-177" on="0"/>
        <pt x="253" y="-177" on="1"/>
        <pt x="196" y="-177" on="0"/>
        <pt x="123" y="-148" on="0"/>
        <pt x="82" y="-106" on="0"/>
        <pt x="66" y="-58" on="0"/>
        <pt x="66" y="-40" on="1"/>
        <pt x="161" y="-40" on="1"/>
        <pt x="161" y="-59" on="0"/>
        <pt x="178" y="-87" on="0"/>
        <pt x="206" y="-106" on="0"/>
        <pt x="243" y="-115" on="0"/>
        <pt x="263" y="-115" on="1"/>
        <pt x="294" y="-115" on="0"/>
        <pt x="337" y="-96" on="0"/>
        <pt x="364" y="-51" on="0"/>
        <pt x="377" y="24" on="0"/>
        <pt x="377" y="80" on="1"/>
        <pt x="355" y="46" on="0"/>
        <pt x="281" y="8" on="0"/>
        <pt x="243" y="8" on="1"/>
        <pt x="149" y="8" on="0"/>
        <pt x="43" y="121" on="0"/>
        <pt x="43" y="230" on="1"/>
        <pt x="43" y="281" on="0"/>
        <pt x="71" y="364" on="0"/>
        <pt x="121" y="423" on="0"/>
        <pt x="191" y="456" on="0"/>
        <pt x="234" y="456" on="1"/>
        <pt x="288" y="456" on="0"/>
        <pt x="355" y="430" on="0"/>
        <pt x="377" y="399" on="1"/>
        <pt x="377" y="445" on="1"/>
        <pt x="471" y="445" on="1"/>
      </contour>
      <contour>
        <pt x="377" y="230" on="1"/>
        <pt x="377" y="305" on="0"/>
        <pt x="320" y="394" on="0"/>
        <pt x="255" y="394" on="1"/>
        <pt x="221" y="394" on="0"/>
        <pt x="176" y="366" on="0"/>
        <pt x="149" y="320" on="0"/>
        <pt x="138" y="261" on="0"/>
        <pt x="138" y="230" on="1"/>
        <pt x="138" y="196" on="0"/>
        <pt x="152" y="138" on="0"/>
        <pt x="182" y="96" on="0"/>
        <pt x="226" y="73" on="0"/>
        <pt x="256" y="73" on="1"/>
        <pt x="289" y="73" on="0"/>
        <pt x="335" y="100" on="0"/>
        <pt x="364" y="145" on="0"/>
        <pt x="377" y="201" on="0"/>
      </contour>
    </TTGlyph>
    <TTGlyph name="grave" xMin="-23" yMin="534" xMax="162" yMax="689">
      <contour>
        <pt x="105" y="534" on="1"/>
        <pt x="-23" y="689" on="1"/>
        <pt x="76" y="689" on="1"/>
        <pt x="162" y="534" on="1"/>
      </contour>
    </TTGlyph>
    <TTGlyph name="greater" xMin="178" yMin="34" xMax="712" yMax="499">
      <contour>
        <pt x="712" y="238" on="1"/>
        <pt x="178" y="34" on="1"/>
        <pt x="178" y="100" on="1"/>
        <pt x="627" y="267" on="1"/>
        <pt x="178" y="434" on="1"/>
        <pt x="178" y="499" on="1"/>
        <pt x="712" y="295" on="1"/>
      </contour>
    </TTGlyph>
    <TTGlyph name="h" xMin="60" yMin="0" xMax="457" yMax="643">
      <contour>
        <pt x="362" y="0" on="1"/>
        <pt x="362" y="276" on="1"/>
        <pt x="362" y="338" on="0"/>
        <pt x="312" y="394" on="0"/>
        <pt x="274" y="394" on="1"/>
        <pt x="245" y="394" on="0"/>
        <pt x="200" y="373" on="0"/>
        <pt x="170" y="342" on="0"/>
        <pt x="154" y="304" on="0"/>
        <pt x="154" y="288" on="1"/>
        <pt x="154" y="0" on="1"/>
        <pt x="60" y="0" on="1"/>
        <pt x="60" y="643" on="1"/>
        <pt x="154" y="643" on="1"/>
        <pt x="154" y="392" on="1"/>
        <pt x="176" y="422" on="0"/>
        <pt x="244" y="456" on="0"/>
        <pt x="296" y="456" on="1"/>
        <pt x="381" y="456" on="0"/>
        <pt x="457" y="370" on="0"/>
        <pt x="457" y="285" on="1"/>
        <pt x="457" y="0" on="1"/>
      </contour>
    </TTGlyph>
    <TTGlyph name="hyphen" xMin="55" yMin="185" xMax="443" yMax="257">
      <contour>
        <pt x="443" y="185" on="1"/>
        <pt x="55" y="185" on="1"/>
        <pt x="55" y="257" on="1"/>
        <pt x="443" y="257" on="1"/>
      </contour>
    </TTGlyph>
    <TTGlyph name="i" xMin="55" yMin="0" xMax="159" yMax="643">
      <contour>
        <pt x="55" y="549" on="1"/>
        <pt x="55" y="643" on="1"/>
        <pt x="159" y="643" on="1"/>
        <pt x="159" y="549" on="1"/>
      </contour>
      <contour>
        <pt x="60" y="0" on="1"/>
        <pt x="60" y="445" on="1"/>
        <pt x="154" y="445" on="1"/>
        <pt x="154" y="0" on="1"/>
      </contour>
    </TTGlyph>
    <TTGlyph name="j" xMin="-24" yMin="-188" xMax="218" yMax="643">
      <contour>
        <pt x="161" y="549" on="1"/>
        <pt x="116" y="604" on="1"/>
        <pt x="172" y="643" on="1"/>
        <pt x="218" y="588" on="1"/>
      </contour>
      <contour>
        <pt x="214" y="-72" on="1"/>
        <pt x="214" y="-95" on="0"/>
        <pt x="200" y="-137" on="0"/>
        <pt x="172" y="-169" on="0"/>
        <pt x="128" y="-188" on="0"/>
        <pt x="97" y="-188" on="1"/>
        <pt x="68" y="-188" on="0"/>
        <pt x="0" y="-165" on="0"/>
        <pt x="-24" y="-142" on="1"/>
        <pt x="28" y="-83" on="1"/>
        <pt x="50" y="-108" on="0"/>
        <pt x="80" y="-108" on="1"/>
        <pt x="120" y="-108" on="0"/>
        <pt x="120" y="-45" on="1"/>
        <pt x="120" y="445" on="1"/>
        <pt x="214" y="445" on="1"/>
      </contour>
    </TTGlyph>
    <TTGlyph name="k" xMin="60" yMin="0" xMax="443" yMax="643">
      <contour>
        <pt x="323" y="0" on="1"/>
        <pt x="154" y="235" on="1"/>
        <pt x="154" y="0" on="1"/>
        <pt x="60" y="0" on="1"/>
        <pt x="60" y="643" on="1"/>
        <pt x="154" y="643" on="1"/>
        <pt x="154" y="262" on="1"/>
        <pt x="314" y="445" on="1"/>
        <pt x="429" y="445" on="1"/>
        <pt x="256" y="252" on="1"/>
        <pt x="443" y="0" on="1"/>
      </contour>
    </TTGlyph>
    <TTGlyph name="l" xMin="60" yMin="0" xMax="154" yMax="643">
      <contour>
        <pt x="60" y="0" on="1"/>
        <pt x="60" y="643" on="1"/>
        <pt x="154" y="643" on="1"/>
        <pt x="154" y="0" on="1"/>
      </contour>
    </TTGlyph>
    <TTGlyph name="less" xMin="178" yMin="34" xMax="712" yMax="499">
      <contour>
        <pt x="712" y="34" on="1"/>
        <pt x="178" y="238" on="1"/>
        <pt x="178" y="295" on="1"/>
        <pt x="712" y="499" on="1"/>
        <pt x="712" y="434" on="1"/>
        <pt x="263" y="267" on="1"/>
        <pt x="712" y="100" on="1"/>
      </contour>
    </TTGlyph>
    <TTGlyph name="m" xMin="60" yMin="0" xMax="742" yMax="456">
      <contour>
        <pt x="648" y="0" on="1"/>
        <pt x="648" y="287" on="1"/>
        <pt x="648" y="334" on="0"/>
        <pt x="602" y="394" on="0"/>
        <pt x="556" y="394" on="1"/>
        <pt x="533" y="394" on="0"/>
        <pt x="494" y="373" on="0"/>
        <pt x="465" y="340" on="0"/>
        <pt x="449" y="299" on="0"/>
        <pt x="449" y="280" on="1"/>
        <pt x="449" y="0" on="1"/>
        <pt x="355" y="0" on="1"/>
        <pt x="355" y="287" on="1"/>
        <pt x="355" y="308" on="0"/>
        <pt x="343" y="347" on="0"/>
        <pt x="319" y="376" on="0"/>
        <pt x="286" y="394" on="0"/>
        <pt x="265" y="394" on="1"/>
        <pt x="240" y="394" on="0"/>
        <pt x="199" y="372" on="0"/>
        <pt x="170" y="337" on="0"/>
        <pt x="154" y="296" on="0"/>
        <pt x="154" y="278" on="1"/>
        <pt x="154" y="0" on="1"/>
        <pt x="60" y="0" on="1"/>
        <pt x="60" y="445" on="1"/>
        <pt x="154" y="445" on="1"/>
        <pt x="154" y="384" on="1"/>
        <pt x="180" y="419" on="0"/>
        <pt x="244" y="456" on="0"/>
        <pt x="289" y="456" on="1"/>
        <pt x="348" y="456" on="0"/>
        <pt x="412" y="419" on="0"/>
        <pt x="435" y="377" on="1"/>
        <pt x="467" y="422" on="0"/>
        <pt x="536" y="456" on="0"/>
        <pt x="581" y="456" on="1"/>
        <pt x="630" y="456" on="0"/>
        <pt x="693" y="426" on="0"/>
        <pt x="729" y="379" on="0"/>
        <pt x="742" y="319" on="0"/>
        <pt x="742" y="289" on="1"/>
        <pt x="742" y="0" on="1"/>
      </contour>
    </TTGlyph>
    <TTGlyph name="multiply" xMin="93" yMin="60" xMax="420" yMax="387">
      <contour>
        <pt x="368" y="60" on="1"/>
        <pt x="257" y="172" on="1"/>
        <pt x="145" y="60" on="1"/>
        <pt x="93" y="112" on="1"/>
        <pt x="205" y="224" on="1"/>
        <pt x="94" y="335" on="1"/>
        <pt x="144" y="386" on="1"/>
        <pt x="256" y="274" on="1"/>
        <pt x="368" y="387" on="1"/>
        <pt x="420" y="335" on="1"/>
        <pt x="307" y="223" on="1"/>
        <pt x="418" y="111" on="1"/>
      </contour>
    </TTGlyph>
    <TTGlyph name="n" xMin="56" yMin="0" xMax="453" yMax="456">
      <contour>
        <pt x="359" y="0" on="1"/>
        <pt x="359" y="286" on="1"/>
        <pt x="359" y="336" on="0"/>
        <pt x="303" y="397" on="0"/>
        <pt x="260" y="397" on="1"/>
        <pt x="213" y="397" on="0"/>
        <pt x="150" y="329" on="0"/>
        <pt x="150" y="273" on="1"/>
        <pt x="150" y="0" on="1"/>
        <pt x="56" y="0" on="1"/>
        <pt x="56" y="445" on="1"/>
        <pt x="150" y="445" on="1"/>
        <pt x="150" y="389" on="1"/>
        <pt x="172" y="421" on="0"/>
        <pt x="235" y="456" on="0"/>
        <pt x="289" y="456" on="1"/>
        <pt x="333" y="456" on="0"/>
        <pt x="395" y="433" on="0"/>
        <pt x="435" y="391" on="0"/>
        <pt x="453" y="332" on="0"/>
        <pt x="453" y="296" on="1"/>
        <pt x="453" y="0" on="1"/>
      </contour>
    </TTGlyph>
    <TTGlyph name="nine" xMin="38" yMin="-13" xMax="464" yMax="655">
      <contour>
        <pt x="464" y="341" on="1"/>
        <pt x="464" y="279" on="0"/>
        <pt x="446" y="153" on="0"/>
        <pt x="396" y="51" on="0"/>
        <pt x="309" y="-13" on="0"/>
        <pt x="239" y="-13" on="1"/>
        <pt x="156" y="-13" on="0"/>
        <pt x="61" y="75" on="0"/>
        <pt x="53" y="155" on="1"/>
        <pt x="152" y="155" on="1"/>
        <pt x="154" y="107" on="0"/>
        <pt x="202" y="65" on="0"/>
        <pt x="239" y="65" on="1"/>
        <pt x="280" y="65" on="0"/>
        <pt x="330" y="122" on="0"/>
        <pt x="357" y="202" on="0"/>
        <pt x="365" y="290" on="0"/>
        <pt x="365" y="321" on="1"/>
        <pt x="342" y="282" on="0"/>
        <pt x="273" y="241" on="0"/>
        <pt x="222" y="241" on="1"/>
        <pt x="165" y="241" on="0"/>
        <pt x="93" y="282" on="0"/>
        <pt x="53" y="343" on="0"/>
        <pt x="38" y="413" on="0"/>
        <pt x="38" y="442" on="1"/>
        <pt x="38" y="476" on="0"/>
        <pt x="58" y="551" on="0"/>
        <pt x="106" y="614" on="0"/>
        <pt x="186" y="655" on="0"/>
        <pt x="246" y="655" on="1"/>
        <pt x="318" y="655" on="0"/>
        <pt x="404" y="609" on="0"/>
        <pt x="450" y="526" on="0"/>
        <pt x="464" y="410" on="0"/>
      </contour>
      <contour>
        <pt x="350" y="446" on="1"/>
        <pt x="350" y="510" on="0"/>
        <pt x="302" y="577" on="0"/>
        <pt x="245" y="577" on="1"/>
        <pt x="189" y="577" on="0"/>
        <pt x="141" y="510" on="0"/>
        <pt x="141" y="446" on="1"/>
        <pt x="141" y="383" on="0"/>
        <pt x="189" y="316" on="0"/>
        <pt x="245" y="316" on="1"/>
        <pt x="302" y="316" on="0"/>
        <pt x="350" y="383" on="0"/>
      </contour>
    </TTGlyph>
    <TTGlyph name="notequal" xMin="45" yMin="-53" xMax="541" yMax="486">
      <contour>
        <pt x="231" y="99" on="1"/>
        <pt x="96" y="-53" on="1"/>
        <pt x="45" y="-3" on="1"/>
        <pt x="134" y="99" on="1"/>
        <pt x="51" y="99" on="1"/>
        <pt x="51" y="171" on="1"/>
        <pt x="198" y="171" on="1"/>
        <pt x="289" y="273" on="1"/>
        <pt x="51" y="273" on="1"/>
        <pt x="51" y="345" on="1"/>
        <pt x="352" y="345" on="1"/>
        <pt x="477" y="486" on="1"/>
        <pt x="531" y="436" on="1"/>
        <pt x="450" y="345" on="1"/>
        <pt x="541" y="345" on="1"/>
        <pt x="541" y="273" on="1"/>
        <pt x="385" y="273" on="1"/>
        <pt x="295" y="171" on="1"/>
        <pt x="541" y="171" on="1"/>
        <pt x="541" y="99" on="1"/>
      </contour>
    </TTGlyph>
    <TTGlyph name="numbersign" xMin="55" yMin="-28" xMax="479" yMax="487">
      <contour>
        <pt x="374" y="99" on="1"/>
        <pt x="358" y="-28" on="1"/>
        <pt x="286" y="-28" on="1"/>
        <pt x="302" y="99" on="1"/>
        <pt x="200" y="99" on="1"/>
        <pt x="184" y="-28" on="1"/>
        <pt x="112" y="-28" on="1"/>
        <pt x="128" y="99" on="1"/>
        <pt x="55" y="99" on="1"/>
        <pt x="55" y="171" on="1"/>
        <pt x="137" y="171" on="1"/>
        <pt x="150" y="273" on="1"/>
        <pt x="55" y="273" on="1"/>
        <pt x="55" y="345" on="1"/>
        <pt x="160" y="345" on="1"/>
        <pt x="178" y="487" on="1"/>
        <pt x="250" y="487" on="1"/>
        <pt x="231" y="345" on="1"/>
        <pt x="334" y="345" on="1"/>
        <pt x="352" y="487" on="1"/>
        <pt x="424" y="487" on="1"/>
        <pt x="405" y="345" on="1"/>
        <pt x="479" y="345" on="1"/>
        <pt x="479" y="273" on="1"/>
        <pt x="396" y="273" on="1"/>
        <pt x="383" y="171" on="1"/>
        <pt x="479" y="171" on="1"/>
        <pt x="479" y="99" on="1"/>
      </contour>
      <contour>
        <pt x="222" y="273" on="1"/>
        <pt x="209" y="171" on="1"/>
        <pt x="311" y="171" on="1"/>
        <pt x="324" y="273" on="1"/>
      </contour>
    </TTGlyph>
    <TTGlyph name="o" xMin="43" yMin="-12" xMax="488" yMax="456">
      <contour>
        <pt x="488" y="222" on="1"/>
        <pt x="488" y="165" on="0"/>
        <pt x="453" y="78" on="0"/>
        <pt x="393" y="18" on="0"/>
        <pt x="312" y="-12" on="0"/>
        <pt x="266" y="-12" on="1"/>
        <pt x="218" y="-12" on="0"/>
        <pt x="136" y="19" on="0"/>
        <pt x="77" y="79" on="0"/>
        <pt x="43" y="166" on="0"/>
        <pt x="43" y="222" on="1"/>
        <pt x="43" y="279" on="0"/>
        <pt x="77" y="366" on="0"/>
        <pt x="137" y="426" on="0"/>
        <pt x="219" y="456" on="0"/>
        <pt x="266" y="456" on="1"/>
        <pt x="314" y="456" on="0"/>
        <pt x="395" y="425" on="0"/>
        <pt x="454" y="365" on="0"/>
        <pt x="488" y="278" on="0"/>
      </contour>
      <contour>
        <pt x="392" y="222" on="1"/>
        <pt x="392" y="256" on="0"/>
        <pt x="377" y="318" on="0"/>
        <pt x="346" y="366" on="0"/>
        <pt x="298" y="394" on="0"/>
        <pt x="266" y="394" on="1"/>
        <pt x="233" y="394" on="0"/>
        <pt x="185" y="366" on="0"/>
        <pt x="153" y="318" on="0"/>
        <pt x="138" y="256" on="0"/>
        <pt x="138" y="222" on="1"/>
        <pt x="138" y="189" on="0"/>
        <pt x="153" y="127" on="0"/>
        <pt x="185" y="80" on="0"/>
        <pt x="233" y="52" on="0"/>
        <pt x="266" y="52" on="1"/>
        <pt x="298" y="52" on="0"/>
        <pt x="346" y="80" on="0"/>
        <pt x="377" y="126" on="0"/>
        <pt x="392" y="188" on="0"/>
      </contour>
    </TTGlyph>
    <TTGlyph name="one" xMin="106" yMin="0" xMax="345" yMax="643">
      <contour>
        <pt x="250" y="0" on="1"/>
        <pt x="250" y="529" on="1"/>
        <pt x="218" y="502" on="0"/>
        <pt x="146" y="463" on="0"/>
        <pt x="106" y="452" on="1"/>
        <pt x="106" y="538" on="1"/>
        <pt x="151" y="553" on="0"/>
        <pt x="222" y="608" on="0"/>
        <pt x="248" y="643" on="1"/>
        <pt x="345" y="643" on="1"/>
        <pt x="345" y="0" on="1"/>
      </contour>
    </TTGlyph>
    <TTGlyph name="p" xMin="60" yMin="-177" xMax="495" yMax="456">
      <contour>
        <pt x="495" y="224" on="1"/>
        <pt x="495" y="172" on="0"/>
        <pt x="471" y="85" on="0"/>
        <pt x="421" y="22" on="0"/>
        <pt x="344" y="-13" on="0"/>
        <pt x="291" y="-13" on="1"/>
        <pt x="246" y="-13" on="0"/>
        <pt x="183" y="19" on="0"/>
        <pt x="154" y="44" on="1"/>
        <pt x="154" y="-177" on="1"/>
        <pt x="60" y="-177" on="1"/>
        <pt x="60" y="445" on="1"/>
        <pt x="154" y="445" on="1"/>
        <pt x="154" y="387" on="1"/>
        <pt x="185" y="419" on="0"/>
        <pt x="247" y="456" on="0"/>
        <pt x="288" y="456" on="1"/>
        <pt x="342" y="456" on="0"/>
        <pt x="421" y="420" on="0"/>
        <pt x="471" y="357" on="0"/>
        <pt x="495" y="273" on="0"/>
      </contour>
      <contour>
        <pt x="398" y="224" on="1"/>
        <pt x="398" y="255" on="0"/>
        <pt x="384" y="316" on="0"/>
        <pt x="355" y="364" on="0"/>
        <pt x="308" y="393" on="0"/>
        <pt x="275" y="393" on="1"/>
        <pt x="242" y="393" on="0"/>
        <pt x="195" y="363" on="0"/>
        <pt x="167" y="314" on="0"/>
        <pt x="154" y="253" on="0"/>
        <pt x="154" y="223" on="1"/>
        <pt x="154" y="187" on="0"/>
        <pt x="168" y="124" on="0"/>
        <pt x="197" y="77" on="0"/>
        <pt x="242" y="51" on="0"/>
        <pt x="274" y="51" on="1"/>
        <pt x="308" y="51" on="0"/>
        <pt x="355" y="82" on="0"/>
        <pt x="385" y="131" on="0"/>
        <pt x="398" y="193" on="0"/>
      </contour>
    </TTGlyph>
    <TTGlyph name="parenleft" xMin="74" yMin="-457" xMax="368" yMax="910">
      <contour>
        <pt x="289" y="-457" on="1"/>
        <pt x="230" y="-384" on="0"/>
        <pt x="149" y="-230" on="0"/>
        <pt x="97" y="-63" on="0"/>
        <pt x="74" y="117" on="0"/>
        <pt x="74" y="215" on="1"/>
        <pt x="74" y="316" on="0"/>
        <pt x="100" y="500" on="0"/>
        <pt x="153" y="671" on="0"/>
        <pt x="235" y="832" on="0"/>
        <pt x="291" y="910" on="1"/>
        <pt x="368" y="910" on="1"/>
        <pt x="255" y="755" on="0"/>
        <pt x="146" y="418" on="0"/>
        <pt x="146" y="215" on="1"/>
        <pt x="146" y="27" on="0"/>
        <pt x="251" y="-313" on="0"/>
        <pt x="368" y="-457" on="1"/>
      </contour>
    </TTGlyph>
    <TTGlyph name="parenright" xMin="50" yMin="-449" xMax="344" yMax="918">
      <contour>
        <pt x="344" y="223" on="1"/>
        <pt x="344" y="125" on="0"/>
        <pt x="321" y="-55" on="0"/>
        <pt x="270" y="-222" on="0"/>
        <pt x="188" y="-376" on="0"/>
        <pt x="129" y="-449" on="1"/>
        <pt x="50" y="-449" on="1"/>
        <pt x="167" y="-306" on="0"/>
        <pt x="272" y="36" on="0"/>
        <pt x="272" y="223" on="1"/>
        <pt x="272" y="426" on="0"/>
        <pt x="163" y="763" on="0"/>
        <pt x="50" y="918" on="1"/>
        <pt x="127" y="918" on="1"/>
        <pt x="183" y="840" on="0"/>
        <pt x="265" y="679" on="0"/>
        <pt x="318" y="508" on="0"/>
        <pt x="344" y="324" on="0"/>
      </contour>
    </TTGlyph>
    <TTGlyph name="percent" xMin="40" yMin="-68" xMax="642" yMax="496">
      <contour>
        <pt x="185" y="-68" on="1"/>
        <pt x="130" y="-22" on="1"/>
        <pt x="494" y="496" on="1"/>
        <pt x="553" y="452" on="1"/>
      </contour>
      <contour>
        <pt x="296" y="340" on="1"/>
        <pt x="296" y="315" on="0"/>
        <pt x="275" y="269" on="0"/>
        <pt x="241" y="233" on="0"/>
        <pt x="194" y="212" on="0"/>
        <pt x="169" y="212" on="1"/>
        <pt x="143" y="212" on="0"/>
        <pt x="96" y="233" on="0"/>
        <pt x="61" y="269" on="0"/>
        <pt x="40" y="315" on="0"/>
        <pt x="40" y="340" on="1"/>
        <pt x="40" y="366" on="0"/>
        <pt x="61" y="413" on="0"/>
        <pt x="96" y="449" on="0"/>
        <pt x="143" y="470" on="0"/>
        <pt x="169" y="470" on="1"/>
        <pt x="194" y="470" on="0"/>
        <pt x="241" y="449" on="0"/>
        <pt x="275" y="413" on="0"/>
        <pt x="296" y="366" on="0"/>
      </contour>
      <contour>
        <pt x="642" y="89" on="1"/>
        <pt x="642" y="64" on="0"/>
        <pt x="621" y="17" on="0"/>
        <pt x="587" y="-19" on="0"/>
        <pt x="540" y="-40" on="0"/>
        <pt x="515" y="-40" on="1"/>
        <pt x="489" y="-40" on="0"/>
        <pt x="443" y="-19" on="0"/>
        <pt x="408" y="17" on="0"/>
        <pt x="387" y="64" on="0"/>
        <pt x="387" y="89" on="1"/>
        <pt x="387" y="115" on="0"/>
        <pt x="408" y="162" on="0"/>
        <pt x="443" y="197" on="0"/>
        <pt x="489" y="218" on="0"/>
        <pt x="515" y="218" on="1"/>
        <pt x="540" y="218" on="0"/>
        <pt x="587" y="197" on="0"/>
        <pt x="621" y="162" on="0"/>
        <pt x="642" y="115" on="0"/>
      </contour>
      <contour>
        <pt x="232" y="340" on="1"/>
        <pt x="232" y="366" on="0"/>
        <pt x="194" y="406" on="0"/>
        <pt x="169" y="406" on="1"/>
        <pt x="140" y="406" on="0"/>
        <pt x="103" y="366" on="0"/>
        <pt x="103" y="340" on="1"/>
        <pt x="103" y="314" on="0"/>
        <pt x="141" y="275" on="0"/>
        <pt x="169" y="275" on="1"/>
        <pt x="194" y="275" on="0"/>
        <pt x="232" y="314" on="0"/>
      </contour>
      <contour>
        <pt x="579" y="89" on="1"/>
        <pt x="579" y="102" on="0"/>
        <pt x="568" y="126" on="0"/>
        <pt x="550" y="144" on="0"/>
        <pt x="527" y="155" on="0"/>
        <pt x="515" y="155" on="1"/>
        <pt x="487" y="155" on="0"/>
        <pt x="449" y="115" on="0"/>
        <pt x="449" y="89" on="1"/>
        <pt x="449" y="63" on="0"/>
        <pt x="487" y="23" on="0"/>
        <pt x="515" y="23" on="1"/>
        <pt x="527" y="23" on="0"/>
        <pt x="550" y="34" on="0"/>
        <pt x="568" y="52" on="0"/>
        <pt x="579" y="76" on="0"/>
      </contour>
    </TTGlyph>
    <TTGlyph name="period" xMin="40" yMin="-18" xMax="181" yMax="118">
      <contour>
        <pt x="181" y="50" on="1"/>
        <pt x="181" y="22" on="0"/>
        <pt x="138" y="-18" on="0"/>
        <pt x="111" y="-18" on="1"/>
        <pt x="83" y="-18" on="0"/>
        <pt x="40" y="22" on="0"/>
        <pt x="40" y="50" on="1"/>
        <pt x="40" y="79" on="0"/>
        <pt x="83" y="118" on="0"/>
        <pt x="111" y="118" on="1"/>
        <pt x="138" y="118" on="0"/>
        <pt x="181" y="79" on="0"/>
      </contour>
    </TTGlyph>
    <TTGlyph name="plus" xMin="93" yMin="30" xMax="481" yMax="419">
      <contour>
        <pt x="481" y="187" on="1"/>
        <pt x="323" y="187" on="1"/>
        <pt x="323" y="30" on="1"/>
        <pt x="251" y="30" on="1"/>
        <pt x="251" y="187" on="1"/>
        <pt x="93" y="187" on="1"/>
        <pt x="93" y="259" on="1"/>
        <pt x="251" y="259" on="1"/>
        <pt x="251" y="419" on="1"/>
        <pt x="323" y="419" on="1"/>
        <pt x="323" y="259" on="1"/>
        <pt x="481" y="259" on="1"/>
      </contour>
    </TTGlyph>
    <TTGlyph name="q" xMin="43" yMin="-177" xMax="476" yMax="456">
      <contour>
        <pt x="382" y="-177" on="1"/>
        <pt x="382" y="44" on="1"/>
        <pt x="352" y="19" on="0"/>
        <pt x="290" y="-13" on="0"/>
        <pt x="245" y="-13" on="1"/>
        <pt x="192" y="-13" on="0"/>
        <pt x="116" y="22" on="0"/>
        <pt x="67" y="85" on="0"/>
        <pt x="43" y="172" on="0"/>
        <pt x="43" y="224" on="1"/>
        <pt x="43" y="273" on="0"/>
        <pt x="67" y="358" on="0"/>
        <pt x="116" y="420" on="0"/>
        <pt x="194" y="456" on="0"/>
        <pt x="248" y="456" on="1"/>
        <pt x="291" y="456" on="0"/>
        <pt x="354" y="419" on="0"/>
        <pt x="382" y="387" on="1"/>
        <pt x="382" y="445" on="1"/>
        <pt x="476" y="445" on="1"/>
        <pt x="476" y="-177" on="1"/>
      </contour>
      <contour>
        <pt x="384" y="223" on="1"/>
        <pt x="384" y="254" on="0"/>
        <pt x="370" y="315" on="0"/>
        <pt x="341" y="363" on="0"/>
        <pt x="295" y="393" on="0"/>
        <pt x="262" y="393" on="1"/>
        <pt x="229" y="393" on="0"/>
        <pt x="182" y="363" on="0"/>
        <pt x="152" y="315" on="0"/>
        <pt x="139" y="255" on="0"/>
        <pt x="139" y="224" on="1"/>
        <pt x="139" y="192" on="0"/>
        <pt x="152" y="130" on="0"/>
        <pt x="182" y="81" on="0"/>
        <pt x="230" y="51" on="0"/>
        <pt x="264" y="51" on="1"/>
        <pt x="295" y="51" on="0"/>
        <pt x="341" y="77" on="0"/>
        <pt x="370" y="124" on="0"/>
        <pt x="384" y="187" on="0"/>
      </contour>
    </TTGlyph>
    <TTGlyph name="question" xMin="27" yMin="-4" xMax="392" yMax="773">
      <contour>
        <pt x="268" y="56" on="1"/>
        <pt x="268" y="29" on="0"/>
        <pt x="232" y="-4" on="0"/>
        <pt x="209" y="-4" on="1"/>
        <pt x="186" y="-4" on="0"/>
        <pt x="150" y="30" on="0"/>
        <pt x="150" y="56" on="1"/>
        <pt x="150" y="83" on="0"/>
        <pt x="186" y="114" on="0"/>
        <pt x="209" y="114" on="1"/>
        <pt x="232" y="114" on="0"/>
        <pt x="268" y="83" on="0"/>
      </contour>
      <contour>
        <pt x="392" y="587" on="1"/>
        <pt x="392" y="549" on="0"/>
        <pt x="370" y="499" on="0"/>
        <pt x="338" y="463" on="0"/>
        <pt x="299" y="436" on="0"/>
        <pt x="267" y="408" on="0"/>
        <pt x="245" y="372" on="0"/>
        <pt x="245" y="345" on="1"/>
        <pt x="245" y="200" on="1"/>
        <pt x="173" y="200" on="1"/>
        <pt x="173" y="360" on="1"/>
        <pt x="173" y="391" on="0"/>
        <pt x="195" y="435" on="0"/>
        <pt x="227" y="468" on="0"/>
        <pt x="266" y="494" on="0"/>
        <pt x="298" y="524" on="0"/>
        <pt x="320" y="560" on="0"/>
        <pt x="320" y="587" on="1"/>
        <pt x="320" y="608" on="0"/>
        <pt x="302" y="649" on="0"/>
        <pt x="271" y="681" on="0"/>
        <pt x="231" y="701" on="0"/>
        <pt x="209" y="701" on="1"/>
        <pt x="183" y="701" on="0"/>
        <pt x="142" y="677" on="0"/>
        <pt x="114" y="642" on="0"/>
        <pt x="99" y="603" on="0"/>
        <pt x="99" y="589" on="1"/>
        <pt x="99" y="551" on="1"/>
        <pt x="27" y="551" on="1"/>
        <pt x="27" y="589" on="1"/>
        <pt x="27" y="610" on="0"/>
        <pt x="48" y="673" on="0"/>
        <pt x="92" y="732" on="0"/>
        <pt x="161" y="773" on="0"/>
        <pt x="209" y="773" on="1"/>
        <pt x="251" y="773" on="0"/>
        <pt x="318" y="741" on="0"/>
        <pt x="366" y="689" on="0"/>
        <pt x="392" y="622" on="0"/>
      </contour>
    </TTGlyph>
    <TTGlyph name="quotedbl" xMin="62" yMin="386" xMax="360" yMax="643">
      <contour>
        <pt x="338" y="386" on="1"/>
        <pt x="274" y="386" on="1"/>
        <pt x="253" y="643" on="1"/>
        <pt x="360" y="643" on="1"/>
      </contour>
      <contour>
        <pt x="147" y="386" on="1"/>
        <pt x="83" y="386" on="1"/>
        <pt x="62" y="643" on="1"/>
        <pt x="169" y="643" on="1"/>
      </contour>
    </TTGlyph>
    <TTGlyph name="quotedblleft" xMin="45" yMin="588" xMax="443" yMax="880">
      <contour>
        <pt x="205" y="673" on="1"/>
        <pt x="205" y="655" on="0"/>
        <pt x="192" y="624" on="0"/>
        <pt x="169" y="601" on="0"/>
        <pt x="141" y="588" on="0"/>
        <pt x="126" y="588" on="1"/>
        <pt x="93" y="588" on="0"/>
        <pt x="45" y="635" on="0"/>
        <pt x="45" y="673" on="1"/>
        <pt x="45" y="709" on="0"/>
        <pt x="64" y="776" on="0"/>
        <pt x="95" y="831" on="0"/>
        <pt x="134" y="871" on="0"/>
        <pt x="153" y="880" on="1"/>
        <pt x="170" y="868" on="1"/>
        <pt x="142" y="848" on="0"/>
        <pt x="104" y="776" on="0"/>
        <pt x="104" y="734" on="1"/>
        <pt x="104" y="723" on="0"/>
        <pt x="105" y="712" on="0"/>
        <pt x="107" y="708" on="1"/>
        <pt x="112" y="711" on="0"/>
        <pt x="130" y="719" on="0"/>
        <pt x="151" y="727" on="0"/>
        <pt x="172" y="732" on="0"/>
        <pt x="178" y="732" on="1"/>
        <pt x="194" y="730" on="0"/>
        <pt x="205" y="693" on="0"/>
      </contour>
      <contour>
        <pt x="443" y="673" on="1"/>
        <pt x="443" y="655" on="0"/>
        <pt x="429" y="624" on="0"/>
        <pt x="407" y="601" on="0"/>
        <pt x="379" y="588" on="0"/>
        <pt x="364" y="588" on="1"/>
        <pt x="330" y="588" on="0"/>
        <pt x="283" y="635" on="0"/>
        <pt x="283" y="673" on="1"/>
        <pt x="283" y="709" on="0"/>
        <pt x="303" y="776" on="0"/>
        <pt x="334" y="831" on="0"/>
        <pt x="373" y="871" on="0"/>
        <pt x="392" y="880" on="1"/>
        <pt x="408" y="868" on="1"/>
        <pt x="380" y="848" on="0"/>
        <pt x="342" y="776" on="0"/>
        <pt x="342" y="734" on="1"/>
        <pt x="342" y="723" on="0"/>
        <pt x="343" y="712" on="0"/>
        <pt x="345" y="708" on="1"/>
        <pt x="349" y="711" on="0"/>
        <pt x="368" y="719" on="0"/>
        <pt x="389" y="727" on="0"/>
        <pt x="409" y="732" on="0"/>
        <pt x="416" y="732" on="1"/>
        <pt x="433" y="730" on="0"/>
        <pt x="443" y="693" on="0"/>
      </contour>
    </TTGlyph>
    <TTGlyph name="quotedblright" xMin="40" yMin="588" xMax="438" yMax="880">
      <contour>
        <pt x="438" y="795" on="1"/>
        <pt x="438" y="759" on="0"/>
        <pt x="419" y="692" on="0"/>
        <pt x="388" y="637" on="0"/>
        <pt x="349" y="597" on="0"/>
        <pt x="330" y="588" on="1"/>
        <pt x="314" y="600" on="1"/>
        <pt x="341" y="620" on="0"/>
        <pt x="379" y="691" on="0"/>
        <pt x="379" y="734" on="1"/>
        <pt x="379" y="746" on="0"/>
        <pt x="378" y="756" on="0"/>
        <pt x="377" y="760" on="1"/>
        <pt x="372" y="757" on="0"/>
        <pt x="353" y="748" on="0"/>
        <pt x="332" y="741" on="0"/>
        <pt x="312" y="735" on="0"/>
        <pt x="305" y="735" on="1"/>
        <pt x="297" y="736" on="0"/>
        <pt x="287" y="748" on="0"/>
        <pt x="281" y="765" on="0"/>
        <pt x="278" y="785" on="0"/>
        <pt x="278" y="795" on="1"/>
        <pt x="278" y="813" on="0"/>
        <pt x="291" y="844" on="0"/>
        <pt x="314" y="867" on="0"/>
        <pt x="343" y="880" on="0"/>
        <pt x="358" y="880" on="1"/>
        <pt x="391" y="880" on="0"/>
        <pt x="438" y="832" on="0"/>
      </contour>
      <contour>
        <pt x="200" y="795" on="1"/>
        <pt x="200" y="759" on="0"/>
        <pt x="180" y="692" on="0"/>
        <pt x="149" y="637" on="0"/>
        <pt x="111" y="597" on="0"/>
        <pt x="92" y="588" on="1"/>
        <pt x="75" y="600" on="1"/>
        <pt x="102" y="620" on="0"/>
        <pt x="141" y="691" on="0"/>
        <pt x="141" y="734" on="1"/>
        <pt x="141" y="746" on="0"/>
        <pt x="140" y="756" on="0"/>
        <pt x="138" y="760" on="1"/>
        <pt x="133" y="757" on="0"/>
        <pt x="115" y="748" on="0"/>
        <pt x="94" y="741" on="0"/>
        <pt x="74" y="735" on="0"/>
        <pt x="67" y="735" on="1"/>
        <pt x="59" y="736" on="0"/>
        <pt x="49" y="748" on="0"/>
        <pt x="43" y="765" on="0"/>
        <pt x="40" y="785" on="0"/>
        <pt x="40" y="795" on="1"/>
        <pt x="40" y="813" on="0"/>
        <pt x="53" y="844" on="0"/>
        <pt x="76" y="867" on="0"/>
        <pt x="105" y="880" on="0"/>
        <pt x="120" y="880" on="1"/>
        <pt x="153" y="880" on="0"/>
        <pt x="200" y="832" on="0"/>
      </contour>
    </TTGlyph>
    <TTGlyph name="quoteleft" xMin="45" yMin="588" xMax="205" yMax="880">
      <contour>
        <pt x="205" y="673" on="1"/>
        <pt x="205" y="655" on="0"/>
        <pt x="192" y="624" on="0"/>
        <pt x="169" y="601" on="0"/>
        <pt x="141" y="588" on="0"/>
        <pt x="126" y="588" on="1"/>
        <pt x="93" y="588" on="0"/>
        <pt x="45" y="635" on="0"/>
        <pt x="45" y="673" on="1"/>
        <pt x="45" y="709" on="0"/>
        <pt x="64" y="776" on="0"/>
        <pt x="95" y="831" on="0"/>
        <pt x="134" y="871" on="0"/>
        <pt x="153" y="880" on="1"/>
        <pt x="170" y="867" on="1"/>
        <pt x="142" y="847" on="0"/>
        <pt x="104" y="776" on="0"/>
        <pt x="104" y="734" on="1"/>
        <pt x="104" y="723" on="0"/>
        <pt x="105" y="712" on="0"/>
        <pt x="107" y="708" on="1"/>
        <pt x="112" y="711" on="0"/>
        <pt x="130" y="719" on="0"/>
        <pt x="151" y="727" on="0"/>
        <pt x="172" y="732" on="0"/>
        <pt x="178" y="732" on="1"/>
        <pt x="194" y="730" on="0"/>
        <pt x="205" y="692" on="0"/>
      </contour>
    </TTGlyph>
    <TTGlyph name="quoteright" xMin="40" yMin="588" xMax="200" yMax="880">
      <contour>
        <pt x="200" y="795" on="1"/>
        <pt x="200" y="759" on="0"/>
        <pt x="180" y="692" on="0"/>
        <pt x="149" y="637" on="0"/>
        <pt x="111" y="597" on="0"/>
        <pt x="92" y="588" on="1"/>
        <pt x="75" y="600" on="1"/>
        <pt x="102" y="620" on="0"/>
        <pt x="141" y="691" on="0"/>
        <pt x="141" y="734" on="1"/>
        <pt x="141" y="746" on="0"/>
        <pt x="140" y="756" on="0"/>
        <pt x="138" y="760" on="1"/>
        <pt x="133" y="757" on="0"/>
        <pt x="115" y="748" on="0"/>
        <pt x="94" y="741" on="0"/>
        <pt x="74" y="735" on="0"/>
        <pt x="67" y="735" on="1"/>
        <pt x="59" y="736" on="0"/>
        <pt x="49" y="748" on="0"/>
        <pt x="43" y="765" on="0"/>
        <pt x="40" y="785" on="0"/>
        <pt x="40" y="795" on="1"/>
        <pt x="40" y="813" on="0"/>
        <pt x="53" y="844" on="0"/>
        <pt x="76" y="867" on="0"/>
        <pt x="105" y="880" on="0"/>
        <pt x="120" y="880" on="1"/>
        <pt x="153" y="880" on="0"/>
        <pt x="200" y="832" on="0"/>
      </contour>
    </TTGlyph>
    <TTGlyph name="quotesingle" xMin="116" yMin="386" xMax="223" yMax="643">
      <contour>
        <pt x="202" y="386" on="1"/>
        <pt x="137" y="386" on="1"/>
        <pt x="116" y="643" on="1"/>
        <pt x="223" y="643" on="1"/>
      </contour>
    </TTGlyph>
    <TTGlyph name="r" xMin="60" yMin="0" xMax="314" yMax="449">
      <contour>
        <pt x="314" y="367" on="1"/>
        <pt x="230" y="367" on="0"/>
        <pt x="154" y="302" on="0"/>
        <pt x="154" y="242" on="1"/>
        <pt x="154" y="0" on="1"/>
        <pt x="60" y="0" on="1"/>
        <pt x="60" y="445" on="1"/>
        <pt x="154" y="445" on="1"/>
        <pt x="154" y="381" on="1"/>
        <pt x="164" y="398" on="0"/>
        <pt x="187" y="424" on="0"/>
        <pt x="222" y="441" on="0"/>
        <pt x="275" y="449" on="0"/>
        <pt x="314" y="449" on="1"/>
        <pt x="314" y="367" on="1"/>
      </contour>
    </TTGlyph>
    <TTGlyph name="s" xMin="43" yMin="-12" xMax="410" yMax="456">
      <contour>
        <pt x="410" y="133" on="1"/>
        <pt x="410" y="92" on="0"/>
        <pt x="376" y="37" on="0"/>
        <pt x="320" y="3" on="0"/>
        <pt x="250" y="-12" on="0"/>
        <pt x="214" y="-12" on="1"/>
        <pt x="178" y="-12" on="0"/>
        <pt x="116" y="3" on="0"/>
        <pt x="70" y="38" on="0"/>
        <pt x="43" y="93" on="0"/>
        <pt x="43" y="132" on="1"/>
        <pt x="137" y="132" on="1"/>
        <pt x="139" y="87" on="0"/>
        <pt x="185" y="52" on="0"/>
        <pt x="225" y="52" on="1"/>
        <pt x="242" y="52" on="0"/>
        <pt x="275" y="61" on="0"/>
        <pt x="300" y="79" on="0"/>
        <pt x="316" y="106" on="0"/>
        <pt x="316" y="124" on="1"/>
        <pt x="316" y="150" on="0"/>
        <pt x="277" y="176" on="0"/>
        <pt x="219" y="192" on="0"/>
        <pt x="151" y="205" on="0"/>
        <pt x="93" y="234" on="0"/>
        <pt x="54" y="285" on="0"/>
        <pt x="54" y="331" on="1"/>
        <pt x="54" y="355" on="0"/>
        <pt x="73" y="401" on="0"/>
        <pt x="115" y="435" on="0"/>
        <pt x="180" y="456" on="0"/>
        <pt x="225" y="456" on="1"/>
        <pt x="264" y="456" on="0"/>
        <pt x="327" y="443" on="0"/>
        <pt x="372" y="412" on="0"/>
        <pt x="397" y="361" on="0"/>
        <pt x="397" y="322" on="1"/>
        <pt x="303" y="322" on="1"/>
        <pt x="303" y="336" on="0"/>
        <pt x="297" y="362" on="0"/>
        <pt x="279" y="382" on="0"/>
        <pt x="247" y="394" on="0"/>
        <pt x="222" y="394" on="1"/>
        <pt x="190" y="394" on="0"/>
        <pt x="147" y="359" on="0"/>
        <pt x="147" y="332" on="1"/>
        <pt x="147" y="307" on="0"/>
        <pt x="186" y="282" on="0"/>
        <pt x="244" y="267" on="0"/>
        <pt x="313" y="253" on="0"/>
        <pt x="371" y="225" on="0"/>
        <pt x="410" y="176" on="0"/>
      </contour>
    </TTGlyph>
    <TTGlyph name="semicolon" xMin="40" yMin="-116" xMax="181" yMax="461">
      <contour>
        <pt x="181" y="393" on="1"/>
        <pt x="181" y="365" on="0"/>
        <pt x="138" y="324" on="0"/>
        <pt x="111" y="324" on="1"/>
        <pt x="83" y="324" on="0"/>
        <pt x="40" y="365" on="0"/>
        <pt x="40" y="393" on="1"/>
        <pt x="40" y="422" on="0"/>
        <pt x="83" y="461" on="0"/>
        <pt x="111" y="461" on="1"/>
        <pt x="138" y="461" on="0"/>
        <pt x="181" y="422" on="0"/>
      </contour>
      <contour>
        <pt x="179" y="44" on="1"/>
        <pt x="179" y="17" on="0"/>
        <pt x="163" y="-33" on="0"/>
        <pt x="138" y="-75" on="0"/>
        <pt x="107" y="-107" on="0"/>
        <pt x="93" y="-116" on="1"/>
        <pt x="81" y="-106" on="1"/>
        <pt x="101" y="-91" on="0"/>
        <pt x="130" y="-35" on="0"/>
        <pt x="130" y="3" on="1"/>
        <pt x="130" y="12" on="0"/>
        <pt x="129" y="16" on="1"/>
        <pt x="113" y="8" on="0"/>
        <pt x="73" y="-4" on="0"/>
        <pt x="65" y="-4" on="1"/>
        <pt x="56" y="-4" on="0"/>
        <pt x="40" y="24" on="0"/>
        <pt x="40" y="49" on="1"/>
        <pt x="40" y="63" on="0"/>
        <pt x="51" y="88" on="0"/>
        <pt x="70" y="108" on="0"/>
        <pt x="94" y="119" on="0"/>
        <pt x="107" y="119" on="1"/>
        <pt x="137" y="119" on="0"/>
        <pt x="179" y="75" on="0"/>
      </contour>
    </TTGlyph>
    <TTGlyph name="seven" xMin="47" yMin="0" xMax="455" yMax="643">
      <contour>
        <pt x="242" y="0" on="1"/>
        <pt x="128" y="0" on="1"/>
        <pt x="362" y="561" on="1"/>
        <pt x="47" y="561" on="1"/>
        <pt x="47" y="643" on="1"/>
        <pt x="455" y="643" on="1"/>
        <pt x="455" y="542" on="1"/>
      </contour>
    </TTGlyph>
    <TTGlyph name="six" xMin="38" yMin="-13" xMax="464" yMax="655">
      <contour>
        <pt x="464" y="200" on="1"/>
        <pt x="464" y="167" on="0"/>
        <pt x="445" y="92" on="0"/>
        <pt x="397" y="29" on="0"/>
        <pt x="317" y="-13" on="0"/>
        <pt x="256" y="-13" on="1"/>
        <pt x="185" y="-13" on="0"/>
        <pt x="99" y="32" on="0"/>
        <pt x="53" y="114" on="0"/>
        <pt x="38" y="230" on="0"/>
        <pt x="38" y="301" on="1"/>
        <pt x="38" y="363" on="0"/>
        <pt x="55" y="489" on="0"/>
        <pt x="104" y="591" on="0"/>
        <pt x="192" y="655" on="0"/>
        <pt x="263" y="655" on="1"/>
        <pt x="348" y="655" on="0"/>
        <pt x="438" y="569" on="0"/>
        <pt x="448" y="488" on="1"/>
        <pt x="350" y="488" on="1"/>
        <pt x="347" y="536" on="0"/>
        <pt x="301" y="577" on="0"/>
        <pt x="263" y="577" on="1"/>
        <pt x="221" y="577" on="0"/>
        <pt x="171" y="519" on="0"/>
        <pt x="145" y="438" on="0"/>
        <pt x="137" y="350" on="0"/>
        <pt x="137" y="321" on="1"/>
        <pt x="148" y="338" on="0"/>
        <pt x="173" y="367" on="0"/>
        <pt x="206" y="389" on="0"/>
        <pt x="250" y="401" on="0"/>
        <pt x="279" y="401" on="1"/>
        <pt x="335" y="401" on="0"/>
        <pt x="407" y="361" on="0"/>
        <pt x="448" y="301" on="0"/>
        <pt x="464" y="230" on="0"/>
      </contour>
      <contour>
        <pt x="361" y="196" on="1"/>
        <pt x="361" y="259" on="0"/>
        <pt x="312" y="326" on="0"/>
        <pt x="257" y="326" on="1"/>
        <pt x="200" y="326" on="0"/>
        <pt x="151" y="259" on="0"/>
        <pt x="151" y="196" on="1"/>
        <pt x="151" y="133" on="0"/>
        <pt x="200" y="65" on="0"/>
        <pt x="257" y="65" on="1"/>
        <pt x="312" y="65" on="0"/>
        <pt x="361" y="133" on="0"/>
      </contour>
    </TTGlyph>
    <TTGlyph name="slash" xMin="55" yMin="-233" xMax="460" yMax="819">
      <contour>
        <pt x="110" y="-233" on="1"/>
        <pt x="55" y="-178" on="1"/>
        <pt x="405" y="819" on="1"/>
        <pt x="460" y="766" on="1"/>
      </contour>
    </TTGlyph>
    <TTGlyph name="t" xMin="26" yMin="-12" xMax="307" yMax="570">
      <contour>
        <pt x="307" y="1" on="1"/>
        <pt x="288" y="-5" on="0"/>
        <pt x="252" y="-12" on="0"/>
        <pt x="232" y="-12" on="1"/>
        <pt x="174" y="-12" on="0"/>
        <pt x="109" y="45" on="0"/>
        <pt x="109" y="114" on="1"/>
        <pt x="109" y="382" on="1"/>
        <pt x="26" y="382" on="1"/>
        <pt x="26" y="445" on="1"/>
        <pt x="109" y="445" on="1"/>
        <pt x="109" y="527" on="1"/>
        <pt x="203" y="570" on="1"/>
        <pt x="203" y="445" on="1"/>
        <pt x="304" y="445" on="1"/>
        <pt x="304" y="382" on="1"/>
        <pt x="203" y="382" on="1"/>
        <pt x="203" y="125" on="1"/>
        <pt x="203" y="85" on="0"/>
        <pt x="232" y="57" on="0"/>
        <pt x="258" y="57" on="1"/>
        <pt x="286" y="57" on="0"/>
        <pt x="307" y="64" on="1"/>
        <pt x="307" y="1" on="1"/>
      </contour>
    </TTGlyph>
    <TTGlyph name="three" xMin="41" yMin="-13" xMax="460" yMax="655">
      <contour>
        <pt x="460" y="174" on="1"/>
        <pt x="460" y="133" on="0"/>
        <pt x="427" y="65" on="0"/>
        <pt x="370" y="15" on="0"/>
        <pt x="293" y="-13" on="0"/>
        <pt x="249" y="-13" on="1"/>
        <pt x="195" y="-13" on="0"/>
        <pt x="116" y="16" on="0"/>
        <pt x="65" y="67" on="0"/>
        <pt x="41" y="135" on="0"/>
        <pt x="41" y="173" on="1"/>
        <pt x="146" y="173" on="1"/>
        <pt x="147" y="152" on="0"/>
        <pt x="160" y="113" on="0"/>
        <pt x="184" y="83" on="0"/>
        <pt x="221" y="65" on="0"/>
        <pt x="248" y="65" on="1"/>
        <pt x="270" y="65" on="0"/>
        <pt x="310" y="81" on="0"/>
        <pt x="341" y="110" on="0"/>
        <pt x="359" y="150" on="0"/>
        <pt x="359" y="173" on="1"/>
        <pt x="359" y="209" on="0"/>
        <pt x="342" y="257" on="0"/>
        <pt x="308" y="284" on="0"/>
        <pt x="255" y="295" on="0"/>
        <pt x="219" y="295" on="1"/>
        <pt x="219" y="375" on="1"/>
        <pt x="286" y="375" on="0"/>
        <pt x="347" y="422" on="0"/>
        <pt x="347" y="483" on="1"/>
        <pt x="347" y="509" on="0"/>
        <pt x="329" y="545" on="0"/>
        <pt x="300" y="567" on="0"/>
        <pt x="265" y="577" on="0"/>
        <pt x="248" y="577" on="1"/>
        <pt x="206" y="577" on="0"/>
        <pt x="157" y="524" on="0"/>
        <pt x="151" y="475" on="1"/>
        <pt x="50" y="475" on="1"/>
        <pt x="58" y="561" on="0"/>
        <pt x="159" y="655" on="0"/>
        <pt x="247" y="655" on="1"/>
        <pt x="293" y="655" on="0"/>
        <pt x="367" y="628" on="0"/>
        <pt x="420" y="582" on="0"/>
        <pt x="449" y="518" on="0"/>
        <pt x="449" y="481" on="1"/>
        <pt x="449" y="449" on="0"/>
        <pt x="435" y="403" on="0"/>
        <pt x="412" y="370" on="0"/>
        <pt x="381" y="346" on="0"/>
        <pt x="364" y="337" on="1"/>
        <pt x="384" y="327" on="0"/>
        <pt x="419" y="303" on="0"/>
        <pt x="445" y="265" on="0"/>
        <pt x="460" y="212" on="0"/>
      </contour>
    </TTGlyph>
    <TTGlyph name="two" xMin="46" yMin="0" xMax="456" yMax="655">
      <contour>
        <pt x="46" y="0" on="1"/>
        <pt x="46" y="93" on="1"/>
        <pt x="155" y="175" on="0"/>
        <pt x="278" y="297" on="0"/>
        <pt x="339" y="386" on="0"/>
        <pt x="354" y="447" on="0"/>
        <pt x="354" y="468" on="1"/>
        <pt x="354" y="518" on="0"/>
        <pt x="311" y="573" on="0"/>
        <pt x="263" y="573" on="1"/>
        <pt x="172" y="573" on="0"/>
        <pt x="163" y="467" on="1"/>
        <pt x="59" y="467" on="1"/>
        <pt x="61" y="509" on="0"/>
        <pt x="90" y="578" on="0"/>
        <pt x="142" y="627" on="0"/>
        <pt x="215" y="655" on="0"/>
        <pt x="262" y="655" on="1"/>
        <pt x="308" y="655" on="0"/>
        <pt x="380" y="626" on="0"/>
        <pt x="430" y="577" on="0"/>
        <pt x="456" y="513" on="0"/>
        <pt x="456" y="479" on="1"/>
        <pt x="456" y="443" on="0"/>
        <pt x="439" y="368" on="0"/>
        <pt x="378" y="275" on="0"/>
        <pt x="259" y="158" on="0"/>
        <pt x="157" y="80" on="1"/>
        <pt x="456" y="80" on="1"/>
        <pt x="456" y="0" on="1"/>
      </contour>
    </TTGlyph>
    <TTGlyph name="u" xMin="60" yMin="-12" xMax="457" yMax="445">
      <contour>
        <pt x="362" y="0" on="1"/>
        <pt x="362" y="58" on="1"/>
        <pt x="341" y="24" on="0"/>
        <pt x="278" y="-12" on="0"/>
        <pt x="224" y="-12" on="1"/>
        <pt x="139" y="-12" on="0"/>
        <pt x="60" y="71" on="0"/>
        <pt x="60" y="148" on="1"/>
        <pt x="60" y="445" on="1"/>
        <pt x="154" y="445" on="1"/>
        <pt x="154" y="159" on="1"/>
        <pt x="154" y="108" on="0"/>
        <pt x="210" y="48" on="0"/>
        <pt x="252" y="48" on="1"/>
        <pt x="300" y="48" on="0"/>
        <pt x="362" y="113" on="0"/>
        <pt x="362" y="171" on="1"/>
        <pt x="362" y="445" on="1"/>
        <pt x="457" y="445" on="1"/>
        <pt x="457" y="0" on="1"/>
      </contour>
    </TTGlyph>
    <TTGlyph name="u1000" xMin="55" yMin="-18" xMax="938" yMax="461">
      <contour>
        <pt x="938" y="222" on="1"/>
        <pt x="938" y="172" on="0"/>
        <pt x="900" y="85" on="0"/>
        <pt x="836" y="20" on="0"/>
        <pt x="750" y="-18" on="0"/>
        <pt x="702" y="-18" on="1"/>
        <pt x="688" y="-18" on="0"/>
        <pt x="648" y="-12" on="0"/>
        <pt x="631" y="-4" on="1"/>
        <pt x="659" y="62" on="1"/>
        <pt x="681" y="54" on="0"/>
        <pt x="702" y="54" on="1"/>
        <pt x="736" y="54" on="0"/>
        <pt x="796" y="81" on="0"/>
        <pt x="840" y="126" on="0"/>
        <pt x="866" y="187" on="0"/>
        <pt x="866" y="222" on="1"/>
        <pt x="866" y="256" on="0"/>
        <pt x="840" y="317" on="0"/>
        <pt x="796" y="363" on="0"/>
        <pt x="736" y="390" on="0"/>
        <pt x="702" y="390" on="1"/>
        <pt x="668" y="390" on="0"/>
        <pt x="607" y="354" on="0"/>
        <pt x="561" y="298" on="0"/>
        <pt x="534" y="230" on="0"/>
        <pt x="534" y="197" on="1"/>
        <pt x="533" y="119" on="0"/>
        <pt x="485" y="20" on="0"/>
        <pt x="439" y="-18" on="1"/>
        <pt x="397" y="42" on="1"/>
        <pt x="429" y="74" on="0"/>
        <pt x="462" y="147" on="0"/>
        <pt x="462" y="204" on="1"/>
        <pt x="462" y="243" on="0"/>
        <pt x="437" y="310" on="0"/>
        <pt x="392" y="359" on="0"/>
        <pt x="331" y="388" on="0"/>
        <pt x="295" y="388" on="1"/>
        <pt x="259" y="388" on="0"/>
        <pt x="197" y="359" on="0"/>
        <pt x="152" y="310" on="0"/>
        <pt x="127" y="243" on="0"/>
        <pt x="127" y="204" on="1"/>
        <pt x="127" y="147" on="0"/>
        <pt x="161" y="74" on="0"/>
        <pt x="192" y="42" on="1"/>
        <pt x="150" y="-18" on="1"/>
        <pt x="104" y="21" on="0"/>
        <pt x="55" y="124" on="0"/>
        <pt x="55" y="204" on="1"/>
        <pt x="55" y="259" on="0"/>
        <pt x="92" y="353" on="0"/>
        <pt x="157" y="422" on="0"/>
        <pt x="245" y="460" on="0"/>
        <pt x="295" y="460" on="1"/>
        <pt x="363" y="460" on="0"/>
        <pt x="473" y="391" on="0"/>
        <pt x="502" y="331" on="1"/>
        <pt x="532" y="386" on="0"/>
        <pt x="636" y="461" on="0"/>
        <pt x="702" y="461" on="1"/>
        <pt x="750" y="461" on="0"/>
        <pt x="836" y="423" on="0"/>
        <pt x="900" y="358" on="0"/>
        <pt x="938" y="271" on="0"/>
      </contour>
    </TTGlyph>
    <TTGlyph name="u1000.kham" xMin="55" yMin="-18" xMax="938" yMax="461">
      <contour>
        <pt x="938" y="222" on="1"/>
        <pt x="938" y="172" on="0"/>
        <pt x="900" y="85" on="0"/>
        <pt x="836" y="20" on="0"/>
        <pt x="750" y="-18" on="0"/>
        <pt x="702" y="-18" on="1"/>
        <pt x="684" y="-18" on="0"/>
        <pt x="647" y="-12" on="0"/>
        <pt x="631" y="-4" on="1"/>
        <pt x="659" y="62" on="1"/>
        <pt x="676" y="54" on="0"/>
        <pt x="702" y="54" on="1"/>
        <pt x="736" y="54" on="0"/>
        <pt x="796" y="81" on="0"/>
        <pt x="840" y="126" on="0"/>
        <pt x="866" y="187" on="0"/>
        <pt x="866" y="222" on="1"/>
        <pt x="866" y="256" on="0"/>
        <pt x="840" y="317" on="0"/>
        <pt x="796" y="363" on="0"/>
        <pt x="736" y="390" on="0"/>
        <pt x="702" y="390" on="1"/>
        <pt x="668" y="390" on="0"/>
        <pt x="607" y="354" on="0"/>
        <pt x="561" y="298" on="0"/>
        <pt x="534" y="230" on="0"/>
        <pt x="534" y="197" on="1"/>
        <pt x="534" y="120" on="0"/>
        <pt x="485" y="19" on="0"/>
        <pt x="439" y="-18" on="1"/>
        <pt x="397" y="42" on="1"/>
        <pt x="429" y="74" on="0"/>
        <pt x="462" y="147" on="0"/>
        <pt x="462" y="204" on="1"/>
        <pt x="462" y="243" on="0"/>
        <pt x="436" y="310" on="0"/>
        <pt x="391" y="359" on="0"/>
        <pt x="330" y="388" on="0"/>
        <pt x="295" y="388" on="1"/>
        <pt x="261" y="388" on="0"/>
        <pt x="200" y="361" on="0"/>
        <pt x="154" y="312" on="0"/>
        <pt x="127" y="244" on="0"/>
        <pt x="127" y="204" on="1"/>
        <pt x="127" y="161" on="0"/>
        <pt x="139" y="125" on="1"/>
        <pt x="147" y="133" on="0"/>
        <pt x="168" y="142" on="0"/>
        <pt x="180" y="142" on="1"/>
        <pt x="196" y="142" on="0"/>
        <pt x="225" y="129" on="0"/>
        <pt x="247" y="107" on="0"/>
        <pt x="260" y="78" on="0"/>
        <pt x="260" y="62" on="1"/>
        <pt x="260" y="46" on="0"/>
        <pt x="247" y="17" on="0"/>
        <pt x="226" y="-5" on="0"/>
        <pt x="196" y="-18" on="0"/>
        <pt x="180" y="-18" on="1"/>
        <pt x="148" y="-18" on="0"/>
        <pt x="102" y="23" on="0"/>
        <pt x="70" y="87" on="0"/>
        <pt x="55" y="166" on="0"/>
        <pt x="55" y="204" on="1"/>
        <pt x="55" y="259" on="0"/>
        <pt x="92" y="352" on="0"/>
        <pt x="157" y="421" on="0"/>
        <pt x="245" y="460" on="0"/>
        <pt x="295" y="460" on="1"/>
        <pt x="363" y="460" on="0"/>
        <pt x="473" y="391" on="0"/>
        <pt x="502" y="331" on="1"/>
        <pt x="532" y="387" on="0"/>
        <pt x="636" y="461" on="0"/>
        <pt x="702" y="461" on="1"/>
        <pt x="750" y="461" on="0"/>
        <pt x="836" y="423" on="0"/>
        <pt x="900" y="358" on="0"/>
        <pt x="938" y="271" on="0"/>
      </contour>
    </TTGlyph>
    <TTGlyph name="u1000.med" xMin="-736" yMin="-457" xMax="-55" yMax="-88">
      <contour>
        <pt x="-55" y="-272" on="1"/>
        <pt x="-55" y="-311" on="0"/>
        <pt x="-84" y="-378" on="0"/>
        <pt x="-134" y="-428" on="0"/>
        <pt x="-200" y="-457" on="0"/>
        <pt x="-237" y="-457" on="1"/>
        <pt x="-270" y="-457" on="0"/>
        <pt x="-292" y="-446" on="1"/>
        <pt x="-269" y="-395" on="1"/>
        <pt x="-262" y="-399" on="0"/>
        <pt x="-246" y="-401" on="0"/>
        <pt x="-237" y="-401" on="1"/>
        <pt x="-211" y="-401" on="0"/>
        <pt x="-165" y="-380" on="0"/>
        <pt x="-130" y="-345" on="0"/>
        <pt x="-110" y="-298" on="0"/>
        <pt x="-110" y="-272" on="1"/>
        <pt x="-110" y="-246" on="0"/>
        <pt x="-130" y="-199" on="0"/>
        <pt x="-165" y="-164" on="0"/>
        <pt x="-211" y="-143" on="0"/>
        <pt x="-237" y="-143" on="1"/>
        <pt x="-263" y="-143" on="0"/>
        <pt x="-310" y="-170" on="0"/>
        <pt x="-345" y="-213" on="0"/>
        <pt x="-366" y="-266" on="0"/>
        <pt x="-366" y="-292" on="1"/>
        <pt x="-366" y="-351" on="0"/>
        <pt x="-404" y="-428" on="0"/>
        <pt x="-439" y="-457" on="1"/>
        <pt x="-472" y="-411" on="1"/>
        <pt x="-448" y="-385" on="0"/>
        <pt x="-422" y="-330" on="0"/>
        <pt x="-422" y="-286" on="1"/>
        <pt x="-422" y="-255" on="0"/>
        <pt x="-442" y="-202" on="0"/>
        <pt x="-476" y="-164" on="0"/>
        <pt x="-523" y="-143" on="0"/>
        <pt x="-551" y="-143" on="1"/>
        <pt x="-579" y="-143" on="0"/>
        <pt x="-626" y="-164" on="0"/>
        <pt x="-661" y="-202" on="0"/>
        <pt x="-680" y="-255" on="0"/>
        <pt x="-680" y="-286" on="1"/>
        <pt x="-680" y="-330" on="0"/>
        <pt x="-653" y="-385" on="0"/>
        <pt x="-629" y="-411" on="1"/>
        <pt x="-662" y="-457" on="1"/>
        <pt x="-698" y="-427" on="0"/>
        <pt x="-736" y="-347" on="0"/>
        <pt x="-736" y="-286" on="1"/>
        <pt x="-736" y="-244" on="0"/>
        <pt x="-707" y="-171" on="0"/>
        <pt x="-658" y="-118" on="0"/>
        <pt x="-590" y="-88" on="0"/>
        <pt x="-551" y="-88" on="1"/>
        <pt x="-499" y="-88" on="0"/>
        <pt x="-414" y="-140" on="0"/>
        <pt x="-391" y="-188" on="1"/>
        <pt x="-368" y="-144" on="0"/>
        <pt x="-288" y="-88" on="0"/>
        <pt x="-237" y="-88" on="1"/>
        <pt x="-200" y="-88" on="0"/>
        <pt x="-134" y="-117" on="0"/>
        <pt x="-84" y="-167" on="0"/>
        <pt x="-55" y="-234" on="0"/>
      </contour>
    </TTGlyph>
    <TTGlyph name="u1000_u1001_u103B" xMin="55" yMin="-457" xMax="1095" yMax="461">
      <contour>
        <pt x="833" y="-390" on="1"/>
        <pt x="809" y="-414" on="0"/>
        <pt x="744" y="-442" on="0"/>
        <pt x="706" y="-442" on="1"/>
        <pt x="667" y="-442" on="0"/>
        <pt x="602" y="-415" on="0"/>
        <pt x="554" y="-374" on="0"/>
        <pt x="527" y="-325" on="0"/>
        <pt x="527" y="-304" on="1"/>
        <pt x="563" y="-278" on="0"/>
        <pt x="629" y="-256" on="0"/>
        <pt x="657" y="-256" on="1"/>
        <pt x="675" y="-256" on="0"/>
        <pt x="717" y="-267" on="0"/>
        <pt x="758" y="-288" on="0"/>
        <pt x="793" y="-317" on="0"/>
        <pt x="805" y="-334" on="1"/>
        <pt x="834" y="-302" on="0"/>
        <pt x="834" y="-257" on="1"/>
        <pt x="834" y="-235" on="0"/>
        <pt x="817" y="-189" on="0"/>
        <pt x="784" y="-152" on="0"/>
        <pt x="736" y="-129" on="0"/>
        <pt x="706" y="-129" on="1"/>
        <pt x="671" y="-129" on="0"/>
        <pt x="606" y="-164" on="0"/>
        <pt x="583" y="-203" on="1"/>
        <pt x="536" y="-176" on="1"/>
        <pt x="549" y="-148" on="0"/>
        <pt x="590" y="-108" on="0"/>
        <pt x="637" y="-83" on="0"/>
        <pt x="685" y="-72" on="0"/>
        <pt x="706" y="-72" on="1"/>
        <pt x="746" y="-72" on="0"/>
        <pt x="813" y="-103" on="0"/>
        <pt x="862" y="-154" on="0"/>
        <pt x="889" y="-221" on="0"/>
        <pt x="889" y="-257" on="1"/>
        <pt x="889" y="-294" on="0"/>
        <pt x="873" y="-325" on="1"/>
        <pt x="1024" y="-364" on="1"/>
        <pt x="1024" y="444" on="1"/>
        <pt x="1095" y="444" on="1"/>
        <pt x="1095" y="-457" on="1"/>
      </contour>
      <contour>
        <pt x="938" y="222" on="1"/>
        <pt x="938" y="172" on="0"/>
        <pt x="901" y="85" on="0"/>
        <pt x="836" y="20" on="0"/>
        <pt x="750" y="-18" on="0"/>
        <pt x="702" y="-18" on="1"/>
        <pt x="688" y="-18" on="0"/>
        <pt x="648" y="-11" on="0"/>
        <pt x="631" y="-4" on="1"/>
        <pt x="659" y="62" on="1"/>
        <pt x="670" y="60" on="0"/>
        <pt x="691" y="54" on="0"/>
        <pt x="702" y="54" on="1"/>
        <pt x="736" y="54" on="0"/>
        <pt x="796" y="81" on="0"/>
        <pt x="840" y="126" on="0"/>
        <pt x="866" y="187" on="0"/>
        <pt x="866" y="222" on="1"/>
        <pt x="866" y="256" on="0"/>
        <pt x="840" y="317" on="0"/>
        <pt x="796" y="363" on="0"/>
        <pt x="736" y="390" on="0"/>
        <pt x="702" y="390" on="1"/>
        <pt x="668" y="390" on="0"/>
        <pt x="608" y="354" on="0"/>
        <pt x="562" y="298" on="0"/>
        <pt x="534" y="230" on="0"/>
        <pt x="534" y="197" on="1"/>
        <pt x="533" y="120" on="0"/>
        <pt x="485" y="20" on="0"/>
        <pt x="439" y="-18" on="1"/>
        <pt x="397" y="42" on="1"/>
        <pt x="428" y="74" on="0"/>
        <pt x="462" y="147" on="0"/>
        <pt x="462" y="204" on="1"/>
        <pt x="462" y="243" on="0"/>
        <pt x="437" y="310" on="0"/>
        <pt x="392" y="360" on="0"/>
        <pt x="331" y="388" on="0"/>
        <pt x="295" y="388" on="1"/>
        <pt x="259" y="388" on="0"/>
        <pt x="197" y="360" on="0"/>
        <pt x="152" y="310" on="0"/>
        <pt x="127" y="243" on="0"/>
        <pt x="127" y="204" on="1"/>
        <pt x="127" y="147" on="0"/>
        <pt x="162" y="74" on="0"/>
        <pt x="192" y="42" on="1"/>
        <pt x="150" y="-18" on="1"/>
        <pt x="104" y="20" on="0"/>
        <pt x="55" y="124" on="0"/>
        <pt x="55" y="204" on="1"/>
        <pt x="55" y="259" on="0"/>
        <pt x="92" y="353" on="0"/>
        <pt x="157" y="422" on="0"/>
        <pt x="245" y="460" on="0"/>
        <pt x="295" y="460" on="1"/>
        <pt x="363" y="460" on="0"/>
        <pt x="472" y="391" on="0"/>
        <pt x="502" y="331" on="1"/>
        <pt x="517" y="358" on="0"/>
        <pt x="559" y="405" on="0"/>
        <pt x="610" y="441" on="0"/>
        <pt x="670" y="461" on="0"/>
        <pt x="702" y="461" on="1"/>
        <pt x="750" y="461" on="0"/>
        <pt x="836" y="423" on="0"/>
        <pt x="901" y="358" on="0"/>
        <pt x="938" y="271" on="0"/>
      </contour>
      <contour>
        <pt x="742" y="-355" on="1"/>
        <pt x="726" y="-332" on="0"/>
        <pt x="671" y="-304" on="0"/>
        <pt x="638" y="-306" on="1"/>
        <pt x="633" y="-316" on="0"/>
        <pt x="625" y="-329" on="0"/>
        <pt x="618" y="-336" on="1"/>
        <pt x="634" y="-360" on="0"/>
        <pt x="693" y="-383" on="0"/>
        <pt x="723" y="-381" on="1"/>
        <pt x="731" y="-375" on="0"/>
        <pt x="740" y="-360" on="0"/>
      </contour>
    </TTGlyph>
    <TTGlyph name="u1000_u103B_u1015_u103A" xMin="55" yMin="-457" xMax="1680" yMax="910">
      <contour>
        <pt x="766" y="-370" on="1"/>
        <pt x="766" y="-9" on="1"/>
        <pt x="734" y="-18" on="0"/>
        <pt x="702" y="-18" on="1"/>
        <pt x="685" y="-18" on="0"/>
        <pt x="647" y="-12" on="0"/>
        <pt x="631" y="-4" on="1"/>
        <pt x="659" y="62" on="1"/>
        <pt x="678" y="54" on="0"/>
        <pt x="702" y="54" on="1"/>
        <pt x="736" y="54" on="0"/>
        <pt x="796" y="81" on="0"/>
        <pt x="840" y="126" on="0"/>
        <pt x="866" y="187" on="0"/>
        <pt x="866" y="222" on="1"/>
        <pt x="866" y="256" on="0"/>
        <pt x="840" y="317" on="0"/>
        <pt x="796" y="363" on="0"/>
        <pt x="736" y="390" on="0"/>
        <pt x="702" y="390" on="1"/>
        <pt x="668" y="390" on="0"/>
        <pt x="607" y="354" on="0"/>
        <pt x="561" y="298" on="0"/>
        <pt x="534" y="230" on="0"/>
        <pt x="534" y="197" on="1"/>
        <pt x="533" y="119" on="0"/>
        <pt x="485" y="20" on="0"/>
        <pt x="439" y="-18" on="1"/>
        <pt x="397" y="42" on="1"/>
        <pt x="429" y="74" on="0"/>
        <pt x="462" y="147" on="0"/>
        <pt x="462" y="204" on="1"/>
        <pt x="462" y="243" on="0"/>
        <pt x="437" y="310" on="0"/>
        <pt x="392" y="359" on="0"/>
        <pt x="331" y="388" on="0"/>
        <pt x="295" y="388" on="1"/>
        <pt x="259" y="388" on="0"/>
        <pt x="197" y="359" on="0"/>
        <pt x="152" y="310" on="0"/>
        <pt x="127" y="243" on="0"/>
        <pt x="127" y="204" on="1"/>
        <pt x="127" y="147" on="0"/>
        <pt x="161" y="74" on="0"/>
        <pt x="192" y="42" on="1"/>
        <pt x="150" y="-18" on="1"/>
        <pt x="104" y="21" on="0"/>
        <pt x="55" y="124" on="0"/>
        <pt x="55" y="204" on="1"/>
        <pt x="55" y="259" on="0"/>
        <pt x="92" y="353" on="0"/>
        <pt x="157" y="422" on="0"/>
        <pt x="245" y="460" on="0"/>
        <pt x="295" y="460" on="1"/>
        <pt x="363" y="460" on="0"/>
        <pt x="471" y="391" on="0"/>
        <pt x="502" y="331" on="1"/>
        <pt x="532" y="386" on="0"/>
        <pt x="636" y="461" on="0"/>
        <pt x="702" y="461" on="1"/>
        <pt x="750" y="461" on="0"/>
        <pt x="836" y="423" on="0"/>
        <pt x="900" y="358" on="0"/>
        <pt x="938" y="271" on="0"/>
        <pt x="938" y="222" on="1"/>
        <pt x="938" y="160" on="0"/>
        <pt x="883" y="60" on="0"/>
        <pt x="837" y="28" on="1"/>
        <pt x="837" y="-313" on="1"/>
        <pt x="1034" y="-364" on="1"/>
        <pt x="1034" y="444" on="1"/>
        <pt x="1105" y="444" on="1"/>
        <pt x="1105" y="-457" on="1"/>
      </contour>
      <contour>
        <pt x="1680" y="239" on="1"/>
        <pt x="1680" y="183" on="0"/>
        <pt x="1643" y="89" on="0"/>
        <pt x="1578" y="21" on="0"/>
        <pt x="1490" y="-18" on="0"/>
        <pt x="1440" y="-18" on="1"/>
        <pt x="1390" y="-18" on="0"/>
        <pt x="1303" y="21" on="0"/>
        <pt x="1238" y="89" on="0"/>
        <pt x="1201" y="183" on="0"/>
        <pt x="1201" y="239" on="1"/>
        <pt x="1201" y="317" on="0"/>
        <pt x="1248" y="421" on="0"/>
        <pt x="1296" y="460" on="1"/>
        <pt x="1338" y="400" on="1"/>
        <pt x="1306" y="368" on="0"/>
        <pt x="1273" y="296" on="0"/>
        <pt x="1273" y="239" on="1"/>
        <pt x="1273" y="200" on="0"/>
        <pt x="1298" y="132" on="0"/>
        <pt x="1343" y="83" on="0"/>
        <pt x="1404" y="54" on="0"/>
        <pt x="1440" y="54" on="1"/>
        <pt x="1476" y="54" on="0"/>
        <pt x="1538" y="83" on="0"/>
        <pt x="1583" y="132" on="0"/>
        <pt x="1608" y="200" on="0"/>
        <pt x="1608" y="239" on="1"/>
        <pt x="1608" y="296" on="0"/>
        <pt x="1575" y="368" on="0"/>
        <pt x="1543" y="400" on="1"/>
        <pt x="1585" y="460" on="1"/>
        <pt x="1631" y="421" on="0"/>
        <pt x="1680" y="317" on="0"/>
      </contour>
      <contour>
        <pt x="1625" y="799" on="1"/>
        <pt x="1607" y="826" on="0"/>
        <pt x="1555" y="855" on="0"/>
        <pt x="1529" y="855" on="1"/>
        <pt x="1507" y="855" on="0"/>
        <pt x="1461" y="838" on="0"/>
        <pt x="1424" y="805" on="0"/>
        <pt x="1400" y="756" on="0"/>
        <pt x="1400" y="725" on="1"/>
        <pt x="1400" y="689" on="0"/>
        <pt x="1432" y="637" on="0"/>
        <pt x="1475" y="604" on="0"/>
        <pt x="1518" y="589" on="0"/>
        <pt x="1530" y="589" on="1"/>
        <pt x="1530" y="535" on="1"/>
        <pt x="1500" y="535" on="0"/>
        <pt x="1435" y="561" on="0"/>
        <pt x="1381" y="611" on="0"/>
        <pt x="1345" y="681" on="0"/>
        <pt x="1345" y="725" on="1"/>
        <pt x="1345" y="767" on="0"/>
        <pt x="1376" y="835" on="0"/>
        <pt x="1427" y="883" on="0"/>
        <pt x="1494" y="910" on="0"/>
        <pt x="1529" y="910" on="1"/>
        <pt x="1568" y="910" on="0"/>
        <pt x="1644" y="871" on="0"/>
        <pt x="1664" y="832" on="1"/>
      </contour>
    </TTGlyph>
    <TTGlyph name="u1001" xMin="56" yMin="-18" xMax="529" yMax="461">
      <contour>
        <pt x="529" y="222" on="1"/>
        <pt x="529" y="173" on="0"/>
        <pt x="493" y="86" on="0"/>
        <pt x="428" y="20" on="0"/>
        <pt x="340" y="-18" on="0"/>
        <pt x="289" y="-18" on="1"/>
        <pt x="248" y="-18" on="0"/>
        <pt x="169" y="8" on="0"/>
        <pt x="104" y="55" on="0"/>
        <pt x="60" y="122" on="0"/>
        <pt x="56" y="164" on="1"/>
        <pt x="106" y="195" on="0"/>
        <pt x="189" y="221" on="0"/>
        <pt x="223" y="221" on="1"/>
        <pt x="250" y="221" on="0"/>
        <pt x="307" y="205" on="0"/>
        <pt x="360" y="178" on="0"/>
        <pt x="405" y="142" on="0"/>
        <pt x="420" y="121" on="1"/>
        <pt x="437" y="141" on="0"/>
        <pt x="457" y="192" on="0"/>
        <pt x="457" y="222" on="1"/>
        <pt x="457" y="250" on="0"/>
        <pt x="434" y="310" on="0"/>
        <pt x="391" y="359" on="0"/>
        <pt x="328" y="390" on="0"/>
        <pt x="289" y="390" on="1"/>
        <pt x="243" y="390" on="0"/>
        <pt x="158" y="340" on="0"/>
        <pt x="130" y="292" on="1"/>
        <pt x="68" y="327" on="1"/>
        <pt x="83" y="360" on="0"/>
        <pt x="130" y="410" on="0"/>
        <pt x="189" y="444" on="0"/>
        <pt x="255" y="461" on="0"/>
        <pt x="289" y="461" on="1"/>
        <pt x="341" y="461" on="0"/>
        <pt x="430" y="421" on="0"/>
        <pt x="493" y="354" on="0"/>
        <pt x="529" y="268" on="0"/>
      </contour>
      <contour>
        <pt x="371" y="75" on="1"/>
        <pt x="350" y="110" on="0"/>
        <pt x="270" y="156" on="0"/>
        <pt x="225" y="156" on="1"/>
        <pt x="188" y="156" on="0"/>
        <pt x="137" y="136" on="1"/>
        <pt x="166" y="91" on="0"/>
        <pt x="247" y="54" on="0"/>
        <pt x="289" y="54" on="1"/>
        <pt x="313" y="54" on="0"/>
        <pt x="352" y="65" on="0"/>
      </contour>
    </TTGlyph>
    <TTGlyph name="u1001.med" xMin="-419" yMin="-457" xMax="-56" yMax="-87">
      <contour>
        <pt x="-56" y="-272" on="1"/>
        <pt x="-56" y="-311" on="0"/>
        <pt x="-85" y="-379" on="0"/>
        <pt x="-134" y="-428" on="0"/>
        <pt x="-201" y="-457" on="0"/>
        <pt x="-239" y="-457" on="1"/>
        <pt x="-277" y="-457" on="0"/>
        <pt x="-342" y="-431" on="0"/>
        <pt x="-391" y="-389" on="0"/>
        <pt x="-419" y="-339" on="0"/>
        <pt x="-419" y="-315" on="1"/>
        <pt x="-385" y="-292" on="0"/>
        <pt x="-318" y="-272" on="0"/>
        <pt x="-289" y="-272" on="1"/>
        <pt x="-270" y="-272" on="0"/>
        <pt x="-228" y="-282" on="0"/>
        <pt x="-189" y="-302" on="0"/>
        <pt x="-154" y="-331" on="0"/>
        <pt x="-141" y="-349" on="1"/>
        <pt x="-111" y="-318" on="0"/>
        <pt x="-111" y="-273" on="1"/>
        <pt x="-111" y="-247" on="0"/>
        <pt x="-130" y="-200" on="0"/>
        <pt x="-165" y="-164" on="0"/>
        <pt x="-212" y="-143" on="0"/>
        <pt x="-239" y="-143" on="1"/>
        <pt x="-275" y="-143" on="0"/>
        <pt x="-342" y="-181" on="0"/>
        <pt x="-363" y="-218" on="1"/>
        <pt x="-409" y="-191" on="1"/>
        <pt x="-397" y="-166" on="0"/>
        <pt x="-360" y="-127" on="0"/>
        <pt x="-314" y="-100" on="0"/>
        <pt x="-264" y="-87" on="0"/>
        <pt x="-239" y="-87" on="1"/>
        <pt x="-199" y="-87" on="0"/>
        <pt x="-132" y="-118" on="0"/>
        <pt x="-83" y="-169" on="0"/>
        <pt x="-56" y="-236" on="0"/>
      </contour>
      <contour>
        <pt x="-204" y="-370" on="1"/>
        <pt x="-208" y="-347" on="0"/>
        <pt x="-238" y="-327" on="0"/>
        <pt x="-261" y="-333" on="1"/>
        <pt x="-278" y="-335" on="0"/>
        <pt x="-310" y="-345" on="0"/>
        <pt x="-327" y="-352" on="1"/>
        <pt x="-322" y="-376" on="0"/>
        <pt x="-288" y="-395" on="0"/>
        <pt x="-269" y="-385" on="1"/>
        <pt x="-252" y="-383" on="0"/>
        <pt x="-218" y="-375" on="0"/>
      </contour>
    </TTGlyph>
    <TTGlyph name="u1002" xMin="55" yMin="-18" xMax="535" yMax="460">
      <contour>
        <pt x="535" y="204" on="1"/>
        <pt x="535" y="124" on="0"/>
        <pt x="486" y="21" on="0"/>
        <pt x="439" y="-18" on="1"/>
        <pt x="397" y="42" on="1"/>
        <pt x="429" y="74" on="0"/>
        <pt x="462" y="147" on="0"/>
        <pt x="462" y="204" on="1"/>
        <pt x="462" y="243" on="0"/>
        <pt x="437" y="310" on="0"/>
        <pt x="392" y="359" on="0"/>
        <pt x="331" y="388" on="0"/>
        <pt x="295" y="388" on="1"/>
        <pt x="259" y="388" on="0"/>
        <pt x="197" y="359" on="0"/>
        <pt x="152" y="310" on="0"/>
        <pt x="127" y="243" on="0"/>
        <pt x="127" y="204" on="1"/>
        <pt x="127" y="147" on="0"/>
        <pt x="161" y="74" on="0"/>
        <pt x="192" y="42" on="1"/>
        <pt x="150" y="-18" on="1"/>
        <pt x="104" y="21" on="0"/>
        <pt x="55" y="124" on="0"/>
        <pt x="55" y="204" on="1"/>
        <pt x="55" y="259" on="0"/>
        <pt x="92" y="353" on="0"/>
        <pt x="157" y="422" on="0"/>
        <pt x="245" y="460" on="0"/>
        <pt x="295" y="460" on="1"/>
        <pt x="343" y="460" on="0"/>
        <pt x="430" y="423" on="0"/>
        <pt x="496" y="356" on="0"/>
        <pt x="535" y="262" on="0"/>
      </contour>
    </TTGlyph>
    <TTGlyph name="u1002.kham" xMin="55" yMin="-18" xMax="535" yMax="460">
      <contour>
        <pt x="535" y="204" on="1"/>
        <pt x="535" y="125" on="0"/>
        <pt x="487" y="22" on="0"/>
        <pt x="439" y="-18" on="1"/>
        <pt x="397" y="42" on="1"/>
        <pt x="429" y="74" on="0"/>
        <pt x="462" y="147" on="0"/>
        <pt x="462" y="204" on="1"/>
        <pt x="462" y="243" on="0"/>
        <pt x="437" y="310" on="0"/>
        <pt x="392" y="359" on="0"/>
        <pt x="331" y="388" on="0"/>
        <pt x="295" y="388" on="1"/>
        <pt x="261" y="388" on="0"/>
        <pt x="200" y="361" on="0"/>
        <pt x="154" y="312" on="0"/>
        <pt x="127" y="244" on="0"/>
        <pt x="127" y="204" on="1"/>
        <pt x="127" y="161" on="0"/>
        <pt x="139" y="125" on="1"/>
        <pt x="157" y="143" on="0"/>
        <pt x="180" y="143" on="1"/>
        <pt x="196" y="143" on="0"/>
        <pt x="225" y="130" on="0"/>
        <pt x="247" y="107" on="0"/>
        <pt x="260" y="78" on="0"/>
        <pt x="260" y="62" on="1"/>
        <pt x="260" y="30" on="0"/>
        <pt x="213" y="-17" on="0"/>
        <pt x="180" y="-17" on="1"/>
        <pt x="156" y="-17" on="0"/>
        <pt x="110" y="17" on="0"/>
        <pt x="76" y="76" on="0"/>
        <pt x="55" y="157" on="0"/>
        <pt x="55" y="204" on="1"/>
        <pt x="55" y="259" on="0"/>
        <pt x="92" y="352" on="0"/>
        <pt x="157" y="421" on="0"/>
        <pt x="245" y="460" on="0"/>
        <pt x="295" y="460" on="1"/>
        <pt x="345" y="460" on="0"/>
        <pt x="432" y="421" on="0"/>
        <pt x="497" y="353" on="0"/>
        <pt x="535" y="259" on="0"/>
      </contour>
    </TTGlyph>
    <TTGlyph name="u1002.med" xMin="-426" yMin="-457" xMax="-56" yMax="-88">
      <contour>
        <pt x="-56" y="-286" on="1"/>
        <pt x="-56" y="-348" on="0"/>
        <pt x="-93" y="-427" on="0"/>
        <pt x="-129" y="-457" on="1"/>
        <pt x="-162" y="-411" on="1"/>
        <pt x="-137" y="-386" on="0"/>
        <pt x="-112" y="-326" on="0"/>
        <pt x="-112" y="-286" on="1"/>
        <pt x="-112" y="-259" on="0"/>
        <pt x="-130" y="-208" on="0"/>
        <pt x="-163" y="-167" on="0"/>
        <pt x="-211" y="-143" on="0"/>
        <pt x="-241" y="-143" on="1"/>
        <pt x="-269" y="-143" on="0"/>
        <pt x="-316" y="-165" on="0"/>
        <pt x="-351" y="-204" on="0"/>
        <pt x="-370" y="-255" on="0"/>
        <pt x="-370" y="-285" on="1"/>
        <pt x="-370" y="-326" on="0"/>
        <pt x="-343" y="-386" on="0"/>
        <pt x="-319" y="-411" on="1"/>
        <pt x="-352" y="-457" on="1"/>
        <pt x="-388" y="-427" on="0"/>
        <pt x="-426" y="-348" on="0"/>
        <pt x="-426" y="-286" on="1"/>
        <pt x="-426" y="-244" on="0"/>
        <pt x="-397" y="-171" on="0"/>
        <pt x="-348" y="-118" on="0"/>
        <pt x="-280" y="-88" on="0"/>
        <pt x="-241" y="-88" on="1"/>
        <pt x="-202" y="-88" on="0"/>
        <pt x="-134" y="-118" on="0"/>
        <pt x="-85" y="-171" on="0"/>
        <pt x="-56" y="-244" on="0"/>
      </contour>
    </TTGlyph>
    <TTGlyph name="u1003" xMin="55" yMin="-18" xMax="934" yMax="461">
      <contour>
        <pt x="934" y="222" on="1"/>
        <pt x="934" y="172" on="0"/>
        <pt x="896" y="85" on="0"/>
        <pt x="832" y="20" on="0"/>
        <pt x="745" y="-18" on="0"/>
        <pt x="697" y="-18" on="1"/>
        <pt x="631" y="-18" on="0"/>
        <pt x="526" y="56" on="0"/>
        <pt x="495" y="112" on="1"/>
        <pt x="464" y="51" on="0"/>
        <pt x="354" y="-18" on="0"/>
        <pt x="287" y="-18" on="1"/>
        <pt x="234" y="-18" on="0"/>
        <pt x="148" y="17" on="0"/>
        <pt x="88" y="71" on="0"/>
        <pt x="55" y="137" on="0"/>
        <pt x="55" y="167" on="1"/>
        <pt x="55" y="201" on="0"/>
        <pt x="76" y="245" on="0"/>
        <pt x="106" y="274" on="0"/>
        <pt x="143" y="293" on="0"/>
        <pt x="173" y="309" on="0"/>
        <pt x="194" y="326" on="0"/>
        <pt x="194" y="340" on="1"/>
        <pt x="194" y="369" on="0"/>
        <pt x="166" y="392" on="0"/>
        <pt x="151" y="392" on="1"/>
        <pt x="135" y="392" on="0"/>
        <pt x="114" y="371" on="0"/>
        <pt x="112" y="364" on="1"/>
        <pt x="55" y="398" on="1"/>
        <pt x="58" y="409" on="0"/>
        <pt x="77" y="431" on="0"/>
        <pt x="104" y="448" on="0"/>
        <pt x="136" y="459" on="0"/>
        <pt x="151" y="459" on="1"/>
        <pt x="172" y="459" on="0"/>
        <pt x="212" y="444" on="0"/>
        <pt x="242" y="414" on="0"/>
        <pt x="261" y="370" on="0"/>
        <pt x="261" y="340" on="1"/>
        <pt x="261" y="315" on="0"/>
        <pt x="241" y="281" on="0"/>
        <pt x="211" y="256" on="0"/>
        <pt x="177" y="237" on="0"/>
        <pt x="147" y="215" on="0"/>
        <pt x="127" y="187" on="0"/>
        <pt x="127" y="167" on="1"/>
        <pt x="127" y="157" on="0"/>
        <pt x="146" y="119" on="0"/>
        <pt x="185" y="82" on="0"/>
        <pt x="245" y="54" on="0"/>
        <pt x="287" y="54" on="1"/>
        <pt x="325" y="54" on="0"/>
        <pt x="387" y="84" on="0"/>
        <pt x="431" y="136" on="0"/>
        <pt x="455" y="207" on="0"/>
        <pt x="455" y="248" on="1"/>
        <pt x="455" y="295" on="0"/>
        <pt x="418" y="375" on="0"/>
        <pt x="390" y="400" on="1"/>
        <pt x="432" y="460" on="1"/>
        <pt x="477" y="425" on="0"/>
        <pt x="527" y="316" on="0"/>
        <pt x="527" y="238" on="1"/>
        <pt x="527" y="208" on="0"/>
        <pt x="556" y="143" on="0"/>
        <pt x="604" y="89" on="0"/>
        <pt x="665" y="54" on="0"/>
        <pt x="697" y="54" on="1"/>
        <pt x="731" y="54" on="0"/>
        <pt x="791" y="81" on="0"/>
        <pt x="836" y="126" on="0"/>
        <pt x="862" y="187" on="0"/>
        <pt x="862" y="222" on="1"/>
        <pt x="862" y="256" on="0"/>
        <pt x="836" y="317" on="0"/>
        <pt x="791" y="363" on="0"/>
        <pt x="731" y="390" on="0"/>
        <pt x="697" y="390" on="1"/>
        <pt x="687" y="390" on="0"/>
        <pt x="665" y="386" on="0"/>
        <pt x="655" y="381" on="1"/>
        <pt x="627" y="447" on="1"/>
        <pt x="642" y="455" on="0"/>
        <pt x="679" y="461" on="0"/>
        <pt x="697" y="461" on="1"/>
        <pt x="745" y="461" on="0"/>
        <pt x="832" y="423" on="0"/>
        <pt x="896" y="358" on="0"/>
        <pt x="934" y="271" on="0"/>
      </contour>
    </TTGlyph>
    <TTGlyph name="u1003.med" xMin="-732" yMin="-457" xMax="-56" yMax="-88">
      <contour>
        <pt x="-56" y="-272" on="1"/>
        <pt x="-56" y="-310" on="0"/>
        <pt x="-85" y="-378" on="0"/>
        <pt x="-134" y="-428" on="0"/>
        <pt x="-200" y="-457" on="0"/>
        <pt x="-237" y="-457" on="1"/>
        <pt x="-287" y="-457" on="0"/>
        <pt x="-368" y="-400" on="0"/>
        <pt x="-393" y="-357" on="1"/>
        <pt x="-416" y="-405" on="0"/>
        <pt x="-502" y="-457" on="0"/>
        <pt x="-553" y="-457" on="1"/>
        <pt x="-594" y="-457" on="0"/>
        <pt x="-660" y="-430" on="0"/>
        <pt x="-707" y="-388" on="0"/>
        <pt x="-732" y="-338" on="0"/>
        <pt x="-732" y="-315" on="1"/>
        <pt x="-732" y="-278" on="0"/>
        <pt x="-699" y="-238" on="0"/>
        <pt x="-658" y="-213" on="0"/>
        <pt x="-625" y="-195" on="0"/>
        <pt x="-625" y="-178" on="1"/>
        <pt x="-625" y="-157" on="0"/>
        <pt x="-646" y="-141" on="0"/>
        <pt x="-658" y="-141" on="1"/>
        <pt x="-670" y="-141" on="0"/>
        <pt x="-686" y="-154" on="0"/>
        <pt x="-688" y="-162" on="1"/>
        <pt x="-732" y="-136" on="1"/>
        <pt x="-729" y="-118" on="0"/>
        <pt x="-684" y="-89" on="0"/>
        <pt x="-658" y="-89" on="1"/>
        <pt x="-642" y="-89" on="0"/>
        <pt x="-611" y="-101" on="0"/>
        <pt x="-587" y="-124" on="0"/>
        <pt x="-573" y="-159" on="0"/>
        <pt x="-573" y="-181" on="1"/>
        <pt x="-573" y="-210" on="0"/>
        <pt x="-606" y="-241" on="0"/>
        <pt x="-645" y="-264" on="0"/>
        <pt x="-677" y="-291" on="0"/>
        <pt x="-677" y="-315" on="1"/>
        <pt x="-677" y="-323" on="0"/>
        <pt x="-662" y="-352" on="0"/>
        <pt x="-632" y="-380" on="0"/>
        <pt x="-585" y="-401" on="0"/>
        <pt x="-553" y="-401" on="1"/>
        <pt x="-524" y="-401" on="0"/>
        <pt x="-476" y="-378" on="0"/>
        <pt x="-443" y="-338" on="0"/>
        <pt x="-425" y="-284" on="0"/>
        <pt x="-425" y="-253" on="1"/>
        <pt x="-425" y="-220" on="0"/>
        <pt x="-455" y="-154" on="0"/>
        <pt x="-475" y="-135" on="1"/>
        <pt x="-441" y="-88" on="1"/>
        <pt x="-409" y="-115" on="0"/>
        <pt x="-367" y="-195" on="0"/>
        <pt x="-367" y="-259" on="1"/>
        <pt x="-367" y="-284" on="0"/>
        <pt x="-345" y="-334" on="0"/>
        <pt x="-309" y="-375" on="0"/>
        <pt x="-262" y="-401" on="0"/>
        <pt x="-237" y="-401" on="1"/>
        <pt x="-211" y="-401" on="0"/>
        <pt x="-165" y="-380" on="0"/>
        <pt x="-131" y="-345" on="0"/>
        <pt x="-111" y="-298" on="0"/>
        <pt x="-111" y="-272" on="1"/>
        <pt x="-111" y="-246" on="0"/>
        <pt x="-131" y="-199" on="0"/>
        <pt x="-165" y="-164" on="0"/>
        <pt x="-211" y="-143" on="0"/>
        <pt x="-237" y="-143" on="1"/>
        <pt x="-244" y="-143" on="0"/>
        <pt x="-261" y="-146" on="0"/>
        <pt x="-269" y="-151" on="1"/>
        <pt x="-291" y="-100" on="1"/>
        <pt x="-280" y="-92" on="0"/>
        <pt x="-252" y="-88" on="0"/>
        <pt x="-237" y="-88" on="1"/>
        <pt x="-200" y="-88" on="0"/>
        <pt x="-134" y="-117" on="0"/>
        <pt x="-85" y="-167" on="0"/>
        <pt x="-56" y="-234" on="0"/>
      </contour>
    </TTGlyph>
    <TTGlyph name="u1004" xMin="55" yMin="-18" xMax="516" yMax="461">
      <contour>
        <pt x="516" y="117" on="1"/>
        <pt x="501" y="84" on="0"/>
        <pt x="453" y="34" on="0"/>
        <pt x="394" y="0" on="0"/>
        <pt x="328" y="-18" on="0"/>
        <pt x="294" y="-18" on="1"/>
        <pt x="245" y="-18" on="0"/>
        <pt x="158" y="20" on="0"/>
        <pt x="93" y="85" on="0"/>
        <pt x="55" y="172" on="0"/>
        <pt x="55" y="222" on="1"/>
        <pt x="55" y="271" on="0"/>
        <pt x="93" y="358" on="0"/>
        <pt x="158" y="423" on="0"/>
        <pt x="245" y="461" on="0"/>
        <pt x="294" y="461" on="1"/>
        <pt x="327" y="461" on="0"/>
        <pt x="393" y="444" on="0"/>
        <pt x="452" y="410" on="0"/>
        <pt x="501" y="360" on="0"/>
        <pt x="516" y="327" on="1"/>
        <pt x="453" y="292" on="1"/>
        <pt x="426" y="340" on="0"/>
        <pt x="342" y="390" on="0"/>
        <pt x="294" y="390" on="1"/>
        <pt x="260" y="390" on="0"/>
        <pt x="199" y="363" on="0"/>
        <pt x="154" y="317" on="0"/>
        <pt x="127" y="256" on="0"/>
        <pt x="127" y="222" on="1"/>
        <pt x="127" y="187" on="0"/>
        <pt x="154" y="126" on="0"/>
        <pt x="199" y="81" on="0"/>
        <pt x="260" y="54" on="0"/>
        <pt x="294" y="54" on="1"/>
        <pt x="343" y="54" on="0"/>
        <pt x="427" y="104" on="0"/>
        <pt x="453" y="151" on="1"/>
        <pt x="516" y="117" on="1"/>
      </contour>
    </TTGlyph>
    <TTGlyph name="u1004.kham" xMin="55" yMin="-18" xMax="516" yMax="461">
      <contour>
        <pt x="516" y="117" on="1"/>
        <pt x="500" y="82" on="0"/>
        <pt x="450" y="31" on="0"/>
        <pt x="390" y="-2" on="0"/>
        <pt x="325" y="-18" on="0"/>
        <pt x="294" y="-18" on="1"/>
        <pt x="244" y="-18" on="0"/>
        <pt x="157" y="20" on="0"/>
        <pt x="93" y="85" on="0"/>
        <pt x="55" y="172" on="0"/>
        <pt x="55" y="222" on="1"/>
        <pt x="55" y="271" on="0"/>
        <pt x="93" y="358" on="0"/>
        <pt x="157" y="423" on="0"/>
        <pt x="244" y="461" on="0"/>
        <pt x="294" y="461" on="1"/>
        <pt x="343" y="461" on="0"/>
        <pt x="424" y="432" on="0"/>
        <pt x="480" y="388" on="0"/>
        <pt x="511" y="338" on="0"/>
        <pt x="511" y="316" on="1"/>
        <pt x="511" y="299" on="0"/>
        <pt x="498" y="270" on="0"/>
        <pt x="476" y="247" on="0"/>
        <pt x="447" y="234" on="0"/>
        <pt x="431" y="234" on="1"/>
        <pt x="415" y="234" on="0"/>
        <pt x="387" y="247" on="0"/>
        <pt x="365" y="270" on="0"/>
        <pt x="352" y="299" on="0"/>
        <pt x="352" y="315" on="1"/>
        <pt x="352" y="347" on="0"/>
        <pt x="378" y="365" on="1"/>
        <pt x="334" y="390" on="0"/>
        <pt x="294" y="390" on="1"/>
        <pt x="260" y="390" on="0"/>
        <pt x="199" y="363" on="0"/>
        <pt x="154" y="317" on="0"/>
        <pt x="127" y="256" on="0"/>
        <pt x="127" y="222" on="1"/>
        <pt x="127" y="187" on="0"/>
        <pt x="154" y="126" on="0"/>
        <pt x="199" y="81" on="0"/>
        <pt x="260" y="54" on="0"/>
        <pt x="294" y="54" on="1"/>
        <pt x="343" y="54" on="0"/>
        <pt x="427" y="103" on="0"/>
        <pt x="453" y="151" on="1"/>
        <pt x="516" y="117" on="1"/>
      </contour>
    </TTGlyph>
    <TTGlyph name="u1004.kinzi" xMin="-199" yMin="537" xMax="0" yMax="910">
      <contour>
        <pt x="0" y="592" on="1"/>
        <pt x="-15" y="564" on="0"/>
        <pt x="-66" y="537" on="0"/>
        <pt x="-95" y="537" on="1"/>
        <pt x="-116" y="537" on="0"/>
        <pt x="-154" y="554" on="0"/>
        <pt x="-182" y="583" on="0"/>
        <pt x="-199" y="620" on="0"/>
        <pt x="-199" y="641" on="1"/>
        <pt x="-199" y="670" on="0"/>
        <pt x="-177" y="710" on="0"/>
        <pt x="-157" y="724" on="1"/>
        <pt x="-177" y="738" on="0"/>
        <pt x="-199" y="777" on="0"/>
        <pt x="-199" y="806" on="1"/>
        <pt x="-199" y="828" on="0"/>
        <pt x="-183" y="866" on="0"/>
        <pt x="-154" y="894" on="0"/>
        <pt x="-116" y="910" on="0"/>
        <pt x="-95" y="910" on="1"/>
        <pt x="-63" y="910" on="0"/>
        <pt x="-24" y="882" on="0"/>
        <pt x="-13" y="862" on="1"/>
        <pt x="-53" y="831" on="1"/>
        <pt x="-60" y="844" on="0"/>
        <pt x="-79" y="859" on="0"/>
        <pt x="-96" y="859" on="1"/>
        <pt x="-117" y="859" on="0"/>
        <pt x="-149" y="829" on="0"/>
        <pt x="-149" y="806" on="1"/>
        <pt x="-149" y="783" on="0"/>
        <pt x="-116" y="747" on="0"/>
        <pt x="-96" y="747" on="1"/>
        <pt x="-67" y="747" on="0"/>
        <pt x="-15" y="717" on="0"/>
        <pt x="0" y="691" on="1"/>
        <pt x="-42" y="668" on="1"/>
        <pt x="-53" y="682" on="0"/>
        <pt x="-77" y="697" on="0"/>
        <pt x="-94" y="697" on="1"/>
        <pt x="-113" y="697" on="0"/>
        <pt x="-148" y="666" on="0"/>
        <pt x="-148" y="641" on="1"/>
        <pt x="-148" y="619" on="0"/>
        <pt x="-114" y="587" on="0"/>
        <pt x="-94" y="587" on="1"/>
        <pt x="-77" y="587" on="0"/>
        <pt x="-53" y="602" on="0"/>
        <pt x="-42" y="616" on="1"/>
        <pt x="0" y="592" on="1"/>
      </contour>
    </TTGlyph>
    <TTGlyph name="u1004.kinzi_u102D" xMin="-598" yMin="537" xMax="0" yMax="910">
      <contour>
        <pt x="0" y="724" on="1"/>
        <pt x="0" y="686" on="0"/>
        <pt x="-28" y="619" on="0"/>
        <pt x="-77" y="568" on="0"/>
        <pt x="-143" y="539" on="0"/>
        <pt x="-180" y="539" on="1"/>
        <pt x="-217" y="539" on="0"/>
        <pt x="-283" y="568" on="0"/>
        <pt x="-332" y="619" on="0"/>
        <pt x="-361" y="686" on="0"/>
        <pt x="-361" y="724" on="1"/>
        <pt x="-361" y="762" on="0"/>
        <pt x="-332" y="829" on="0"/>
        <pt x="-283" y="880" on="0"/>
        <pt x="-218" y="909" on="0"/>
        <pt x="-181" y="909" on="1"/>
        <pt x="-143" y="909" on="0"/>
        <pt x="-77" y="880" on="0"/>
        <pt x="-28" y="829" on="0"/>
        <pt x="0" y="762" on="0"/>
      </contour>
      <contour>
        <pt x="-55" y="724" on="1"/>
        <pt x="-55" y="750" on="0"/>
        <pt x="-75" y="797" on="0"/>
        <pt x="-109" y="832" on="0"/>
        <pt x="-154" y="853" on="0"/>
        <pt x="-180" y="853" on="1"/>
        <pt x="-206" y="853" on="0"/>
        <pt x="-252" y="832" on="0"/>
        <pt x="-286" y="797" on="0"/>
        <pt x="-306" y="750" on="0"/>
        <pt x="-306" y="724" on="1"/>
        <pt x="-306" y="698" on="0"/>
        <pt x="-286" y="651" on="0"/>
        <pt x="-252" y="616" on="0"/>
        <pt x="-207" y="595" on="0"/>
        <pt x="-181" y="595" on="1"/>
        <pt x="-155" y="595" on="0"/>
        <pt x="-109" y="616" on="0"/>
        <pt x="-75" y="651" on="0"/>
        <pt x="-55" y="698" on="0"/>
      </contour>
      <contour>
        <pt x="-399" y="592" on="1"/>
        <pt x="-414" y="564" on="0"/>
        <pt x="-465" y="537" on="0"/>
        <pt x="-494" y="537" on="1"/>
        <pt x="-515" y="537" on="0"/>
        <pt x="-553" y="554" on="0"/>
        <pt x="-581" y="583" on="0"/>
        <pt x="-598" y="620" on="0"/>
        <pt x="-598" y="641" on="1"/>
        <pt x="-598" y="670" on="0"/>
        <pt x="-576" y="710" on="0"/>
        <pt x="-556" y="724" on="1"/>
        <pt x="-576" y="738" on="0"/>
        <pt x="-598" y="777" on="0"/>
        <pt x="-598" y="806" on="1"/>
        <pt x="-598" y="828" on="0"/>
        <pt x="-582" y="866" on="0"/>
        <pt x="-553" y="894" on="0"/>
        <pt x="-515" y="910" on="0"/>
        <pt x="-494" y="910" on="1"/>
        <pt x="-462" y="910" on="0"/>
        <pt x="-423" y="882" on="0"/>
        <pt x="-412" y="862" on="1"/>
        <pt x="-452" y="831" on="1"/>
        <pt x="-459" y="844" on="0"/>
        <pt x="-478" y="859" on="0"/>
        <pt x="-495" y="859" on="1"/>
        <pt x="-516" y="859" on="0"/>
        <pt x="-548" y="829" on="0"/>
        <pt x="-548" y="806" on="1"/>
        <pt x="-548" y="783" on="0"/>
        <pt x="-515" y="747" on="0"/>
        <pt x="-495" y="747" on="1"/>
        <pt x="-466" y="747" on="0"/>
        <pt x="-414" y="717" on="0"/>
        <pt x="-399" y="691" on="1"/>
        <pt x="-441" y="668" on="1"/>
        <pt x="-452" y="682" on="0"/>
        <pt x="-476" y="697" on="0"/>
        <pt x="-493" y="697" on="1"/>
        <pt x="-512" y="697" on="0"/>
        <pt x="-547" y="666" on="0"/>
        <pt x="-547" y="641" on="1"/>
        <pt x="-547" y="619" on="0"/>
        <pt x="-513" y="587" on="0"/>
        <pt x="-493" y="587" on="1"/>
        <pt x="-476" y="587" on="0"/>
        <pt x="-452" y="602" on="0"/>
        <pt x="-441" y="616" on="1"/>
      </contour>
    </TTGlyph>
    <TTGlyph name="u1004.kinzi_u102D_u1036" xMin="-786" yMin="537" xMax="0" yMax="910">
      <contour>
        <pt x="-188" y="724" on="1"/>
        <pt x="-188" y="686" on="0"/>
        <pt x="-216" y="619" on="0"/>
        <pt x="-265" y="568" on="0"/>
        <pt x="-331" y="539" on="0"/>
        <pt x="-368" y="539" on="1"/>
        <pt x="-405" y="539" on="0"/>
        <pt x="-471" y="568" on="0"/>
        <pt x="-520" y="619" on="0"/>
        <pt x="-549" y="686" on="0"/>
        <pt x="-549" y="724" on="1"/>
        <pt x="-549" y="762" on="0"/>
        <pt x="-520" y="829" on="0"/>
        <pt x="-471" y="880" on="0"/>
        <pt x="-406" y="909" on="0"/>
        <pt x="-369" y="909" on="1"/>
        <pt x="-332" y="909" on="0"/>
        <pt x="-266" y="880" on="0"/>
        <pt x="-216" y="829" on="0"/>
        <pt x="-188" y="762" on="0"/>
      </contour>
      <contour>
        <pt x="-243" y="724" on="1"/>
        <pt x="-243" y="750" on="0"/>
        <pt x="-263" y="797" on="0"/>
        <pt x="-297" y="832" on="0"/>
        <pt x="-342" y="853" on="0"/>
        <pt x="-368" y="853" on="1"/>
        <pt x="-394" y="853" on="0"/>
        <pt x="-440" y="832" on="0"/>
        <pt x="-474" y="797" on="0"/>
        <pt x="-494" y="750" on="0"/>
        <pt x="-494" y="724" on="1"/>
        <pt x="-494" y="698" on="0"/>
        <pt x="-474" y="651" on="0"/>
        <pt x="-440" y="616" on="0"/>
        <pt x="-395" y="595" on="0"/>
        <pt x="-369" y="595" on="1"/>
        <pt x="-343" y="595" on="0"/>
        <pt x="-297" y="616" on="0"/>
        <pt x="-263" y="651" on="0"/>
        <pt x="-243" y="698" on="0"/>
      </contour>
      <contour>
        <pt x="0" y="638" on="1"/>
        <pt x="0" y="620" on="0"/>
        <pt x="-14" y="588" on="0"/>
        <pt x="-38" y="564" on="0"/>
        <pt x="-69" y="550" on="0"/>
        <pt x="-87" y="550" on="1"/>
        <pt x="-105" y="550" on="0"/>
        <pt x="-136" y="564" on="0"/>
        <pt x="-160" y="588" on="0"/>
        <pt x="-174" y="620" on="0"/>
        <pt x="-174" y="638" on="1"/>
        <pt x="-174" y="656" on="0"/>
        <pt x="-160" y="687" on="0"/>
        <pt x="-136" y="710" on="0"/>
        <pt x="-105" y="724" on="0"/>
        <pt x="-87" y="724" on="1"/>
        <pt x="-69" y="724" on="0"/>
        <pt x="-38" y="710" on="0"/>
        <pt x="-14" y="687" on="0"/>
        <pt x="0" y="656" on="0"/>
      </contour>
      <contour>
        <pt x="-41" y="638" on="1"/>
        <pt x="-41" y="656" on="0"/>
        <pt x="-68" y="682" on="0"/>
        <pt x="-87" y="682" on="1"/>
        <pt x="-107" y="682" on="0"/>
        <pt x="-133" y="656" on="0"/>
        <pt x="-133" y="638" on="1"/>
        <pt x="-133" y="618" on="0"/>
        <pt x="-107" y="590" on="0"/>
        <pt x="-87" y="590" on="1"/>
        <pt x="-68" y="590" on="0"/>
        <pt x="-41" y="618" on="0"/>
      </contour>
      <contour>
        <pt x="-587" y="592" on="1"/>
        <pt x="-602" y="564" on="0"/>
        <pt x="-654" y="537" on="0"/>
        <pt x="-683" y="537" on="1"/>
        <pt x="-704" y="537" on="0"/>
        <pt x="-741" y="554" on="0"/>
        <pt x="-769" y="583" on="0"/>
        <pt x="-786" y="620" on="0"/>
        <pt x="-786" y="641" on="1"/>
        <pt x="-786" y="670" on="0"/>
        <pt x="-764" y="710" on="0"/>
        <pt x="-745" y="724" on="1"/>
        <pt x="-764" y="739" on="0"/>
        <pt x="-786" y="778" on="0"/>
        <pt x="-786" y="807" on="1"/>
        <pt x="-786" y="829" on="0"/>
        <pt x="-770" y="866" on="0"/>
        <pt x="-741" y="894" on="0"/>
        <pt x="-703" y="910" on="0"/>
        <pt x="-682" y="910" on="1"/>
        <pt x="-650" y="910" on="0"/>
        <pt x="-611" y="882" on="0"/>
        <pt x="-601" y="862" on="1"/>
        <pt x="-640" y="831" on="1"/>
        <pt x="-648" y="845" on="0"/>
        <pt x="-667" y="860" on="0"/>
        <pt x="-683" y="860" on="1"/>
        <pt x="-704" y="860" on="0"/>
        <pt x="-736" y="830" on="0"/>
        <pt x="-736" y="807" on="1"/>
        <pt x="-736" y="783" on="0"/>
        <pt x="-702" y="747" on="0"/>
        <pt x="-683" y="747" on="1"/>
        <pt x="-654" y="747" on="0"/>
        <pt x="-602" y="717" on="0"/>
        <pt x="-587" y="691" on="1"/>
        <pt x="-629" y="668" on="1"/>
        <pt x="-640" y="682" on="0"/>
        <pt x="-664" y="697" on="0"/>
        <pt x="-681" y="697" on="1"/>
        <pt x="-700" y="697" on="0"/>
        <pt x="-735" y="666" on="0"/>
        <pt x="-735" y="642" on="1"/>
        <pt x="-735" y="619" on="0"/>
        <pt x="-701" y="588" on="0"/>
        <pt x="-681" y="588" on="1"/>
        <pt x="-664" y="588" on="0"/>
        <pt x="-641" y="602" on="0"/>
        <pt x="-629" y="616" on="1"/>
      </contour>
    </TTGlyph>
    <TTGlyph name="u1004.kinzi_u102E" xMin="-598" yMin="537" xMax="0" yMax="910">
      <contour>
        <pt x="0" y="723" on="1"/>
        <pt x="0" y="685" on="0"/>
        <pt x="-28" y="618" on="0"/>
        <pt x="-77" y="568" on="0"/>
        <pt x="-143" y="540" on="0"/>
        <pt x="-180" y="540" on="1"/>
        <pt x="-217" y="540" on="0"/>
        <pt x="-283" y="569" on="0"/>
        <pt x="-332" y="619" on="0"/>
        <pt x="-361" y="686" on="0"/>
        <pt x="-361" y="725" on="1"/>
        <pt x="-361" y="763" on="0"/>
        <pt x="-332" y="831" on="0"/>
        <pt x="-283" y="881" on="0"/>
        <pt x="-218" y="910" on="0"/>
        <pt x="-181" y="910" on="1"/>
        <pt x="-143" y="910" on="0"/>
        <pt x="-77" y="880" on="0"/>
        <pt x="-28" y="829" on="0"/>
        <pt x="0" y="761" on="0"/>
      </contour>
      <contour>
        <pt x="-61" y="692" on="1"/>
        <pt x="-55" y="708" on="0"/>
        <pt x="-55" y="729" on="1"/>
        <pt x="-56" y="754" on="0"/>
        <pt x="-76" y="799" on="0"/>
        <pt x="-110" y="834" on="0"/>
        <pt x="-155" y="854" on="0"/>
        <pt x="-180" y="854" on="1"/>
        <pt x="-205" y="854" on="0"/>
        <pt x="-250" y="834" on="0"/>
        <pt x="-285" y="799" on="0"/>
        <pt x="-305" y="753" on="0"/>
        <pt x="-306" y="728" on="1"/>
        <pt x="-306" y="711" on="0"/>
        <pt x="-299" y="691" on="1"/>
        <pt x="-270" y="717" on="0"/>
        <pt x="-209" y="736" on="0"/>
        <pt x="-180" y="736" on="1"/>
        <pt x="-152" y="736" on="0"/>
        <pt x="-88" y="718" on="0"/>
      </contour>
      <contour>
        <pt x="-79" y="647" on="1"/>
        <pt x="-103" y="672" on="0"/>
        <pt x="-160" y="690" on="0"/>
        <pt x="-180" y="690" on="1"/>
        <pt x="-199" y="690" on="0"/>
        <pt x="-254" y="672" on="0"/>
        <pt x="-280" y="647" on="1"/>
        <pt x="-263" y="625" on="0"/>
        <pt x="-210" y="595" on="0"/>
        <pt x="-181" y="595" on="1"/>
        <pt x="-149" y="595" on="0"/>
        <pt x="-96" y="622" on="0"/>
      </contour>
      <contour>
        <pt x="-399" y="592" on="1"/>
        <pt x="-414" y="564" on="0"/>
        <pt x="-465" y="537" on="0"/>
        <pt x="-494" y="537" on="1"/>
        <pt x="-515" y="537" on="0"/>
        <pt x="-553" y="554" on="0"/>
        <pt x="-581" y="583" on="0"/>
        <pt x="-598" y="620" on="0"/>
        <pt x="-598" y="641" on="1"/>
        <pt x="-598" y="670" on="0"/>
        <pt x="-576" y="710" on="0"/>
        <pt x="-556" y="724" on="1"/>
        <pt x="-576" y="739" on="0"/>
        <pt x="-598" y="778" on="0"/>
        <pt x="-598" y="807" on="1"/>
        <pt x="-598" y="829" on="0"/>
        <pt x="-582" y="866" on="0"/>
        <pt x="-553" y="894" on="0"/>
        <pt x="-515" y="910" on="0"/>
        <pt x="-494" y="910" on="1"/>
        <pt x="-462" y="910" on="0"/>
        <pt x="-423" y="882" on="0"/>
        <pt x="-412" y="862" on="1"/>
        <pt x="-452" y="831" on="1"/>
        <pt x="-459" y="845" on="0"/>
        <pt x="-478" y="860" on="0"/>
        <pt x="-495" y="860" on="1"/>
        <pt x="-516" y="860" on="0"/>
        <pt x="-548" y="830" on="0"/>
        <pt x="-548" y="807" on="1"/>
        <pt x="-548" y="795" on="0"/>
        <pt x="-538" y="774" on="0"/>
        <pt x="-523" y="757" on="0"/>
        <pt x="-504" y="747" on="0"/>
        <pt x="-495" y="747" on="1"/>
        <pt x="-466" y="747" on="0"/>
        <pt x="-414" y="717" on="0"/>
        <pt x="-399" y="691" on="1"/>
        <pt x="-441" y="668" on="1"/>
        <pt x="-452" y="682" on="0"/>
        <pt x="-476" y="697" on="0"/>
        <pt x="-493" y="697" on="1"/>
        <pt x="-512" y="697" on="0"/>
        <pt x="-547" y="666" on="0"/>
        <pt x="-547" y="642" on="1"/>
        <pt x="-547" y="619" on="0"/>
        <pt x="-513" y="588" on="0"/>
        <pt x="-493" y="588" on="1"/>
        <pt x="-476" y="588" on="0"/>
        <pt x="-452" y="602" on="0"/>
        <pt x="-441" y="616" on="1"/>
      </contour>
    </TTGlyph>
    <TTGlyph name="u1004.kinzi_u1032" xMin="-598" yMin="537" xMax="0" yMax="910">
      <contour>
        <pt x="-33" y="590" on="1"/>
        <pt x="-334" y="829" on="1"/>
        <pt x="-302" y="874" on="1"/>
        <pt x="0" y="634" on="1"/>
      </contour>
      <contour>
        <pt x="-399" y="592" on="1"/>
        <pt x="-414" y="564" on="0"/>
        <pt x="-465" y="537" on="0"/>
        <pt x="-494" y="537" on="1"/>
        <pt x="-515" y="537" on="0"/>
        <pt x="-553" y="554" on="0"/>
        <pt x="-581" y="583" on="0"/>
        <pt x="-598" y="620" on="0"/>
        <pt x="-598" y="641" on="1"/>
        <pt x="-598" y="670" on="0"/>
        <pt x="-576" y="710" on="0"/>
        <pt x="-556" y="724" on="1"/>
        <pt x="-576" y="739" on="0"/>
        <pt x="-598" y="778" on="0"/>
        <pt x="-598" y="807" on="1"/>
        <pt x="-598" y="829" on="0"/>
        <pt x="-582" y="866" on="0"/>
        <pt x="-553" y="894" on="0"/>
        <pt x="-515" y="910" on="0"/>
        <pt x="-494" y="910" on="1"/>
        <pt x="-462" y="910" on="0"/>
        <pt x="-423" y="882" on="0"/>
        <pt x="-412" y="862" on="1"/>
        <pt x="-452" y="831" on="1"/>
        <pt x="-459" y="845" on="0"/>
        <pt x="-478" y="860" on="0"/>
        <pt x="-495" y="860" on="1"/>
        <pt x="-516" y="860" on="0"/>
        <pt x="-548" y="830" on="0"/>
        <pt x="-548" y="807" on="1"/>
        <pt x="-548" y="795" on="0"/>
        <pt x="-538" y="774" on="0"/>
        <pt x="-523" y="757" on="0"/>
        <pt x="-504" y="747" on="0"/>
        <pt x="-495" y="747" on="1"/>
        <pt x="-466" y="747" on="0"/>
        <pt x="-414" y="717" on="0"/>
        <pt x="-399" y="691" on="1"/>
        <pt x="-441" y="668" on="1"/>
        <pt x="-452" y="682" on="0"/>
        <pt x="-476" y="697" on="0"/>
        <pt x="-493" y="697" on="1"/>
        <pt x="-512" y="697" on="0"/>
        <pt x="-547" y="666" on="0"/>
        <pt x="-547" y="642" on="1"/>
        <pt x="-547" y="619" on="0"/>
        <pt x="-513" y="588" on="0"/>
        <pt x="-493" y="588" on="1"/>
        <pt x="-476" y="588" on="0"/>
        <pt x="-452" y="602" on="0"/>
        <pt x="-441" y="616" on="1"/>
      </contour>
    </TTGlyph>
    <TTGlyph name="u1004.kinzi_u1033" xMin="-598" yMin="537" xMax="0" yMax="910">
      <contour>
        <pt x="0" y="725" on="1"/>
        <pt x="0" y="687" on="0"/>
        <pt x="-28" y="619" on="0"/>
        <pt x="-77" y="569" on="0"/>
        <pt x="-142" y="540" on="0"/>
        <pt x="-179" y="540" on="1"/>
        <pt x="-217" y="540" on="0"/>
        <pt x="-283" y="569" on="0"/>
        <pt x="-333" y="619" on="0"/>
        <pt x="-361" y="687" on="0"/>
        <pt x="-361" y="725" on="1"/>
        <pt x="-361" y="762" on="0"/>
        <pt x="-333" y="829" on="0"/>
        <pt x="-284" y="880" on="0"/>
        <pt x="-219" y="909" on="0"/>
        <pt x="-182" y="909" on="1"/>
        <pt x="-144" y="909" on="0"/>
        <pt x="-77" y="880" on="0"/>
        <pt x="-28" y="829" on="0"/>
        <pt x="0" y="762" on="0"/>
      </contour>
      <contour>
        <pt x="-55" y="725" on="1"/>
        <pt x="-55" y="751" on="0"/>
        <pt x="-74" y="798" on="0"/>
        <pt x="-108" y="833" on="0"/>
        <pt x="-153" y="854" on="0"/>
        <pt x="-179" y="854" on="1"/>
        <pt x="-206" y="854" on="0"/>
        <pt x="-252" y="833" on="0"/>
        <pt x="-286" y="798" on="0"/>
        <pt x="-306" y="751" on="0"/>
        <pt x="-306" y="725" on="1"/>
        <pt x="-306" y="698" on="0"/>
        <pt x="-286" y="651" on="0"/>
        <pt x="-253" y="616" on="0"/>
        <pt x="-208" y="595" on="0"/>
        <pt x="-182" y="595" on="1"/>
        <pt x="-155" y="595" on="0"/>
        <pt x="-109" y="616" on="0"/>
        <pt x="-74" y="651" on="0"/>
        <pt x="-55" y="698" on="0"/>
      </contour>
      <contour>
        <pt x="-100" y="725" on="1"/>
        <pt x="-100" y="693" on="0"/>
        <pt x="-142" y="642" on="0"/>
        <pt x="-179" y="642" on="1"/>
        <pt x="-193" y="642" on="0"/>
        <pt x="-221" y="653" on="0"/>
        <pt x="-244" y="675" on="0"/>
        <pt x="-259" y="705" on="0"/>
        <pt x="-259" y="725" on="1"/>
        <pt x="-259" y="744" on="0"/>
        <pt x="-244" y="774" on="0"/>
        <pt x="-221" y="795" on="0"/>
        <pt x="-193" y="807" on="0"/>
        <pt x="-179" y="807" on="1"/>
        <pt x="-164" y="807" on="0"/>
        <pt x="-136" y="795" on="0"/>
        <pt x="-114" y="774" on="0"/>
        <pt x="-100" y="744" on="0"/>
      </contour>
      <contour>
        <pt x="-141" y="725" on="1"/>
        <pt x="-141" y="741" on="0"/>
        <pt x="-163" y="764" on="0"/>
        <pt x="-179" y="764" on="1"/>
        <pt x="-195" y="764" on="0"/>
        <pt x="-217" y="741" on="0"/>
        <pt x="-217" y="725" on="1"/>
        <pt x="-217" y="708" on="0"/>
        <pt x="-195" y="685" on="0"/>
        <pt x="-179" y="685" on="1"/>
        <pt x="-163" y="685" on="0"/>
        <pt x="-141" y="708" on="0"/>
      </contour>
      <contour>
        <pt x="-399" y="592" on="1"/>
        <pt x="-414" y="564" on="0"/>
        <pt x="-465" y="537" on="0"/>
        <pt x="-494" y="537" on="1"/>
        <pt x="-515" y="537" on="0"/>
        <pt x="-553" y="554" on="0"/>
        <pt x="-581" y="583" on="0"/>
        <pt x="-598" y="620" on="0"/>
        <pt x="-598" y="641" on="1"/>
        <pt x="-598" y="670" on="0"/>
        <pt x="-576" y="710" on="0"/>
        <pt x="-556" y="724" on="1"/>
        <pt x="-576" y="739" on="0"/>
        <pt x="-598" y="778" on="0"/>
        <pt x="-598" y="807" on="1"/>
        <pt x="-598" y="829" on="0"/>
        <pt x="-582" y="866" on="0"/>
        <pt x="-553" y="894" on="0"/>
        <pt x="-515" y="910" on="0"/>
        <pt x="-494" y="910" on="1"/>
        <pt x="-462" y="910" on="0"/>
        <pt x="-423" y="882" on="0"/>
        <pt x="-412" y="862" on="1"/>
        <pt x="-452" y="831" on="1"/>
        <pt x="-459" y="845" on="0"/>
        <pt x="-478" y="860" on="0"/>
        <pt x="-495" y="860" on="1"/>
        <pt x="-516" y="860" on="0"/>
        <pt x="-548" y="830" on="0"/>
        <pt x="-548" y="807" on="1"/>
        <pt x="-548" y="795" on="0"/>
        <pt x="-539" y="774" on="0"/>
        <pt x="-524" y="757" on="0"/>
        <pt x="-505" y="747" on="0"/>
        <pt x="-495" y="747" on="1"/>
        <pt x="-466" y="747" on="0"/>
        <pt x="-414" y="717" on="0"/>
        <pt x="-399" y="691" on="1"/>
        <pt x="-441" y="668" on="1"/>
        <pt x="-452" y="682" on="0"/>
        <pt x="-476" y="697" on="0"/>
        <pt x="-493" y="697" on="1"/>
        <pt x="-512" y="697" on="0"/>
        <pt x="-547" y="666" on="0"/>
        <pt x="-547" y="642" on="1"/>
        <pt x="-547" y="619" on="0"/>
        <pt x="-513" y="588" on="0"/>
        <pt x="-493" y="588" on="1"/>
        <pt x="-476" y="588" on="0"/>
        <pt x="-452" y="602" on="0"/>
        <pt x="-441" y="616" on="1"/>
      </contour>
    </TTGlyph>
    <TTGlyph name="u1004.kinzi_u1036" xMin="-388" yMin="538" xMax="0" yMax="910">
      <contour>
        <pt x="0" y="678" on="1"/>
        <pt x="0" y="660" on="0"/>
        <pt x="-14" y="628" on="0"/>
        <pt x="-38" y="604" on="0"/>
        <pt x="-69" y="590" on="0"/>
        <pt x="-87" y="590" on="1"/>
        <pt x="-105" y="590" on="0"/>
        <pt x="-136" y="604" on="0"/>
        <pt x="-160" y="628" on="0"/>
        <pt x="-174" y="660" on="0"/>
        <pt x="-174" y="678" on="1"/>
        <pt x="-174" y="695" on="0"/>
        <pt x="-160" y="726" on="0"/>
        <pt x="-136" y="750" on="0"/>
        <pt x="-105" y="764" on="0"/>
        <pt x="-87" y="764" on="1"/>
        <pt x="-69" y="764" on="0"/>
        <pt x="-38" y="750" on="0"/>
        <pt x="-14" y="726" on="0"/>
        <pt x="0" y="695" on="0"/>
      </contour>
      <contour>
        <pt x="-41" y="678" on="1"/>
        <pt x="-41" y="695" on="0"/>
        <pt x="-68" y="722" on="0"/>
        <pt x="-87" y="722" on="1"/>
        <pt x="-107" y="722" on="0"/>
        <pt x="-133" y="695" on="0"/>
        <pt x="-133" y="678" on="1"/>
        <pt x="-133" y="658" on="0"/>
        <pt x="-107" y="630" on="0"/>
        <pt x="-87" y="630" on="1"/>
        <pt x="-68" y="630" on="0"/>
        <pt x="-41" y="657" on="0"/>
      </contour>
      <contour>
        <pt x="-189" y="592" on="1"/>
        <pt x="-203" y="564" on="0"/>
        <pt x="-255" y="538" on="0"/>
        <pt x="-284" y="538" on="1"/>
        <pt x="-305" y="538" on="0"/>
        <pt x="-342" y="555" on="0"/>
        <pt x="-371" y="584" on="0"/>
        <pt x="-388" y="621" on="0"/>
        <pt x="-388" y="642" on="1"/>
        <pt x="-388" y="670" on="0"/>
        <pt x="-365" y="710" on="0"/>
        <pt x="-346" y="724" on="1"/>
        <pt x="-365" y="739" on="0"/>
        <pt x="-388" y="778" on="0"/>
        <pt x="-388" y="807" on="1"/>
        <pt x="-388" y="829" on="0"/>
        <pt x="-372" y="866" on="0"/>
        <pt x="-343" y="894" on="0"/>
        <pt x="-305" y="910" on="0"/>
        <pt x="-284" y="910" on="1"/>
        <pt x="-251" y="910" on="0"/>
        <pt x="-213" y="882" on="0"/>
        <pt x="-202" y="862" on="1"/>
        <pt x="-241" y="832" on="1"/>
        <pt x="-249" y="845" on="0"/>
        <pt x="-268" y="860" on="0"/>
        <pt x="-285" y="860" on="1"/>
        <pt x="-306" y="860" on="0"/>
        <pt x="-337" y="830" on="0"/>
        <pt x="-337" y="807" on="1"/>
        <pt x="-337" y="784" on="0"/>
        <pt x="-305" y="748" on="0"/>
        <pt x="-285" y="748" on="1"/>
        <pt x="-256" y="748" on="0"/>
        <pt x="-204" y="717" on="0"/>
        <pt x="-189" y="691" on="1"/>
        <pt x="-231" y="669" on="1"/>
        <pt x="-242" y="683" on="0"/>
        <pt x="-266" y="698" on="0"/>
        <pt x="-283" y="698" on="1"/>
        <pt x="-302" y="698" on="0"/>
        <pt x="-337" y="667" on="0"/>
        <pt x="-337" y="642" on="1"/>
        <pt x="-337" y="619" on="0"/>
        <pt x="-303" y="588" on="0"/>
        <pt x="-283" y="588" on="1"/>
        <pt x="-266" y="588" on="0"/>
        <pt x="-242" y="602" on="0"/>
        <pt x="-231" y="616" on="1"/>
      </contour>
    </TTGlyph>
    <TTGlyph name="u1004.kinzi_u103A" xMin="-598" yMin="535" xMax="0" yMax="910">
      <contour>
        <pt x="-40" y="799" on="1"/>
        <pt x="-57" y="826" on="0"/>
        <pt x="-109" y="855" on="0"/>
        <pt x="-136" y="855" on="1"/>
        <pt x="-158" y="855" on="0"/>
        <pt x="-204" y="838" on="0"/>
        <pt x="-241" y="805" on="0"/>
        <pt x="-264" y="756" on="0"/>
        <pt x="-264" y="725" on="1"/>
        <pt x="-264" y="689" on="0"/>
        <pt x="-233" y="637" on="0"/>
        <pt x="-191" y="604" on="0"/>
        <pt x="-147" y="589" on="0"/>
        <pt x="-134" y="589" on="1"/>
        <pt x="-134" y="535" on="1"/>
        <pt x="-164" y="535" on="0"/>
        <pt x="-229" y="561" on="0"/>
        <pt x="-283" y="611" on="0"/>
        <pt x="-319" y="681" on="0"/>
        <pt x="-319" y="725" on="1"/>
        <pt x="-319" y="767" on="0"/>
        <pt x="-288" y="835" on="0"/>
        <pt x="-237" y="883" on="0"/>
        <pt x="-172" y="910" on="0"/>
        <pt x="-137" y="910" on="1"/>
        <pt x="-96" y="910" on="0"/>
        <pt x="-21" y="871" on="0"/>
        <pt x="0" y="832" on="1"/>
      </contour>
      <contour>
        <pt x="-399" y="592" on="1"/>
        <pt x="-414" y="564" on="0"/>
        <pt x="-465" y="537" on="0"/>
        <pt x="-494" y="537" on="1"/>
        <pt x="-515" y="537" on="0"/>
        <pt x="-553" y="554" on="0"/>
        <pt x="-581" y="583" on="0"/>
        <pt x="-598" y="620" on="0"/>
        <pt x="-598" y="641" on="1"/>
        <pt x="-598" y="670" on="0"/>
        <pt x="-576" y="710" on="0"/>
        <pt x="-556" y="724" on="1"/>
        <pt x="-576" y="739" on="0"/>
        <pt x="-598" y="778" on="0"/>
        <pt x="-598" y="807" on="1"/>
        <pt x="-598" y="829" on="0"/>
        <pt x="-582" y="866" on="0"/>
        <pt x="-553" y="894" on="0"/>
        <pt x="-515" y="910" on="0"/>
        <pt x="-494" y="910" on="1"/>
        <pt x="-462" y="910" on="0"/>
        <pt x="-423" y="882" on="0"/>
        <pt x="-412" y="862" on="1"/>
        <pt x="-452" y="831" on="1"/>
        <pt x="-459" y="845" on="0"/>
        <pt x="-478" y="860" on="0"/>
        <pt x="-495" y="860" on="1"/>
        <pt x="-516" y="860" on="0"/>
        <pt x="-548" y="830" on="0"/>
        <pt x="-548" y="807" on="1"/>
        <pt x="-548" y="795" on="0"/>
        <pt x="-539" y="774" on="0"/>
        <pt x="-524" y="757" on="0"/>
        <pt x="-505" y="747" on="0"/>
        <pt x="-495" y="747" on="1"/>
        <pt x="-466" y="747" on="0"/>
        <pt x="-414" y="717" on="0"/>
        <pt x="-399" y="691" on="1"/>
        <pt x="-441" y="668" on="1"/>
        <pt x="-452" y="682" on="0"/>
        <pt x="-476" y="697" on="0"/>
        <pt x="-493" y="697" on="1"/>
        <pt x="-512" y="697" on="0"/>
        <pt x="-547" y="666" on="0"/>
        <pt x="-547" y="642" on="1"/>
        <pt x="-547" y="619" on="0"/>
        <pt x="-513" y="588" on="0"/>
        <pt x="-493" y="588" on="1"/>
        <pt x="-476" y="588" on="0"/>
        <pt x="-452" y="602" on="0"/>
        <pt x="-441" y="616" on="1"/>
      </contour>
    </TTGlyph>
    <TTGlyph name="u1004.med" xMin="-406" yMin="-457" xMax="-49" yMax="-88">
      <contour>
        <pt x="-49" y="-356" on="1"/>
        <pt x="-75" y="-409" on="0"/>
        <pt x="-167" y="-457" on="0"/>
        <pt x="-221" y="-457" on="1"/>
        <pt x="-259" y="-457" on="0"/>
        <pt x="-326" y="-428" on="0"/>
        <pt x="-377" y="-377" on="0"/>
        <pt x="-406" y="-310" on="0"/>
        <pt x="-406" y="-272" on="1"/>
        <pt x="-406" y="-234" on="0"/>
        <pt x="-377" y="-167" on="0"/>
        <pt x="-326" y="-117" on="0"/>
        <pt x="-259" y="-88" on="0"/>
        <pt x="-221" y="-88" on="1"/>
        <pt x="-167" y="-88" on="0"/>
        <pt x="-75" y="-136" on="0"/>
        <pt x="-49" y="-189" on="1"/>
        <pt x="-96" y="-217" on="1"/>
        <pt x="-116" y="-181" on="0"/>
        <pt x="-181" y="-142" on="0"/>
        <pt x="-219" y="-142" on="1"/>
        <pt x="-246" y="-142" on="0"/>
        <pt x="-294" y="-163" on="0"/>
        <pt x="-330" y="-199" on="0"/>
        <pt x="-351" y="-246" on="0"/>
        <pt x="-351" y="-272" on="1"/>
        <pt x="-351" y="-298" on="0"/>
        <pt x="-330" y="-345" on="0"/>
        <pt x="-295" y="-380" on="0"/>
        <pt x="-247" y="-401" on="0"/>
        <pt x="-220" y="-401" on="1"/>
        <pt x="-182" y="-401" on="0"/>
        <pt x="-117" y="-365" on="0"/>
        <pt x="-96" y="-327" on="1"/>
        <pt x="-49" y="-356" on="1"/>
      </contour>
    </TTGlyph>
    <TTGlyph name="u1005" xMin="55" yMin="-18" xMax="525" yMax="461">
      <contour>
        <pt x="525" y="222" on="1"/>
        <pt x="525" y="172" on="0"/>
        <pt x="488" y="85" on="0"/>
        <pt x="425" y="20" on="0"/>
        <pt x="340" y="-18" on="0"/>
        <pt x="291" y="-18" on="1"/>
        <pt x="241" y="-18" on="0"/>
        <pt x="155" y="20" on="0"/>
        <pt x="92" y="85" on="0"/>
        <pt x="55" y="172" on="0"/>
        <pt x="55" y="222" on="1"/>
        <pt x="55" y="271" on="0"/>
        <pt x="92" y="358" on="0"/>
        <pt x="155" y="423" on="0"/>
        <pt x="240" y="461" on="0"/>
        <pt x="289" y="461" on="1"/>
        <pt x="339" y="461" on="0"/>
        <pt x="425" y="423" on="0"/>
        <pt x="489" y="358" on="0"/>
        <pt x="525" y="271" on="0"/>
      </contour>
      <contour>
        <pt x="453" y="222" on="1"/>
        <pt x="453" y="255" on="0"/>
        <pt x="428" y="316" on="0"/>
        <pt x="385" y="362" on="0"/>
        <pt x="328" y="389" on="0"/>
        <pt x="295" y="390" on="1"/>
        <pt x="282" y="390" on="0"/>
        <pt x="259" y="385" on="0"/>
        <pt x="248" y="380" on="1"/>
        <pt x="283" y="342" on="0"/>
        <pt x="309" y="260" on="0"/>
        <pt x="309" y="222" on="1"/>
        <pt x="309" y="184" on="0"/>
        <pt x="283" y="101" on="0"/>
        <pt x="248" y="63" on="1"/>
        <pt x="259" y="59" on="0"/>
        <pt x="282" y="54" on="0"/>
        <pt x="293" y="54" on="1"/>
        <pt x="326" y="55" on="0"/>
        <pt x="385" y="82" on="0"/>
        <pt x="428" y="128" on="0"/>
        <pt x="453" y="188" on="0"/>
      </contour>
      <contour>
        <pt x="244" y="222" on="1"/>
        <pt x="244" y="248" on="0"/>
        <pt x="221" y="318" on="0"/>
        <pt x="189" y="352" on="1"/>
        <pt x="161" y="329" on="0"/>
        <pt x="127" y="260" on="0"/>
        <pt x="127" y="222" on="1"/>
        <pt x="127" y="181" on="0"/>
        <pt x="159" y="115" on="0"/>
        <pt x="188" y="92" on="1"/>
        <pt x="220" y="125" on="0"/>
        <pt x="244" y="195" on="0"/>
      </contour>
    </TTGlyph>
    <TTGlyph name="u1005.med" xMin="-416" yMin="-457" xMax="-55" yMax="-87">
      <contour>
        <pt x="-55" y="-272" on="1"/>
        <pt x="-55" y="-311" on="0"/>
        <pt x="-83" y="-378" on="0"/>
        <pt x="-132" y="-428" on="0"/>
        <pt x="-198" y="-457" on="0"/>
        <pt x="-235" y="-457" on="1"/>
        <pt x="-273" y="-457" on="0"/>
        <pt x="-338" y="-428" on="0"/>
        <pt x="-388" y="-378" on="0"/>
        <pt x="-416" y="-311" on="0"/>
        <pt x="-416" y="-272" on="1"/>
        <pt x="-416" y="-234" on="0"/>
        <pt x="-388" y="-166" on="0"/>
        <pt x="-339" y="-116" on="0"/>
        <pt x="-273" y="-87" on="0"/>
        <pt x="-236" y="-87" on="1"/>
        <pt x="-199" y="-87" on="0"/>
        <pt x="-133" y="-116" on="0"/>
        <pt x="-83" y="-166" on="0"/>
        <pt x="-55" y="-234" on="0"/>
      </contour>
      <contour>
        <pt x="-110" y="-272" on="1"/>
        <pt x="-110" y="-246" on="0"/>
        <pt x="-129" y="-200" on="0"/>
        <pt x="-162" y="-164" on="0"/>
        <pt x="-207" y="-143" on="0"/>
        <pt x="-232" y="-143" on="1"/>
        <pt x="-251" y="-143" on="0"/>
        <pt x="-267" y="-149" on="1"/>
        <pt x="-240" y="-179" on="0"/>
        <pt x="-221" y="-243" on="0"/>
        <pt x="-221" y="-272" on="1"/>
        <pt x="-221" y="-301" on="0"/>
        <pt x="-243" y="-366" on="0"/>
        <pt x="-269" y="-395" on="1"/>
        <pt x="-251" y="-401" on="0"/>
        <pt x="-232" y="-401" on="1"/>
        <pt x="-207" y="-401" on="0"/>
        <pt x="-162" y="-380" on="0"/>
        <pt x="-129" y="-344" on="0"/>
        <pt x="-110" y="-298" on="0"/>
      </contour>
      <contour>
        <pt x="-267" y="-272" on="1"/>
        <pt x="-267" y="-252" on="0"/>
        <pt x="-286" y="-196" on="0"/>
        <pt x="-310" y="-170" on="1"/>
        <pt x="-333" y="-187" on="0"/>
        <pt x="-361" y="-240" on="0"/>
        <pt x="-361" y="-272" on="1"/>
        <pt x="-361" y="-304" on="0"/>
        <pt x="-334" y="-357" on="0"/>
        <pt x="-311" y="-373" on="1"/>
        <pt x="-287" y="-347" on="0"/>
        <pt x="-267" y="-293" on="0"/>
      </contour>
    </TTGlyph>
    <TTGlyph name="u1006" xMin="56" yMin="-18" xMax="927" yMax="461">
      <contour>
        <pt x="927" y="222" on="1"/>
        <pt x="927" y="172" on="0"/>
        <pt x="890" y="85" on="0"/>
        <pt x="825" y="20" on="0"/>
        <pt x="740" y="-18" on="0"/>
        <pt x="692" y="-18" on="1"/>
        <pt x="627" y="-18" on="0"/>
        <pt x="522" y="46" on="0"/>
        <pt x="492" y="98" on="1"/>
        <pt x="462" y="46" on="0"/>
        <pt x="355" y="-18" on="0"/>
        <pt x="289" y="-18" on="1"/>
        <pt x="251" y="-18" on="0"/>
        <pt x="171" y="7" on="0"/>
        <pt x="104" y="55" on="0"/>
        <pt x="59" y="123" on="0"/>
        <pt x="56" y="166" on="1"/>
        <pt x="104" y="193" on="0"/>
        <pt x="185" y="221" on="0"/>
        <pt x="223" y="221" on="1"/>
        <pt x="276" y="221" on="0"/>
        <pt x="382" y="170" on="0"/>
        <pt x="419" y="122" on="1"/>
        <pt x="436" y="142" on="0"/>
        <pt x="456" y="192" on="0"/>
        <pt x="456" y="222" on="1"/>
        <pt x="456" y="250" on="0"/>
        <pt x="433" y="310" on="0"/>
        <pt x="390" y="359" on="0"/>
        <pt x="328" y="390" on="0"/>
        <pt x="289" y="390" on="1"/>
        <pt x="244" y="390" on="0"/>
        <pt x="160" y="342" on="0"/>
        <pt x="129" y="292" on="1"/>
        <pt x="68" y="327" on="1"/>
        <pt x="82" y="359" on="0"/>
        <pt x="129" y="409" on="0"/>
        <pt x="187" y="443" on="0"/>
        <pt x="254" y="461" on="0"/>
        <pt x="289" y="461" on="1"/>
        <pt x="356" y="461" on="0"/>
        <pt x="462" y="396" on="0"/>
        <pt x="492" y="345" on="1"/>
        <pt x="522" y="398" on="0"/>
        <pt x="627" y="461" on="0"/>
        <pt x="692" y="461" on="1"/>
        <pt x="740" y="461" on="0"/>
        <pt x="826" y="423" on="0"/>
        <pt x="890" y="358" on="0"/>
        <pt x="927" y="271" on="0"/>
      </contour>
      <contour>
        <pt x="855" y="222" on="1"/>
        <pt x="855" y="256" on="0"/>
        <pt x="829" y="317" on="0"/>
        <pt x="785" y="363" on="0"/>
        <pt x="726" y="390" on="0"/>
        <pt x="692" y="390" on="1"/>
        <pt x="658" y="390" on="0"/>
        <pt x="598" y="363" on="0"/>
        <pt x="554" y="317" on="0"/>
        <pt x="528" y="256" on="0"/>
        <pt x="528" y="222" on="1"/>
        <pt x="528" y="187" on="0"/>
        <pt x="554" y="126" on="0"/>
        <pt x="599" y="81" on="0"/>
        <pt x="659" y="54" on="0"/>
        <pt x="692" y="54" on="1"/>
        <pt x="726" y="54" on="0"/>
        <pt x="786" y="81" on="0"/>
        <pt x="830" y="126" on="0"/>
        <pt x="855" y="187" on="0"/>
      </contour>
      <contour>
        <pt x="371" y="75" on="1"/>
        <pt x="348" y="110" on="0"/>
        <pt x="272" y="156" on="0"/>
        <pt x="226" y="156" on="1"/>
        <pt x="185" y="156" on="0"/>
        <pt x="137" y="135" on="1"/>
        <pt x="166" y="90" on="0"/>
        <pt x="247" y="54" on="0"/>
        <pt x="289" y="54" on="1"/>
        <pt x="312" y="54" on="0"/>
        <pt x="352" y="65" on="0"/>
      </contour>
    </TTGlyph>
    <TTGlyph name="u1006.med" xMin="-726" yMin="-457" xMax="-55" yMax="-87">
      <contour>
        <pt x="-55" y="-272" on="1"/>
        <pt x="-55" y="-311" on="0"/>
        <pt x="-84" y="-378" on="0"/>
        <pt x="-133" y="-428" on="0"/>
        <pt x="-199" y="-457" on="0"/>
        <pt x="-236" y="-457" on="1"/>
        <pt x="-286" y="-457" on="0"/>
        <pt x="-366" y="-407" on="0"/>
        <pt x="-390" y="-368" on="1"/>
        <pt x="-413" y="-407" on="0"/>
        <pt x="-496" y="-457" on="0"/>
        <pt x="-547" y="-457" on="1"/>
        <pt x="-579" y="-457" on="0"/>
        <pt x="-641" y="-435" on="0"/>
        <pt x="-691" y="-397" on="0"/>
        <pt x="-723" y="-345" on="0"/>
        <pt x="-726" y="-315" on="1"/>
        <pt x="-653" y="-271" on="0"/>
        <pt x="-597" y="-271" on="1"/>
        <pt x="-578" y="-271" on="0"/>
        <pt x="-535" y="-282" on="0"/>
        <pt x="-494" y="-303" on="0"/>
        <pt x="-459" y="-331" on="0"/>
        <pt x="-447" y="-349" on="1"/>
        <pt x="-417" y="-315" on="0"/>
        <pt x="-417" y="-272" on="1"/>
        <pt x="-417" y="-250" on="0"/>
        <pt x="-435" y="-204" on="0"/>
        <pt x="-468" y="-167" on="0"/>
        <pt x="-516" y="-143" on="0"/>
        <pt x="-547" y="-143" on="1"/>
        <pt x="-579" y="-143" on="0"/>
        <pt x="-644" y="-178" on="0"/>
        <pt x="-668" y="-218" on="1"/>
        <pt x="-717" y="-191" on="1"/>
        <pt x="-704" y="-163" on="0"/>
        <pt x="-663" y="-124" on="0"/>
        <pt x="-616" y="-99" on="0"/>
        <pt x="-568" y="-87" on="0"/>
        <pt x="-547" y="-87" on="1"/>
        <pt x="-496" y="-87" on="0"/>
        <pt x="-413" y="-138" on="0"/>
        <pt x="-390" y="-177" on="1"/>
        <pt x="-367" y="-137" on="0"/>
        <pt x="-286" y="-87" on="0"/>
        <pt x="-236" y="-87" on="1"/>
        <pt x="-199" y="-87" on="0"/>
        <pt x="-133" y="-116" on="0"/>
        <pt x="-83" y="-166" on="0"/>
        <pt x="-55" y="-234" on="0"/>
      </contour>
      <contour>
        <pt x="-110" y="-272" on="1"/>
        <pt x="-110" y="-246" on="0"/>
        <pt x="-130" y="-199" on="0"/>
        <pt x="-164" y="-164" on="0"/>
        <pt x="-210" y="-143" on="0"/>
        <pt x="-236" y="-143" on="1"/>
        <pt x="-263" y="-143" on="0"/>
        <pt x="-309" y="-164" on="0"/>
        <pt x="-343" y="-199" on="0"/>
        <pt x="-362" y="-246" on="0"/>
        <pt x="-362" y="-272" on="1"/>
        <pt x="-362" y="-298" on="0"/>
        <pt x="-342" y="-345" on="0"/>
        <pt x="-308" y="-380" on="0"/>
        <pt x="-262" y="-401" on="0"/>
        <pt x="-236" y="-401" on="1"/>
        <pt x="-210" y="-401" on="0"/>
        <pt x="-164" y="-380" on="0"/>
        <pt x="-130" y="-345" on="0"/>
        <pt x="-110" y="-298" on="0"/>
      </contour>
      <contour>
        <pt x="-480" y="-384" on="1"/>
        <pt x="-496" y="-356" on="0"/>
        <pt x="-560" y="-319" on="0"/>
        <pt x="-597" y="-319" on="1"/>
        <pt x="-628" y="-319" on="0"/>
        <pt x="-665" y="-336" on="1"/>
        <pt x="-645" y="-370" on="0"/>
        <pt x="-578" y="-401" on="0"/>
        <pt x="-546" y="-401" on="1"/>
        <pt x="-528" y="-401" on="0"/>
        <pt x="-495" y="-392" on="0"/>
      </contour>
    </TTGlyph>
    <TTGlyph name="u1007" xMin="55" yMin="-18" xMax="581" yMax="461">
      <contour>
        <pt x="527" y="115" on="1"/>
        <pt x="516" y="134" on="0"/>
        <pt x="489" y="181" on="0"/>
        <pt x="477" y="200" on="1"/>
        <pt x="459" y="174" on="0"/>
        <pt x="400" y="148" on="0"/>
        <pt x="369" y="148" on="1"/>
        <pt x="348" y="148" on="0"/>
        <pt x="309" y="160" on="0"/>
        <pt x="280" y="184" on="0"/>
        <pt x="262" y="218" on="0"/>
        <pt x="262" y="241" on="1"/>
        <pt x="262" y="280" on="0"/>
        <pt x="310" y="339" on="0"/>
        <pt x="358" y="343" on="1"/>
        <pt x="380" y="343" on="0"/>
        <pt x="401" y="333" on="1"/>
        <pt x="389" y="356" on="0"/>
        <pt x="337" y="391" on="0"/>
        <pt x="292" y="391" on="1"/>
        <pt x="258" y="391" on="0"/>
        <pt x="198" y="363" on="0"/>
        <pt x="153" y="316" on="0"/>
        <pt x="127" y="255" on="0"/>
        <pt x="127" y="222" on="1"/>
        <pt x="127" y="186" on="0"/>
        <pt x="152" y="125" on="0"/>
        <pt x="196" y="80" on="0"/>
        <pt x="255" y="54" on="0"/>
        <pt x="290" y="54" on="1"/>
        <pt x="332" y="54" on="0"/>
        <pt x="391" y="79" on="0"/>
        <pt x="419" y="103" on="1"/>
        <pt x="468" y="50" on="1"/>
        <pt x="432" y="17" on="0"/>
        <pt x="353" y="-18" on="0"/>
        <pt x="290" y="-18" on="1"/>
        <pt x="240" y="-18" on="0"/>
        <pt x="154" y="20" on="0"/>
        <pt x="91" y="85" on="0"/>
        <pt x="55" y="172" on="0"/>
        <pt x="55" y="222" on="1"/>
        <pt x="55" y="270" on="0"/>
        <pt x="93" y="357" on="0"/>
        <pt x="157" y="423" on="0"/>
        <pt x="242" y="461" on="0"/>
        <pt x="290" y="461" on="1"/>
        <pt x="332" y="461" on="0"/>
        <pt x="405" y="436" on="0"/>
        <pt x="461" y="390" on="0"/>
        <pt x="495" y="324" on="0"/>
        <pt x="498" y="283" on="1"/>
        <pt x="522" y="256" on="0"/>
        <pt x="564" y="186" on="0"/>
        <pt x="581" y="154" on="1"/>
      </contour>
      <contour>
        <pt x="434" y="256" on="1"/>
        <pt x="419" y="270" on="0"/>
        <pt x="389" y="283" on="0"/>
        <pt x="367" y="283" on="1"/>
        <pt x="348" y="283" on="0"/>
        <pt x="324" y="263" on="0"/>
        <pt x="324" y="241" on="1"/>
        <pt x="324" y="225" on="0"/>
        <pt x="352" y="210" on="0"/>
        <pt x="369" y="210" on="1"/>
        <pt x="392" y="210" on="0"/>
        <pt x="431" y="230" on="0"/>
      </contour>
    </TTGlyph>
    <TTGlyph name="u1007.med" xMin="-462" yMin="-457" xMax="-56" yMax="-87">
      <contour>
        <pt x="-98" y="-355" on="1"/>
        <pt x="-105" y="-342" on="0"/>
        <pt x="-130" y="-300" on="0"/>
        <pt x="-137" y="-289" on="1"/>
        <pt x="-151" y="-309" on="0"/>
        <pt x="-196" y="-329" on="0"/>
        <pt x="-220" y="-329" on="1"/>
        <pt x="-252" y="-329" on="0"/>
        <pt x="-303" y="-293" on="0"/>
        <pt x="-303" y="-257" on="1"/>
        <pt x="-303" y="-226" on="0"/>
        <pt x="-265" y="-181" on="0"/>
        <pt x="-228" y="-179" on="1"/>
        <pt x="-213" y="-179" on="0"/>
        <pt x="-195" y="-187" on="1"/>
        <pt x="-204" y="-170" on="0"/>
        <pt x="-245" y="-143" on="0"/>
        <pt x="-280" y="-143" on="1"/>
        <pt x="-306" y="-143" on="0"/>
        <pt x="-353" y="-164" on="0"/>
        <pt x="-387" y="-200" on="0"/>
        <pt x="-407" y="-247" on="0"/>
        <pt x="-407" y="-272" on="1"/>
        <pt x="-407" y="-299" on="0"/>
        <pt x="-388" y="-347" on="0"/>
        <pt x="-353" y="-381" on="0"/>
        <pt x="-307" y="-401" on="0"/>
        <pt x="-280" y="-401" on="1"/>
        <pt x="-248" y="-401" on="0"/>
        <pt x="-204" y="-384" on="0"/>
        <pt x="-181" y="-364" on="1"/>
        <pt x="-143" y="-405" on="1"/>
        <pt x="-171" y="-431" on="0"/>
        <pt x="-233" y="-457" on="0"/>
        <pt x="-281" y="-457" on="1"/>
        <pt x="-319" y="-457" on="0"/>
        <pt x="-385" y="-428" on="0"/>
        <pt x="-434" y="-378" on="0"/>
        <pt x="-462" y="-311" on="0"/>
        <pt x="-462" y="-272" on="1"/>
        <pt x="-462" y="-235" on="0"/>
        <pt x="-433" y="-167" on="0"/>
        <pt x="-383" y="-117" on="0"/>
        <pt x="-317" y="-87" on="0"/>
        <pt x="-280" y="-87" on="1"/>
        <pt x="-247" y="-87" on="0"/>
        <pt x="-191" y="-106" on="0"/>
        <pt x="-148" y="-142" on="0"/>
        <pt x="-122" y="-193" on="0"/>
        <pt x="-120" y="-224" on="1"/>
        <pt x="-103" y="-244" on="0"/>
        <pt x="-71" y="-296" on="0"/>
        <pt x="-56" y="-325" on="1"/>
      </contour>
      <contour>
        <pt x="-170" y="-245" on="1"/>
        <pt x="-182" y="-233" on="0"/>
        <pt x="-205" y="-225" on="0"/>
        <pt x="-222" y="-225" on="1"/>
        <pt x="-255" y="-225" on="0"/>
        <pt x="-255" y="-257" on="1"/>
        <pt x="-255" y="-268" on="0"/>
        <pt x="-235" y="-281" on="0"/>
        <pt x="-220" y="-281" on="1"/>
        <pt x="-202" y="-281" on="0"/>
        <pt x="-174" y="-265" on="0"/>
      </contour>
    </TTGlyph>
    <TTGlyph name="u1008" xMin="55" yMin="-457" xMax="692" yMax="462">
      <contour>
        <pt x="345" y="-371" on="1"/>
        <pt x="345" y="-10" on="1"/>
        <pt x="320" y="-17" on="0"/>
        <pt x="292" y="-17" on="1"/>
        <pt x="242" y="-17" on="0"/>
        <pt x="156" y="21" on="0"/>
        <pt x="92" y="85" on="0"/>
        <pt x="55" y="172" on="0"/>
        <pt x="55" y="222" on="1"/>
        <pt x="55" y="271" on="0"/>
        <pt x="92" y="358" on="0"/>
        <pt x="155" y="424" on="0"/>
        <pt x="241" y="462" on="0"/>
        <pt x="289" y="462" on="1"/>
        <pt x="339" y="462" on="0"/>
        <pt x="425" y="424" on="0"/>
        <pt x="489" y="358" on="0"/>
        <pt x="525" y="271" on="0"/>
        <pt x="525" y="222" on="1"/>
        <pt x="525" y="157" on="0"/>
        <pt x="467" y="52" on="0"/>
        <pt x="418" y="20" on="1"/>
        <pt x="418" y="-314" on="1"/>
        <pt x="620" y="-364" on="1"/>
        <pt x="620" y="451" on="1"/>
        <pt x="692" y="451" on="1"/>
        <pt x="692" y="-457" on="1"/>
      </contour>
      <contour>
        <pt x="453" y="222" on="1"/>
        <pt x="453" y="256" on="0"/>
        <pt x="428" y="317" on="0"/>
        <pt x="385" y="363" on="0"/>
        <pt x="327" y="390" on="0"/>
        <pt x="294" y="390" on="1"/>
        <pt x="282" y="390" on="0"/>
        <pt x="260" y="385" on="0"/>
        <pt x="249" y="381" on="1"/>
        <pt x="283" y="343" on="0"/>
        <pt x="309" y="259" on="0"/>
        <pt x="309" y="222" on="1"/>
        <pt x="309" y="185" on="0"/>
        <pt x="282" y="101" on="0"/>
        <pt x="248" y="63" on="1"/>
        <pt x="267" y="54" on="0"/>
        <pt x="292" y="54" on="1"/>
        <pt x="326" y="55" on="0"/>
        <pt x="384" y="83" on="0"/>
        <pt x="428" y="128" on="0"/>
        <pt x="453" y="188" on="0"/>
      </contour>
      <contour>
        <pt x="244" y="222" on="1"/>
        <pt x="244" y="248" on="0"/>
        <pt x="221" y="319" on="0"/>
        <pt x="189" y="353" on="1"/>
        <pt x="160" y="330" on="0"/>
        <pt x="127" y="262" on="0"/>
        <pt x="127" y="222" on="1"/>
        <pt x="127" y="182" on="0"/>
        <pt x="159" y="115" on="0"/>
        <pt x="187" y="92" on="1"/>
        <pt x="219" y="126" on="0"/>
        <pt x="244" y="196" on="0"/>
      </contour>
    </TTGlyph>
    <TTGlyph name="u1008.med" xMin="-401" yMin="-457" xMax="127" yMax="444">
      <contour>
        <pt x="-104" y="-397" on="1"/>
        <pt x="-128" y="-417" on="0"/>
        <pt x="-186" y="-442" on="0"/>
        <pt x="-220" y="-442" on="1"/>
        <pt x="-258" y="-442" on="0"/>
        <pt x="-323" y="-413" on="0"/>
        <pt x="-373" y="-362" on="0"/>
        <pt x="-401" y="-295" on="0"/>
        <pt x="-401" y="-257" on="1"/>
        <pt x="-401" y="-219" on="0"/>
        <pt x="-374" y="-152" on="0"/>
        <pt x="-326" y="-102" on="0"/>
        <pt x="-262" y="-73" on="0"/>
        <pt x="-224" y="-73" on="1"/>
        <pt x="-187" y="-73" on="0"/>
        <pt x="-120" y="-102" on="0"/>
        <pt x="-69" y="-152" on="0"/>
        <pt x="-40" y="-219" on="0"/>
        <pt x="-40" y="-257" on="1"/>
        <pt x="-40" y="-277" on="0"/>
        <pt x="-49" y="-317" on="0"/>
        <pt x="-60" y="-334" on="1"/>
        <pt x="55" y="-364" on="1"/>
        <pt x="55" y="444" on="1"/>
        <pt x="127" y="444" on="1"/>
        <pt x="127" y="-457" on="1"/>
      </contour>
      <contour>
        <pt x="-95" y="-257" on="1"/>
        <pt x="-95" y="-231" on="0"/>
        <pt x="-114" y="-185" on="0"/>
        <pt x="-148" y="-150" on="0"/>
        <pt x="-193" y="-129" on="0"/>
        <pt x="-218" y="-129" on="1"/>
        <pt x="-237" y="-129" on="0"/>
        <pt x="-252" y="-135" on="1"/>
        <pt x="-224" y="-164" on="0"/>
        <pt x="-206" y="-228" on="0"/>
        <pt x="-206" y="-257" on="1"/>
        <pt x="-206" y="-286" on="0"/>
        <pt x="-227" y="-351" on="0"/>
        <pt x="-253" y="-380" on="1"/>
        <pt x="-238" y="-386" on="0"/>
        <pt x="-218" y="-386" on="1"/>
        <pt x="-193" y="-385" on="0"/>
        <pt x="-148" y="-364" on="0"/>
        <pt x="-114" y="-329" on="0"/>
        <pt x="-95" y="-283" on="0"/>
      </contour>
      <contour>
        <pt x="-252" y="-257" on="1"/>
        <pt x="-252" y="-237" on="0"/>
        <pt x="-271" y="-181" on="0"/>
        <pt x="-295" y="-155" on="1"/>
        <pt x="-319" y="-172" on="0"/>
        <pt x="-346" y="-225" on="0"/>
        <pt x="-346" y="-257" on="1"/>
        <pt x="-346" y="-289" on="0"/>
        <pt x="-319" y="-342" on="0"/>
        <pt x="-296" y="-358" on="1"/>
        <pt x="-272" y="-332" on="0"/>
        <pt x="-252" y="-277" on="0"/>
      </contour>
    </TTGlyph>
    <TTGlyph name="u1009" xMin="55" yMin="-457" xMax="910" yMax="461">
      <contour>
        <pt x="910" y="-346" on="1"/>
        <pt x="910" y="-381" on="0"/>
        <pt x="901" y="-417" on="0"/>
        <pt x="891" y="-428" on="1"/>
        <pt x="880" y="-442" on="0"/>
        <pt x="846" y="-457" on="0"/>
        <pt x="812" y="-457" on="1"/>
        <pt x="296" y="-457" on="1"/>
        <pt x="234" y="-457" on="0"/>
        <pt x="149" y="-425" on="0"/>
        <pt x="117" y="-392" on="1"/>
        <pt x="83" y="-357" on="0"/>
        <pt x="55" y="-273" on="0"/>
        <pt x="55" y="-217" on="1"/>
        <pt x="55" y="117" on="1"/>
        <pt x="119" y="151" on="1"/>
        <pt x="148" y="98" on="0"/>
        <pt x="237" y="54" on="0"/>
        <pt x="277" y="54" on="1"/>
        <pt x="311" y="54" on="0"/>
        <pt x="373" y="81" on="0"/>
        <pt x="418" y="126" on="0"/>
        <pt x="445" y="187" on="0"/>
        <pt x="445" y="222" on="1"/>
        <pt x="445" y="256" on="0"/>
        <pt x="418" y="317" on="0"/>
        <pt x="373" y="363" on="0"/>
        <pt x="311" y="390" on="0"/>
        <pt x="277" y="390" on="1"/>
        <pt x="237" y="390" on="0"/>
        <pt x="148" y="345" on="0"/>
        <pt x="119" y="292" on="1"/>
        <pt x="55" y="327" on="1"/>
        <pt x="71" y="361" on="0"/>
        <pt x="120" y="412" on="0"/>
        <pt x="180" y="445" on="0"/>
        <pt x="245" y="461" on="0"/>
        <pt x="277" y="461" on="1"/>
        <pt x="326" y="461" on="0"/>
        <pt x="413" y="423" on="0"/>
        <pt x="478" y="358" on="0"/>
        <pt x="516" y="271" on="0"/>
        <pt x="516" y="222" on="1"/>
        <pt x="516" y="172" on="0"/>
        <pt x="478" y="85" on="0"/>
        <pt x="413" y="20" on="0"/>
        <pt x="326" y="-18" on="0"/>
        <pt x="277" y="-18" on="1"/>
        <pt x="239" y="-18" on="0"/>
        <pt x="160" y="8" on="0"/>
        <pt x="127" y="33" on="1"/>
        <pt x="127" y="-202" on="1"/>
        <pt x="127" y="-247" on="0"/>
        <pt x="144" y="-317" on="0"/>
        <pt x="169" y="-342" on="1"/>
        <pt x="195" y="-368" on="0"/>
        <pt x="265" y="-385" on="0"/>
        <pt x="310" y="-385" on="1"/>
        <pt x="790" y="-385" on="1"/>
        <pt x="806" y="-385" on="0"/>
        <pt x="825" y="-381" on="0"/>
        <pt x="835" y="-370" on="0"/>
        <pt x="838" y="-349" on="0"/>
        <pt x="838" y="-332" on="1"/>
        <pt x="838" y="-292" on="1"/>
        <pt x="910" y="-292" on="1"/>
      </contour>
    </TTGlyph>
</ttFont>
